G04 #@! TF.FileFunction,Legend,Bot*
%FSLAX46Y46*%
G04 Gerber Fmt 4.6, Leading zero omitted, Abs format (unit mm)*
G04 Created by KiCad (PCBNEW 4.0.6) date 07/30/18 20:29:26*
%MOMM*%
%LPD*%
G01*
G04 APERTURE LIST*
%ADD10C,0.100000*%
%ADD11C,0.203200*%
%ADD12C,0.150000*%
%ADD13C,0.120000*%
G04 APERTURE END LIST*
D10*
D11*
X138991217Y-93779219D02*
X139475026Y-93779219D01*
X139475026Y-92763219D01*
X138265503Y-93730838D02*
X138362265Y-93779219D01*
X138555788Y-93779219D01*
X138652550Y-93730838D01*
X138700931Y-93634076D01*
X138700931Y-93247029D01*
X138652550Y-93150267D01*
X138555788Y-93101886D01*
X138362265Y-93101886D01*
X138265503Y-93150267D01*
X138217122Y-93247029D01*
X138217122Y-93343790D01*
X138700931Y-93440552D01*
X137346265Y-93779219D02*
X137346265Y-93247029D01*
X137394646Y-93150267D01*
X137491408Y-93101886D01*
X137684931Y-93101886D01*
X137781693Y-93150267D01*
X137346265Y-93730838D02*
X137443027Y-93779219D01*
X137684931Y-93779219D01*
X137781693Y-93730838D01*
X137830074Y-93634076D01*
X137830074Y-93537314D01*
X137781693Y-93440552D01*
X137684931Y-93392171D01*
X137443027Y-93392171D01*
X137346265Y-93343790D01*
X136862455Y-93779219D02*
X136862455Y-93101886D01*
X136862455Y-93295410D02*
X136814074Y-93198648D01*
X136765693Y-93150267D01*
X136668931Y-93101886D01*
X136572170Y-93101886D01*
X136233503Y-93101886D02*
X136233503Y-93779219D01*
X136233503Y-93198648D02*
X136185122Y-93150267D01*
X136088360Y-93101886D01*
X135943218Y-93101886D01*
X135846456Y-93150267D01*
X135798075Y-93247029D01*
X135798075Y-93779219D01*
X134540170Y-93779219D02*
X134540170Y-92763219D01*
X134104742Y-93779219D02*
X134104742Y-93247029D01*
X134153123Y-93150267D01*
X134249885Y-93101886D01*
X134395027Y-93101886D01*
X134491789Y-93150267D01*
X134540170Y-93198648D01*
X133475789Y-93779219D02*
X133572551Y-93730838D01*
X133620932Y-93682457D01*
X133669313Y-93585695D01*
X133669313Y-93295410D01*
X133620932Y-93198648D01*
X133572551Y-93150267D01*
X133475789Y-93101886D01*
X133330647Y-93101886D01*
X133233885Y-93150267D01*
X133185504Y-93198648D01*
X133137123Y-93295410D01*
X133137123Y-93585695D01*
X133185504Y-93682457D01*
X133233885Y-93730838D01*
X133330647Y-93779219D01*
X133475789Y-93779219D01*
X132798456Y-93101886D02*
X132604932Y-93779219D01*
X132411409Y-93295410D01*
X132217885Y-93779219D01*
X132024361Y-93101886D01*
X131008361Y-93101886D02*
X130621313Y-93101886D01*
X130863218Y-92763219D02*
X130863218Y-93634076D01*
X130814837Y-93730838D01*
X130718075Y-93779219D01*
X130621313Y-93779219D01*
X130137504Y-93779219D02*
X130234266Y-93730838D01*
X130282647Y-93682457D01*
X130331028Y-93585695D01*
X130331028Y-93295410D01*
X130282647Y-93198648D01*
X130234266Y-93150267D01*
X130137504Y-93101886D01*
X129992362Y-93101886D01*
X129895600Y-93150267D01*
X129847219Y-93198648D01*
X129798838Y-93295410D01*
X129798838Y-93585695D01*
X129847219Y-93682457D01*
X129895600Y-93730838D01*
X129992362Y-93779219D01*
X130137504Y-93779219D01*
X128153886Y-93779219D02*
X128153886Y-92763219D01*
X128153886Y-93730838D02*
X128250648Y-93779219D01*
X128444171Y-93779219D01*
X128540933Y-93730838D01*
X128589314Y-93682457D01*
X128637695Y-93585695D01*
X128637695Y-93295410D01*
X128589314Y-93198648D01*
X128540933Y-93150267D01*
X128444171Y-93101886D01*
X128250648Y-93101886D01*
X128153886Y-93150267D01*
X127283029Y-93730838D02*
X127379791Y-93779219D01*
X127573314Y-93779219D01*
X127670076Y-93730838D01*
X127718457Y-93634076D01*
X127718457Y-93247029D01*
X127670076Y-93150267D01*
X127573314Y-93101886D01*
X127379791Y-93101886D01*
X127283029Y-93150267D01*
X127234648Y-93247029D01*
X127234648Y-93343790D01*
X127718457Y-93440552D01*
X126847600Y-93730838D02*
X126750838Y-93779219D01*
X126557314Y-93779219D01*
X126460553Y-93730838D01*
X126412172Y-93634076D01*
X126412172Y-93585695D01*
X126460553Y-93488933D01*
X126557314Y-93440552D01*
X126702457Y-93440552D01*
X126799219Y-93392171D01*
X126847600Y-93295410D01*
X126847600Y-93247029D01*
X126799219Y-93150267D01*
X126702457Y-93101886D01*
X126557314Y-93101886D01*
X126460553Y-93150267D01*
X125976743Y-93779219D02*
X125976743Y-93101886D01*
X125976743Y-92763219D02*
X126025124Y-92811600D01*
X125976743Y-92859981D01*
X125928362Y-92811600D01*
X125976743Y-92763219D01*
X125976743Y-92859981D01*
X125057505Y-93101886D02*
X125057505Y-93924362D01*
X125105886Y-94021124D01*
X125154267Y-94069505D01*
X125251028Y-94117886D01*
X125396171Y-94117886D01*
X125492933Y-94069505D01*
X125057505Y-93730838D02*
X125154267Y-93779219D01*
X125347790Y-93779219D01*
X125444552Y-93730838D01*
X125492933Y-93682457D01*
X125541314Y-93585695D01*
X125541314Y-93295410D01*
X125492933Y-93198648D01*
X125444552Y-93150267D01*
X125347790Y-93101886D01*
X125154267Y-93101886D01*
X125057505Y-93150267D01*
X124573695Y-93101886D02*
X124573695Y-93779219D01*
X124573695Y-93198648D02*
X124525314Y-93150267D01*
X124428552Y-93101886D01*
X124283410Y-93101886D01*
X124186648Y-93150267D01*
X124138267Y-93247029D01*
X124138267Y-93779219D01*
X122057886Y-93779219D02*
X122106267Y-93779219D01*
X122203029Y-93730838D01*
X122348172Y-93585695D01*
X122590077Y-93295410D01*
X122686838Y-93150267D01*
X122735219Y-93005124D01*
X122735219Y-92908362D01*
X122686838Y-92811600D01*
X122590077Y-92763219D01*
X122541696Y-92763219D01*
X122444934Y-92811600D01*
X122396553Y-92908362D01*
X122396553Y-92956743D01*
X122444934Y-93053505D01*
X122493315Y-93101886D01*
X122783600Y-93295410D01*
X122831981Y-93343790D01*
X122880362Y-93440552D01*
X122880362Y-93585695D01*
X122831981Y-93682457D01*
X122783600Y-93730838D01*
X122686838Y-93779219D01*
X122541696Y-93779219D01*
X122444934Y-93730838D01*
X122396553Y-93682457D01*
X122251410Y-93488933D01*
X122203029Y-93343790D01*
X122203029Y-93247029D01*
X120412934Y-93779219D02*
X120412934Y-93247029D01*
X120461315Y-93150267D01*
X120558077Y-93101886D01*
X120751600Y-93101886D01*
X120848362Y-93150267D01*
X120412934Y-93730838D02*
X120509696Y-93779219D01*
X120751600Y-93779219D01*
X120848362Y-93730838D01*
X120896743Y-93634076D01*
X120896743Y-93537314D01*
X120848362Y-93440552D01*
X120751600Y-93392171D01*
X120509696Y-93392171D01*
X120412934Y-93343790D01*
X119977505Y-93730838D02*
X119880743Y-93779219D01*
X119687219Y-93779219D01*
X119590458Y-93730838D01*
X119542077Y-93634076D01*
X119542077Y-93585695D01*
X119590458Y-93488933D01*
X119687219Y-93440552D01*
X119832362Y-93440552D01*
X119929124Y-93392171D01*
X119977505Y-93295410D01*
X119977505Y-93247029D01*
X119929124Y-93150267D01*
X119832362Y-93101886D01*
X119687219Y-93101886D01*
X119590458Y-93150267D01*
X119155029Y-93730838D02*
X119058267Y-93779219D01*
X118864743Y-93779219D01*
X118767982Y-93730838D01*
X118719601Y-93634076D01*
X118719601Y-93585695D01*
X118767982Y-93488933D01*
X118864743Y-93440552D01*
X119009886Y-93440552D01*
X119106648Y-93392171D01*
X119155029Y-93295410D01*
X119155029Y-93247029D01*
X119106648Y-93150267D01*
X119009886Y-93101886D01*
X118864743Y-93101886D01*
X118767982Y-93150267D01*
X117897125Y-93730838D02*
X117993887Y-93779219D01*
X118187410Y-93779219D01*
X118284172Y-93730838D01*
X118332553Y-93634076D01*
X118332553Y-93247029D01*
X118284172Y-93150267D01*
X118187410Y-93101886D01*
X117993887Y-93101886D01*
X117897125Y-93150267D01*
X117848744Y-93247029D01*
X117848744Y-93343790D01*
X118332553Y-93440552D01*
X117413315Y-93779219D02*
X117413315Y-93101886D01*
X117413315Y-93198648D02*
X117364934Y-93150267D01*
X117268172Y-93101886D01*
X117123030Y-93101886D01*
X117026268Y-93150267D01*
X116977887Y-93247029D01*
X116977887Y-93779219D01*
X116977887Y-93247029D02*
X116929506Y-93150267D01*
X116832744Y-93101886D01*
X116687601Y-93101886D01*
X116590839Y-93150267D01*
X116542458Y-93247029D01*
X116542458Y-93779219D01*
X116058648Y-93779219D02*
X116058648Y-92763219D01*
X116058648Y-93150267D02*
X115961886Y-93101886D01*
X115768363Y-93101886D01*
X115671601Y-93150267D01*
X115623220Y-93198648D01*
X115574839Y-93295410D01*
X115574839Y-93585695D01*
X115623220Y-93682457D01*
X115671601Y-93730838D01*
X115768363Y-93779219D01*
X115961886Y-93779219D01*
X116058648Y-93730838D01*
X114994267Y-93779219D02*
X115091029Y-93730838D01*
X115139410Y-93634076D01*
X115139410Y-92763219D01*
X114220173Y-93730838D02*
X114316935Y-93779219D01*
X114510458Y-93779219D01*
X114607220Y-93730838D01*
X114655601Y-93634076D01*
X114655601Y-93247029D01*
X114607220Y-93150267D01*
X114510458Y-93101886D01*
X114316935Y-93101886D01*
X114220173Y-93150267D01*
X114171792Y-93247029D01*
X114171792Y-93343790D01*
X114655601Y-93440552D01*
X113107411Y-93101886D02*
X112720363Y-93101886D01*
X112962268Y-92763219D02*
X112962268Y-93634076D01*
X112913887Y-93730838D01*
X112817125Y-93779219D01*
X112720363Y-93779219D01*
X112381697Y-93779219D02*
X112381697Y-92763219D01*
X111946269Y-93779219D02*
X111946269Y-93247029D01*
X111994650Y-93150267D01*
X112091412Y-93101886D01*
X112236554Y-93101886D01*
X112333316Y-93150267D01*
X112381697Y-93198648D01*
X111462459Y-93779219D02*
X111462459Y-93101886D01*
X111462459Y-92763219D02*
X111510840Y-92811600D01*
X111462459Y-92859981D01*
X111414078Y-92811600D01*
X111462459Y-92763219D01*
X111462459Y-92859981D01*
X111027030Y-93730838D02*
X110930268Y-93779219D01*
X110736744Y-93779219D01*
X110639983Y-93730838D01*
X110591602Y-93634076D01*
X110591602Y-93585695D01*
X110639983Y-93488933D01*
X110736744Y-93440552D01*
X110881887Y-93440552D01*
X110978649Y-93392171D01*
X111027030Y-93295410D01*
X111027030Y-93247029D01*
X110978649Y-93150267D01*
X110881887Y-93101886D01*
X110736744Y-93101886D01*
X110639983Y-93150267D01*
X109382078Y-93779219D02*
X109382078Y-92763219D01*
X109382078Y-93150267D02*
X109285316Y-93101886D01*
X109091793Y-93101886D01*
X108995031Y-93150267D01*
X108946650Y-93198648D01*
X108898269Y-93295410D01*
X108898269Y-93585695D01*
X108946650Y-93682457D01*
X108995031Y-93730838D01*
X109091793Y-93779219D01*
X109285316Y-93779219D01*
X109382078Y-93730838D01*
X108317697Y-93779219D02*
X108414459Y-93730838D01*
X108462840Y-93682457D01*
X108511221Y-93585695D01*
X108511221Y-93295410D01*
X108462840Y-93198648D01*
X108414459Y-93150267D01*
X108317697Y-93101886D01*
X108172555Y-93101886D01*
X108075793Y-93150267D01*
X108027412Y-93198648D01*
X107979031Y-93295410D01*
X107979031Y-93585695D01*
X108027412Y-93682457D01*
X108075793Y-93730838D01*
X108172555Y-93779219D01*
X108317697Y-93779219D01*
X107108174Y-93779219D02*
X107108174Y-93247029D01*
X107156555Y-93150267D01*
X107253317Y-93101886D01*
X107446840Y-93101886D01*
X107543602Y-93150267D01*
X107108174Y-93730838D02*
X107204936Y-93779219D01*
X107446840Y-93779219D01*
X107543602Y-93730838D01*
X107591983Y-93634076D01*
X107591983Y-93537314D01*
X107543602Y-93440552D01*
X107446840Y-93392171D01*
X107204936Y-93392171D01*
X107108174Y-93343790D01*
X106624364Y-93779219D02*
X106624364Y-93101886D01*
X106624364Y-93295410D02*
X106575983Y-93198648D01*
X106527602Y-93150267D01*
X106430840Y-93101886D01*
X106334079Y-93101886D01*
X105559984Y-93779219D02*
X105559984Y-92763219D01*
X105559984Y-93730838D02*
X105656746Y-93779219D01*
X105850269Y-93779219D01*
X105947031Y-93730838D01*
X105995412Y-93682457D01*
X106043793Y-93585695D01*
X106043793Y-93295410D01*
X105995412Y-93198648D01*
X105947031Y-93150267D01*
X105850269Y-93101886D01*
X105656746Y-93101886D01*
X105559984Y-93150267D01*
X105076174Y-93682457D02*
X105027793Y-93730838D01*
X105076174Y-93779219D01*
X105124555Y-93730838D01*
X105076174Y-93682457D01*
X105076174Y-93779219D01*
X105076174Y-93150267D02*
X105027793Y-93198648D01*
X105076174Y-93247029D01*
X105124555Y-93198648D01*
X105076174Y-93150267D01*
X105076174Y-93247029D01*
X137225312Y-95506419D02*
X137225312Y-94490419D01*
X136789884Y-95506419D02*
X136789884Y-94974229D01*
X136838265Y-94877467D01*
X136935027Y-94829086D01*
X137080169Y-94829086D01*
X137176931Y-94877467D01*
X137225312Y-94925848D01*
X136451217Y-94829086D02*
X136064169Y-94829086D01*
X136306074Y-94490419D02*
X136306074Y-95361276D01*
X136257693Y-95458038D01*
X136160931Y-95506419D01*
X136064169Y-95506419D01*
X135870646Y-94829086D02*
X135483598Y-94829086D01*
X135725503Y-94490419D02*
X135725503Y-95361276D01*
X135677122Y-95458038D01*
X135580360Y-95506419D01*
X135483598Y-95506419D01*
X135144932Y-94829086D02*
X135144932Y-95845086D01*
X135144932Y-94877467D02*
X135048170Y-94829086D01*
X134854647Y-94829086D01*
X134757885Y-94877467D01*
X134709504Y-94925848D01*
X134661123Y-95022610D01*
X134661123Y-95312895D01*
X134709504Y-95409657D01*
X134757885Y-95458038D01*
X134854647Y-95506419D01*
X135048170Y-95506419D01*
X135144932Y-95458038D01*
X134274075Y-95458038D02*
X134177313Y-95506419D01*
X133983789Y-95506419D01*
X133887028Y-95458038D01*
X133838647Y-95361276D01*
X133838647Y-95312895D01*
X133887028Y-95216133D01*
X133983789Y-95167752D01*
X134128932Y-95167752D01*
X134225694Y-95119371D01*
X134274075Y-95022610D01*
X134274075Y-94974229D01*
X134225694Y-94877467D01*
X134128932Y-94829086D01*
X133983789Y-94829086D01*
X133887028Y-94877467D01*
X133403218Y-95409657D02*
X133354837Y-95458038D01*
X133403218Y-95506419D01*
X133451599Y-95458038D01*
X133403218Y-95409657D01*
X133403218Y-95506419D01*
X133403218Y-94877467D02*
X133354837Y-94925848D01*
X133403218Y-94974229D01*
X133451599Y-94925848D01*
X133403218Y-94877467D01*
X133403218Y-94974229D01*
X132193694Y-94442038D02*
X133064551Y-95748324D01*
X131129313Y-94442038D02*
X132000170Y-95748324D01*
X130355218Y-95458038D02*
X130451980Y-95506419D01*
X130645503Y-95506419D01*
X130742265Y-95458038D01*
X130790646Y-95409657D01*
X130839027Y-95312895D01*
X130839027Y-95022610D01*
X130790646Y-94925848D01*
X130742265Y-94877467D01*
X130645503Y-94829086D01*
X130451980Y-94829086D01*
X130355218Y-94877467D01*
X129774646Y-95506419D02*
X129871408Y-95458038D01*
X129919789Y-95409657D01*
X129968170Y-95312895D01*
X129968170Y-95022610D01*
X129919789Y-94925848D01*
X129871408Y-94877467D01*
X129774646Y-94829086D01*
X129629504Y-94829086D01*
X129532742Y-94877467D01*
X129484361Y-94925848D01*
X129435980Y-95022610D01*
X129435980Y-95312895D01*
X129484361Y-95409657D01*
X129532742Y-95458038D01*
X129629504Y-95506419D01*
X129774646Y-95506419D01*
X129000551Y-94829086D02*
X129000551Y-95506419D01*
X129000551Y-94925848D02*
X128952170Y-94877467D01*
X128855408Y-94829086D01*
X128710266Y-94829086D01*
X128613504Y-94877467D01*
X128565123Y-94974229D01*
X128565123Y-95506419D01*
X128226456Y-94829086D02*
X127839408Y-94829086D01*
X128081313Y-94490419D02*
X128081313Y-95361276D01*
X128032932Y-95458038D01*
X127936170Y-95506419D01*
X127839408Y-95506419D01*
X127113695Y-95458038D02*
X127210457Y-95506419D01*
X127403980Y-95506419D01*
X127500742Y-95458038D01*
X127549123Y-95361276D01*
X127549123Y-94974229D01*
X127500742Y-94877467D01*
X127403980Y-94829086D01*
X127210457Y-94829086D01*
X127113695Y-94877467D01*
X127065314Y-94974229D01*
X127065314Y-95070990D01*
X127549123Y-95167752D01*
X126726647Y-95506419D02*
X126194457Y-94829086D01*
X126726647Y-94829086D02*
X126194457Y-95506419D01*
X125952552Y-94829086D02*
X125565504Y-94829086D01*
X125807409Y-94490419D02*
X125807409Y-95361276D01*
X125759028Y-95458038D01*
X125662266Y-95506419D01*
X125565504Y-95506419D01*
X124791410Y-94829086D02*
X124791410Y-95506419D01*
X125226838Y-94829086D02*
X125226838Y-95361276D01*
X125178457Y-95458038D01*
X125081695Y-95506419D01*
X124936553Y-95506419D01*
X124839791Y-95458038D01*
X124791410Y-95409657D01*
X123872172Y-95506419D02*
X123872172Y-94974229D01*
X123920553Y-94877467D01*
X124017315Y-94829086D01*
X124210838Y-94829086D01*
X124307600Y-94877467D01*
X123872172Y-95458038D02*
X123968934Y-95506419D01*
X124210838Y-95506419D01*
X124307600Y-95458038D01*
X124355981Y-95361276D01*
X124355981Y-95264514D01*
X124307600Y-95167752D01*
X124210838Y-95119371D01*
X123968934Y-95119371D01*
X123872172Y-95070990D01*
X123243219Y-95506419D02*
X123339981Y-95458038D01*
X123388362Y-95361276D01*
X123388362Y-94490419D01*
X122469125Y-95458038D02*
X122565887Y-95506419D01*
X122759410Y-95506419D01*
X122856172Y-95458038D01*
X122904553Y-95361276D01*
X122904553Y-94974229D01*
X122856172Y-94877467D01*
X122759410Y-94829086D01*
X122565887Y-94829086D01*
X122469125Y-94877467D01*
X122420744Y-94974229D01*
X122420744Y-95070990D01*
X122904553Y-95167752D01*
X121840172Y-95506419D02*
X121936934Y-95458038D01*
X121985315Y-95361276D01*
X121985315Y-94490419D01*
X121066078Y-95458038D02*
X121162840Y-95506419D01*
X121356363Y-95506419D01*
X121453125Y-95458038D01*
X121501506Y-95361276D01*
X121501506Y-94974229D01*
X121453125Y-94877467D01*
X121356363Y-94829086D01*
X121162840Y-94829086D01*
X121066078Y-94877467D01*
X121017697Y-94974229D01*
X121017697Y-95070990D01*
X121501506Y-95167752D01*
X120146840Y-95458038D02*
X120243602Y-95506419D01*
X120437125Y-95506419D01*
X120533887Y-95458038D01*
X120582268Y-95409657D01*
X120630649Y-95312895D01*
X120630649Y-95022610D01*
X120582268Y-94925848D01*
X120533887Y-94877467D01*
X120437125Y-94829086D01*
X120243602Y-94829086D01*
X120146840Y-94877467D01*
X119856554Y-94829086D02*
X119469506Y-94829086D01*
X119711411Y-94490419D02*
X119711411Y-95361276D01*
X119663030Y-95458038D01*
X119566268Y-95506419D01*
X119469506Y-95506419D01*
X119130840Y-95506419D02*
X119130840Y-94829086D01*
X119130840Y-95022610D02*
X119082459Y-94925848D01*
X119034078Y-94877467D01*
X118937316Y-94829086D01*
X118840555Y-94829086D01*
X118356745Y-95506419D02*
X118453507Y-95458038D01*
X118501888Y-95409657D01*
X118550269Y-95312895D01*
X118550269Y-95022610D01*
X118501888Y-94925848D01*
X118453507Y-94877467D01*
X118356745Y-94829086D01*
X118211603Y-94829086D01*
X118114841Y-94877467D01*
X118066460Y-94925848D01*
X118018079Y-95022610D01*
X118018079Y-95312895D01*
X118066460Y-95409657D01*
X118114841Y-95458038D01*
X118211603Y-95506419D01*
X118356745Y-95506419D01*
X117582650Y-94829086D02*
X117582650Y-95506419D01*
X117582650Y-94925848D02*
X117534269Y-94877467D01*
X117437507Y-94829086D01*
X117292365Y-94829086D01*
X117195603Y-94877467D01*
X117147222Y-94974229D01*
X117147222Y-95506419D01*
X116663412Y-95506419D02*
X116663412Y-94829086D01*
X116663412Y-94490419D02*
X116711793Y-94538800D01*
X116663412Y-94587181D01*
X116615031Y-94538800D01*
X116663412Y-94490419D01*
X116663412Y-94587181D01*
X115744174Y-95458038D02*
X115840936Y-95506419D01*
X116034459Y-95506419D01*
X116131221Y-95458038D01*
X116179602Y-95409657D01*
X116227983Y-95312895D01*
X116227983Y-95022610D01*
X116179602Y-94925848D01*
X116131221Y-94877467D01*
X116034459Y-94829086D01*
X115840936Y-94829086D01*
X115744174Y-94877467D01*
X115357126Y-95458038D02*
X115260364Y-95506419D01*
X115066840Y-95506419D01*
X114970079Y-95458038D01*
X114921698Y-95361276D01*
X114921698Y-95312895D01*
X114970079Y-95216133D01*
X115066840Y-95167752D01*
X115211983Y-95167752D01*
X115308745Y-95119371D01*
X115357126Y-95022610D01*
X115357126Y-94974229D01*
X115308745Y-94877467D01*
X115211983Y-94829086D01*
X115066840Y-94829086D01*
X114970079Y-94877467D01*
X114486269Y-95409657D02*
X114437888Y-95458038D01*
X114486269Y-95506419D01*
X114534650Y-95458038D01*
X114486269Y-95409657D01*
X114486269Y-95506419D01*
X113567031Y-95458038D02*
X113663793Y-95506419D01*
X113857316Y-95506419D01*
X113954078Y-95458038D01*
X114002459Y-95409657D01*
X114050840Y-95312895D01*
X114050840Y-95022610D01*
X114002459Y-94925848D01*
X113954078Y-94877467D01*
X113857316Y-94829086D01*
X113663793Y-94829086D01*
X113567031Y-94877467D01*
X112986459Y-95506419D02*
X113083221Y-95458038D01*
X113131602Y-95409657D01*
X113179983Y-95312895D01*
X113179983Y-95022610D01*
X113131602Y-94925848D01*
X113083221Y-94877467D01*
X112986459Y-94829086D01*
X112841317Y-94829086D01*
X112744555Y-94877467D01*
X112696174Y-94925848D01*
X112647793Y-95022610D01*
X112647793Y-95312895D01*
X112696174Y-95409657D01*
X112744555Y-95458038D01*
X112841317Y-95506419D01*
X112986459Y-95506419D01*
X112212364Y-95506419D02*
X112212364Y-94829086D01*
X112212364Y-94925848D02*
X112163983Y-94877467D01*
X112067221Y-94829086D01*
X111922079Y-94829086D01*
X111825317Y-94877467D01*
X111776936Y-94974229D01*
X111776936Y-95506419D01*
X111776936Y-94974229D02*
X111728555Y-94877467D01*
X111631793Y-94829086D01*
X111486650Y-94829086D01*
X111389888Y-94877467D01*
X111341507Y-94974229D01*
X111341507Y-95506419D01*
X110131983Y-94442038D02*
X111002840Y-95748324D01*
X109793316Y-95506419D02*
X109793316Y-94490419D01*
X109212745Y-95506419D01*
X109212745Y-94490419D01*
X108777316Y-95216133D02*
X108293507Y-95216133D01*
X108874078Y-95506419D02*
X108535411Y-94490419D01*
X108196745Y-95506419D01*
X107277507Y-95409657D02*
X107325888Y-95458038D01*
X107471031Y-95506419D01*
X107567793Y-95506419D01*
X107712935Y-95458038D01*
X107809697Y-95361276D01*
X107858078Y-95264514D01*
X107906459Y-95070990D01*
X107906459Y-94925848D01*
X107858078Y-94732324D01*
X107809697Y-94635562D01*
X107712935Y-94538800D01*
X107567793Y-94490419D01*
X107471031Y-94490419D01*
X107325888Y-94538800D01*
X107277507Y-94587181D01*
D12*
X126746000Y-105410000D02*
X126746000Y-100330000D01*
X126746000Y-100330000D02*
X122174000Y-100330000D01*
X122174000Y-100330000D02*
X122174000Y-105410000D01*
X122174000Y-105410000D02*
X126746000Y-105410000D01*
X125222000Y-105410000D02*
X125222000Y-104902000D01*
X125222000Y-104902000D02*
X123952000Y-104902000D01*
X123952000Y-104902000D02*
X123952000Y-105410000D01*
D13*
X125362400Y-99279600D02*
X126562400Y-99279600D01*
X126562400Y-97519600D02*
X125362400Y-97519600D01*
X124317200Y-108880800D02*
X125517200Y-108880800D01*
X125517200Y-107120800D02*
X124317200Y-107120800D01*
X120260000Y-104202800D02*
X120260000Y-103002800D01*
X118500000Y-103002800D02*
X118500000Y-104202800D01*
X129117200Y-107654800D02*
X129117200Y-108854800D01*
X130877200Y-108854800D02*
X130877200Y-107654800D01*
X129168000Y-102219200D02*
X129168000Y-103419200D01*
X130928000Y-103419200D02*
X130928000Y-102219200D01*
X121665924Y-105581505D02*
X121665924Y-106229124D01*
X121627829Y-106305314D01*
X121589733Y-106343410D01*
X121513543Y-106381505D01*
X121361162Y-106381505D01*
X121284971Y-106343410D01*
X121246876Y-106305314D01*
X121208781Y-106229124D01*
X121208781Y-105581505D01*
X120408781Y-106381505D02*
X120865924Y-106381505D01*
X120637353Y-106381505D02*
X120637353Y-105581505D01*
X120713543Y-105695790D01*
X120789734Y-105771981D01*
X120865924Y-105810076D01*
D12*
X126129066Y-97056743D02*
X126176685Y-97104362D01*
X126319542Y-97151981D01*
X126414780Y-97151981D01*
X126557638Y-97104362D01*
X126652876Y-97009124D01*
X126700495Y-96913886D01*
X126748114Y-96723410D01*
X126748114Y-96580552D01*
X126700495Y-96390076D01*
X126652876Y-96294838D01*
X126557638Y-96199600D01*
X126414780Y-96151981D01*
X126319542Y-96151981D01*
X126176685Y-96199600D01*
X126129066Y-96247219D01*
X125176685Y-97151981D02*
X125748114Y-97151981D01*
X125462400Y-97151981D02*
X125462400Y-96151981D01*
X125557638Y-96294838D01*
X125652876Y-96390076D01*
X125748114Y-96437695D01*
X125083866Y-110085143D02*
X125131485Y-110132762D01*
X125274342Y-110180381D01*
X125369580Y-110180381D01*
X125512438Y-110132762D01*
X125607676Y-110037524D01*
X125655295Y-109942286D01*
X125702914Y-109751810D01*
X125702914Y-109608952D01*
X125655295Y-109418476D01*
X125607676Y-109323238D01*
X125512438Y-109228000D01*
X125369580Y-109180381D01*
X125274342Y-109180381D01*
X125131485Y-109228000D01*
X125083866Y-109275619D01*
X124702914Y-109275619D02*
X124655295Y-109228000D01*
X124560057Y-109180381D01*
X124321961Y-109180381D01*
X124226723Y-109228000D01*
X124179104Y-109275619D01*
X124131485Y-109370857D01*
X124131485Y-109466095D01*
X124179104Y-109608952D01*
X124750533Y-110180381D01*
X124131485Y-110180381D01*
X118132381Y-103436134D02*
X117656190Y-103102800D01*
X118132381Y-102864705D02*
X117132381Y-102864705D01*
X117132381Y-103245658D01*
X117180000Y-103340896D01*
X117227619Y-103388515D01*
X117322857Y-103436134D01*
X117465714Y-103436134D01*
X117560952Y-103388515D01*
X117608571Y-103340896D01*
X117656190Y-103245658D01*
X117656190Y-102864705D01*
X118132381Y-104388515D02*
X118132381Y-103817086D01*
X118132381Y-104102800D02*
X117132381Y-104102800D01*
X117275238Y-104007562D01*
X117370476Y-103912324D01*
X117418095Y-103817086D01*
X132149581Y-108088134D02*
X131673390Y-107754800D01*
X132149581Y-107516705D02*
X131149581Y-107516705D01*
X131149581Y-107897658D01*
X131197200Y-107992896D01*
X131244819Y-108040515D01*
X131340057Y-108088134D01*
X131482914Y-108088134D01*
X131578152Y-108040515D01*
X131625771Y-107992896D01*
X131673390Y-107897658D01*
X131673390Y-107516705D01*
X131244819Y-108469086D02*
X131197200Y-108516705D01*
X131149581Y-108611943D01*
X131149581Y-108850039D01*
X131197200Y-108945277D01*
X131244819Y-108992896D01*
X131340057Y-109040515D01*
X131435295Y-109040515D01*
X131578152Y-108992896D01*
X132149581Y-108421467D01*
X132149581Y-109040515D01*
X132200381Y-102652534D02*
X131724190Y-102319200D01*
X132200381Y-102081105D02*
X131200381Y-102081105D01*
X131200381Y-102462058D01*
X131248000Y-102557296D01*
X131295619Y-102604915D01*
X131390857Y-102652534D01*
X131533714Y-102652534D01*
X131628952Y-102604915D01*
X131676571Y-102557296D01*
X131724190Y-102462058D01*
X131724190Y-102081105D01*
X131200381Y-102985867D02*
X131200381Y-103604915D01*
X131581333Y-103271581D01*
X131581333Y-103414439D01*
X131628952Y-103509677D01*
X131676571Y-103557296D01*
X131771810Y-103604915D01*
X132009905Y-103604915D01*
X132105143Y-103557296D01*
X132152762Y-103509677D01*
X132200381Y-103414439D01*
X132200381Y-103128724D01*
X132152762Y-103033486D01*
X132105143Y-102985867D01*
M02*
