G04 #@! TF.FileFunction,Copper,L2,Bot,Signal*
%FSLAX46Y46*%
G04 Gerber Fmt 4.6, Leading zero omitted, Abs format (unit mm)*
G04 Created by KiCad (PCBNEW 4.0.6) date 07/30/18 20:29:26*
%MOMM*%
%LPD*%
G01*
G04 APERTURE LIST*
%ADD10C,0.100000*%
%ADD11R,1.143000X0.508000*%
%ADD12R,1.727200X1.727200*%
%ADD13O,1.727200X1.727200*%
%ADD14R,1.500000X1.300000*%
%ADD15R,1.300000X1.500000*%
%ADD16C,0.600000*%
%ADD17C,0.250000*%
%ADD18C,0.609600*%
%ADD19C,0.254000*%
G04 APERTURE END LIST*
D10*
D11*
X127635000Y-104775000D03*
X127635000Y-103505000D03*
X127635000Y-102235000D03*
X127635000Y-100965000D03*
X121285000Y-100965000D03*
X121285000Y-102235000D03*
X121285000Y-103505000D03*
X121285000Y-104775000D03*
D12*
X86804500Y-126428500D03*
D13*
X89344500Y-126428500D03*
X86804500Y-128968500D03*
X89344500Y-128968500D03*
D14*
X127312400Y-98399600D03*
X124612400Y-98399600D03*
X126267200Y-108000800D03*
X123567200Y-108000800D03*
D15*
X119380000Y-102252800D03*
X119380000Y-104952800D03*
X129997200Y-109604800D03*
X129997200Y-106904800D03*
X130048000Y-104169200D03*
X130048000Y-101469200D03*
D16*
X123190000Y-109372400D03*
X118770400Y-107797600D03*
D17*
X121285000Y-100965000D02*
X121602500Y-100965000D01*
X121602500Y-100965000D02*
X123456700Y-102819200D01*
X123456700Y-102819200D02*
X126238000Y-102819200D01*
X126238000Y-102819200D02*
X126644400Y-103225600D01*
X126644400Y-103225600D02*
X126644400Y-104605900D01*
X126644400Y-104605900D02*
X126813500Y-104775000D01*
X129997200Y-109604800D02*
X126412000Y-109604800D01*
X126412000Y-109604800D02*
X126267200Y-109749600D01*
X127635000Y-104775000D02*
X126813500Y-104775000D01*
X126813500Y-104775000D02*
X126267200Y-105321300D01*
X126267200Y-105321300D02*
X126267200Y-107100800D01*
X126267200Y-107100800D02*
X126267200Y-108000800D01*
D18*
X86804500Y-126428500D02*
X86804500Y-124955300D01*
X86804500Y-124955300D02*
X87299800Y-124460000D01*
X87299800Y-124460000D02*
X113792000Y-124460000D01*
X118364000Y-119888000D02*
X118364000Y-117652800D01*
X118364000Y-117652800D02*
X119938800Y-116078000D01*
X113792000Y-124460000D02*
X118364000Y-119888000D01*
X119938800Y-116078000D02*
X126267200Y-109749600D01*
X126267200Y-109749600D02*
X126267200Y-108000800D01*
X123190000Y-109372400D02*
X123139200Y-109321600D01*
X123139200Y-109321600D02*
X122834400Y-109321600D01*
D17*
X127312400Y-98399600D02*
X127412400Y-98399600D01*
X127412400Y-98399600D02*
X130048000Y-101035200D01*
X130048000Y-101035200D02*
X130048000Y-101469200D01*
X127635000Y-102235000D02*
X129282200Y-102235000D01*
X129282200Y-102235000D02*
X130048000Y-101469200D01*
X121285000Y-103505000D02*
X118647198Y-103505000D01*
X118647198Y-103505000D02*
X118059200Y-102917002D01*
X123926600Y-102235000D02*
X127635000Y-102235000D01*
X118059200Y-102917002D02*
X118059200Y-101447600D01*
X118059200Y-101447600D02*
X119126000Y-100380800D01*
X119126000Y-100380800D02*
X122072400Y-100380800D01*
X122072400Y-100380800D02*
X123926600Y-102235000D01*
X119380000Y-102252800D02*
X121267200Y-102252800D01*
X121267200Y-102252800D02*
X121285000Y-102235000D01*
X130048000Y-104169200D02*
X130048000Y-106854000D01*
X130048000Y-106854000D02*
X129997200Y-106904800D01*
X127635000Y-103505000D02*
X129383800Y-103505000D01*
X129383800Y-103505000D02*
X130048000Y-104169200D01*
X119380000Y-104952800D02*
X119380000Y-107188000D01*
X119380000Y-107188000D02*
X118770400Y-107797600D01*
D19*
G36*
X133091257Y-90103371D02*
X133091259Y-90103372D01*
X133710053Y-90328056D01*
X134990817Y-90793194D01*
X134990820Y-90793196D01*
X136225603Y-91241759D01*
X137405005Y-91670326D01*
X137405006Y-91670326D01*
X138519523Y-92075438D01*
X138519527Y-92075439D01*
X139559756Y-92453676D01*
X139559761Y-92453677D01*
X140516214Y-92801584D01*
X140516217Y-92801586D01*
X141379629Y-93115795D01*
X141379632Y-93115795D01*
X142140303Y-93392775D01*
X142140304Y-93392775D01*
X142788990Y-93629161D01*
X142788992Y-93629162D01*
X143316367Y-93821562D01*
X143316369Y-93821562D01*
X143712626Y-93966407D01*
X143967362Y-94059908D01*
X144035434Y-94085298D01*
X144057632Y-94099321D01*
X144206227Y-94239739D01*
X144416485Y-94478640D01*
X144647985Y-94771068D01*
X144869081Y-95076170D01*
X145049881Y-95352965D01*
X145153640Y-95543215D01*
X145159128Y-95562371D01*
X145101551Y-95795378D01*
X145009764Y-96143907D01*
X144893143Y-96571807D01*
X144759824Y-97048232D01*
X144352757Y-98484906D01*
X144347767Y-98547347D01*
X144338614Y-98609306D01*
X144341800Y-98621994D01*
X144340758Y-98635037D01*
X144360042Y-98694632D01*
X144375297Y-98755380D01*
X144738984Y-99523130D01*
X145039767Y-100249525D01*
X145326719Y-101266377D01*
X145469833Y-102291086D01*
X145469466Y-103306058D01*
X145325494Y-104290421D01*
X145033800Y-105238222D01*
X144989158Y-105348482D01*
X144549268Y-106278345D01*
X144062410Y-107047338D01*
X143516165Y-107679529D01*
X142897533Y-108194269D01*
X142174213Y-108618319D01*
X141927780Y-108745111D01*
X141909523Y-108759621D01*
X141888030Y-108768673D01*
X141696894Y-108898030D01*
X141655881Y-108939532D01*
X141611324Y-108977198D01*
X141502440Y-109113886D01*
X141474390Y-109168253D01*
X141442371Y-109220368D01*
X141375035Y-109402239D01*
X141372400Y-109418755D01*
X141364894Y-109433705D01*
X141335124Y-109541726D01*
X141335114Y-109541861D01*
X141335055Y-109541979D01*
X141261898Y-109808138D01*
X141261895Y-109808184D01*
X141261873Y-109808227D01*
X141152904Y-110205045D01*
X141152902Y-110205067D01*
X141152892Y-110205088D01*
X141013039Y-110714606D01*
X141013038Y-110714622D01*
X141013032Y-110714634D01*
X140847223Y-111318892D01*
X140847222Y-111318904D01*
X140847217Y-111318914D01*
X140660381Y-111999953D01*
X140660380Y-111999962D01*
X140660376Y-111999971D01*
X140457440Y-112739834D01*
X140457439Y-112739842D01*
X140457435Y-112739851D01*
X140243342Y-113520537D01*
X140227299Y-113579011D01*
X139968296Y-114513285D01*
X139732933Y-115343784D01*
X139524281Y-116060373D01*
X139345622Y-116652250D01*
X139200728Y-117107230D01*
X139095816Y-117406947D01*
X139043928Y-117524501D01*
X139027397Y-117548303D01*
X138784496Y-117770370D01*
X138477202Y-117917103D01*
X138129132Y-117973769D01*
X138060851Y-117968591D01*
X137826847Y-117933346D01*
X137465186Y-117866644D01*
X136977047Y-117767918D01*
X136359562Y-117636353D01*
X135608434Y-117470956D01*
X134718584Y-117270590D01*
X133684883Y-117034115D01*
X132502673Y-116760506D01*
X131166434Y-116448543D01*
X129670645Y-116097002D01*
X129670644Y-116097002D01*
X129401948Y-116033792D01*
X129401499Y-116033776D01*
X129401087Y-116033590D01*
X128378574Y-115795521D01*
X128377615Y-115795490D01*
X128376738Y-115795098D01*
X127515223Y-115598944D01*
X127513812Y-115598905D01*
X127512520Y-115598339D01*
X126809660Y-115443606D01*
X126807418Y-115443560D01*
X126805355Y-115442684D01*
X126258802Y-115328881D01*
X126254769Y-115328845D01*
X126251026Y-115327345D01*
X125858432Y-115253977D01*
X125849240Y-115254084D01*
X125840554Y-115251068D01*
X125599576Y-115217645D01*
X125560268Y-115219949D01*
X125521229Y-115214816D01*
X125429519Y-115220844D01*
X125383276Y-115233244D01*
X125335740Y-115238846D01*
X125311205Y-115252570D01*
X125284048Y-115259852D01*
X125246074Y-115289001D01*
X125204297Y-115312370D01*
X125186881Y-115334440D01*
X125164579Y-115351559D01*
X125140651Y-115393021D01*
X125110996Y-115430600D01*
X125091664Y-115468493D01*
X125086066Y-115488303D01*
X125075087Y-115505719D01*
X125006166Y-115685478D01*
X125004861Y-115693094D01*
X125001002Y-115699785D01*
X124905966Y-115980244D01*
X124905400Y-115984558D01*
X124903310Y-115988376D01*
X124796693Y-116327564D01*
X124796601Y-116328412D01*
X124796194Y-116329163D01*
X124723946Y-116562546D01*
X124664251Y-116734049D01*
X124502090Y-116701930D01*
X124496446Y-116701935D01*
X124491168Y-116699929D01*
X124118459Y-116637189D01*
X124114987Y-116637292D01*
X124111720Y-116636116D01*
X123697995Y-116573971D01*
X123695224Y-116574102D01*
X123692602Y-116573200D01*
X123272541Y-116516153D01*
X123269705Y-116516327D01*
X123267006Y-116515442D01*
X122875288Y-116468001D01*
X122871477Y-116468291D01*
X122867824Y-116467171D01*
X122539130Y-116433838D01*
X122531825Y-116434536D01*
X122524731Y-116432649D01*
X122293743Y-116417930D01*
X122265123Y-116421751D01*
X122236431Y-116418542D01*
X122137828Y-116426942D01*
X122086940Y-116441649D01*
X122034678Y-116450269D01*
X122015187Y-116462385D01*
X121993139Y-116468757D01*
X121951753Y-116501818D01*
X121906768Y-116529782D01*
X121893397Y-116548435D01*
X121875466Y-116562759D01*
X121849883Y-116609140D01*
X121819023Y-116652191D01*
X121786005Y-116725032D01*
X121782332Y-116740776D01*
X121774032Y-116754649D01*
X121696507Y-116971879D01*
X121695878Y-116976140D01*
X121693750Y-116979882D01*
X121581425Y-117317860D01*
X121581164Y-117319944D01*
X121580144Y-117321783D01*
X121440327Y-117758008D01*
X121440165Y-117759427D01*
X121439480Y-117760683D01*
X121279479Y-118272659D01*
X121279352Y-118273848D01*
X121278786Y-118274901D01*
X121105908Y-118840127D01*
X121105851Y-118840694D01*
X121105583Y-118841196D01*
X120478797Y-120911889D01*
X120476345Y-120936941D01*
X120467456Y-120960493D01*
X120469071Y-121011249D01*
X120464125Y-121061783D01*
X120471446Y-121085866D01*
X120472247Y-121111026D01*
X120493162Y-121157299D01*
X120507931Y-121205881D01*
X120523910Y-121225328D01*
X120534279Y-121248268D01*
X121398355Y-122456410D01*
X122192325Y-123566530D01*
X122231165Y-126051477D01*
X122239913Y-126686980D01*
X122245070Y-127422484D01*
X122241072Y-128019756D01*
X122226660Y-128497656D01*
X122200948Y-128873927D01*
X122163665Y-129167035D01*
X122114944Y-129397913D01*
X122053568Y-129592148D01*
X121974864Y-129778121D01*
X121925890Y-129875476D01*
X121835735Y-130002915D01*
X121759638Y-130054143D01*
X121580366Y-130099665D01*
X121217465Y-130130254D01*
X121142007Y-130133778D01*
X120901863Y-130137447D01*
X120819487Y-130124492D01*
X120776425Y-130100854D01*
X120672529Y-130007203D01*
X120497712Y-129794318D01*
X120262839Y-129363362D01*
X120040286Y-128771674D01*
X119841064Y-128032926D01*
X119672067Y-127157291D01*
X119645226Y-126994630D01*
X119643165Y-126989154D01*
X119643183Y-126983307D01*
X119591495Y-126719316D01*
X119580596Y-126692778D01*
X119576460Y-126664389D01*
X119526111Y-126522513D01*
X119510391Y-126496130D01*
X119501231Y-126466817D01*
X119472204Y-126432043D01*
X119449018Y-126393131D01*
X119424398Y-126374772D01*
X119404717Y-126351195D01*
X119341188Y-126299939D01*
X119277912Y-126266793D01*
X119215330Y-126232360D01*
X119211335Y-126231918D01*
X119207774Y-126230052D01*
X119136634Y-126223644D01*
X119065635Y-126215781D01*
X118974404Y-126223651D01*
X118953447Y-126229732D01*
X118931629Y-126229769D01*
X118849725Y-126246206D01*
X118608305Y-126292874D01*
X118216249Y-126367969D01*
X117683270Y-126469644D01*
X117017849Y-126596291D01*
X117017848Y-126596291D01*
X116229427Y-126746119D01*
X115326460Y-126917524D01*
X115326459Y-126917524D01*
X114318075Y-127108777D01*
X113212867Y-127318244D01*
X113212863Y-127318245D01*
X112019863Y-127544218D01*
X110747765Y-127785044D01*
X109405433Y-128039044D01*
X108001675Y-128304547D01*
X108001672Y-128304548D01*
X106545406Y-128579863D01*
X105045328Y-128863340D01*
X105045318Y-128863344D01*
X103676988Y-129121994D01*
X103676955Y-129122007D01*
X102220464Y-129397598D01*
X102220428Y-129397612D01*
X100817201Y-129663413D01*
X100817163Y-129663428D01*
X99475903Y-129917781D01*
X99475862Y-129917797D01*
X98205269Y-130159041D01*
X98205223Y-130159059D01*
X97014002Y-130385534D01*
X97013951Y-130385554D01*
X95910800Y-130595599D01*
X95910739Y-130595623D01*
X94904357Y-130787578D01*
X94904284Y-130787608D01*
X94904207Y-130787607D01*
X94003371Y-130959812D01*
X94003278Y-130959850D01*
X94003177Y-130959849D01*
X93216526Y-131110644D01*
X93216396Y-131110697D01*
X93216257Y-131110696D01*
X92552494Y-131238422D01*
X92552300Y-131238501D01*
X92552090Y-131238500D01*
X92019917Y-131341494D01*
X92019576Y-131341633D01*
X92019208Y-131341632D01*
X91627329Y-131418236D01*
X91626554Y-131418554D01*
X91625716Y-131418555D01*
X91382834Y-131467108D01*
X91379139Y-131468643D01*
X91375139Y-131468728D01*
X91289955Y-131487569D01*
X91285049Y-131489725D01*
X91280044Y-131489963D01*
X91236676Y-131510392D01*
X91190162Y-131524680D01*
X91172751Y-131539072D01*
X91152071Y-131548159D01*
X91148427Y-131551961D01*
X91143794Y-131554144D01*
X91111366Y-131589811D01*
X91074075Y-131620635D01*
X91074009Y-131620715D01*
X91063444Y-131640649D01*
X91047869Y-131656903D01*
X91045997Y-131661709D01*
X91042477Y-131665581D01*
X91026119Y-131711074D01*
X91003480Y-131753790D01*
X91001334Y-131776396D01*
X90993214Y-131797245D01*
X90993322Y-131802288D01*
X90991517Y-131807307D01*
X90978455Y-131894427D01*
X90978732Y-131900251D01*
X90976922Y-131905797D01*
X90949201Y-132137451D01*
X90949299Y-132138718D01*
X90948914Y-132139924D01*
X90909026Y-132492515D01*
X90909074Y-132493088D01*
X90908900Y-132493639D01*
X90859335Y-132943567D01*
X90859365Y-132943914D01*
X90859261Y-132944246D01*
X90802510Y-133467911D01*
X90802532Y-133468158D01*
X90802457Y-133468398D01*
X90741010Y-134042202D01*
X90741028Y-134042408D01*
X90740967Y-134042605D01*
X90677315Y-134642948D01*
X90677333Y-134643142D01*
X90677276Y-134643324D01*
X90613910Y-135246608D01*
X90613929Y-135246810D01*
X90613869Y-135247003D01*
X90553278Y-135829628D01*
X90553300Y-135829866D01*
X90553229Y-135830097D01*
X90497905Y-136368465D01*
X90497935Y-136368787D01*
X90497840Y-136369099D01*
X90450274Y-136839608D01*
X90450323Y-136840121D01*
X90450174Y-136840613D01*
X90412855Y-137219668D01*
X90412957Y-137220704D01*
X90412660Y-137221702D01*
X90407398Y-137278218D01*
X90378505Y-137278910D01*
X90063511Y-137280618D01*
X89478307Y-137279463D01*
X86211612Y-135203096D01*
X86211610Y-135203094D01*
X85745441Y-134906567D01*
X85036294Y-134454043D01*
X84453050Y-134079122D01*
X83984015Y-133773617D01*
X83617989Y-133529699D01*
X83344756Y-133340320D01*
X83155184Y-133199633D01*
X83042547Y-133105193D01*
X83031645Y-133093724D01*
X83041266Y-132980686D01*
X83072291Y-132648321D01*
X83117209Y-132182349D01*
X83174336Y-131599475D01*
X83242216Y-130913997D01*
X83319320Y-130140931D01*
X83319321Y-130140928D01*
X83404211Y-129294394D01*
X83404211Y-129294393D01*
X83404893Y-129287618D01*
X85601507Y-129287618D01*
X85728195Y-129593501D01*
X86049301Y-129957810D01*
X86485380Y-130171505D01*
X86677500Y-130111365D01*
X86677500Y-129095500D01*
X86931500Y-129095500D01*
X86931500Y-130111365D01*
X87123620Y-130171505D01*
X87559699Y-129957810D01*
X87880805Y-129593501D01*
X88007493Y-129287618D01*
X87946812Y-129095500D01*
X86931500Y-129095500D01*
X86677500Y-129095500D01*
X85662188Y-129095500D01*
X85601507Y-129287618D01*
X83404893Y-129287618D01*
X83437034Y-128968500D01*
X88075517Y-128968500D01*
X88170257Y-129444788D01*
X88440052Y-129848565D01*
X88843829Y-130118360D01*
X89320117Y-130213100D01*
X89368883Y-130213100D01*
X89845171Y-130118360D01*
X90248948Y-129848565D01*
X90518743Y-129444788D01*
X90613483Y-128968500D01*
X90518743Y-128492212D01*
X90248948Y-128088435D01*
X89845171Y-127818640D01*
X89368883Y-127723900D01*
X89320117Y-127723900D01*
X88843829Y-127818640D01*
X88440052Y-128088435D01*
X88170257Y-128492212D01*
X88075517Y-128968500D01*
X83437034Y-128968500D01*
X83469175Y-128649382D01*
X85601507Y-128649382D01*
X85662188Y-128841500D01*
X86677500Y-128841500D01*
X86677500Y-127825635D01*
X86931500Y-127825635D01*
X86931500Y-128841500D01*
X87946812Y-128841500D01*
X88007493Y-128649382D01*
X87880805Y-128343499D01*
X87559699Y-127979190D01*
X87123620Y-127765495D01*
X86931500Y-127825635D01*
X86677500Y-127825635D01*
X86485380Y-127765495D01*
X86049301Y-127979190D01*
X85728195Y-128343499D01*
X85601507Y-128649382D01*
X83469175Y-128649382D01*
X83495326Y-128389738D01*
X83591189Y-127441461D01*
X83690302Y-126464270D01*
X83781805Y-125564900D01*
X85552436Y-125564900D01*
X85552436Y-127292100D01*
X85579003Y-127433290D01*
X85662446Y-127562965D01*
X85789766Y-127649959D01*
X85940900Y-127680564D01*
X87668100Y-127680564D01*
X87809290Y-127653997D01*
X87938965Y-127570554D01*
X88025959Y-127443234D01*
X88056564Y-127292100D01*
X88056564Y-126428500D01*
X88075517Y-126428500D01*
X88170257Y-126904788D01*
X88440052Y-127308565D01*
X88843829Y-127578360D01*
X89320117Y-127673100D01*
X89368883Y-127673100D01*
X89845171Y-127578360D01*
X90248948Y-127308565D01*
X90518743Y-126904788D01*
X90613483Y-126428500D01*
X90518743Y-125952212D01*
X90248948Y-125548435D01*
X89845171Y-125278640D01*
X89368883Y-125183900D01*
X89320117Y-125183900D01*
X88843829Y-125278640D01*
X88440052Y-125548435D01*
X88170257Y-125952212D01*
X88075517Y-126428500D01*
X88056564Y-126428500D01*
X88056564Y-125564900D01*
X88029997Y-125423710D01*
X87946554Y-125294035D01*
X87819234Y-125207041D01*
X87668100Y-125176436D01*
X87553232Y-125176436D01*
X87583868Y-125145800D01*
X113792000Y-125145800D01*
X114054445Y-125093597D01*
X114276934Y-124944934D01*
X118848934Y-120372934D01*
X118891296Y-120309535D01*
X118997597Y-120150444D01*
X119049800Y-119888000D01*
X119049800Y-117936868D01*
X120423731Y-116562936D01*
X120423734Y-116562934D01*
X126752134Y-110234534D01*
X126834811Y-110110800D01*
X128958736Y-110110800D01*
X128958736Y-110354800D01*
X128985303Y-110495990D01*
X129068746Y-110625665D01*
X129196066Y-110712659D01*
X129347200Y-110743264D01*
X130647200Y-110743264D01*
X130788390Y-110716697D01*
X130918065Y-110633254D01*
X131005059Y-110505934D01*
X131035664Y-110354800D01*
X131035664Y-108854800D01*
X131009097Y-108713610D01*
X130925654Y-108583935D01*
X130798334Y-108496941D01*
X130647200Y-108466336D01*
X129347200Y-108466336D01*
X129206010Y-108492903D01*
X129076335Y-108576346D01*
X128989341Y-108703666D01*
X128958736Y-108854800D01*
X128958736Y-109098800D01*
X126953000Y-109098800D01*
X126953000Y-109039264D01*
X127017200Y-109039264D01*
X127158390Y-109012697D01*
X127288065Y-108929254D01*
X127375059Y-108801934D01*
X127405664Y-108650800D01*
X127405664Y-107350800D01*
X127379097Y-107209610D01*
X127295654Y-107079935D01*
X127168334Y-106992941D01*
X127017200Y-106962336D01*
X126773200Y-106962336D01*
X126773200Y-105530892D01*
X126916413Y-105387679D01*
X127063500Y-105417464D01*
X128206500Y-105417464D01*
X128347690Y-105390897D01*
X128477365Y-105307454D01*
X128564359Y-105180134D01*
X128594964Y-105029000D01*
X128594964Y-104521000D01*
X128568397Y-104379810D01*
X128484954Y-104250135D01*
X128357634Y-104163141D01*
X128244712Y-104140274D01*
X128347690Y-104120897D01*
X128477365Y-104037454D01*
X128495440Y-104011000D01*
X129009536Y-104011000D01*
X129009536Y-104919200D01*
X129036103Y-105060390D01*
X129119546Y-105190065D01*
X129246866Y-105277059D01*
X129398000Y-105307664D01*
X129542000Y-105307664D01*
X129542000Y-105766336D01*
X129347200Y-105766336D01*
X129206010Y-105792903D01*
X129076335Y-105876346D01*
X128989341Y-106003666D01*
X128958736Y-106154800D01*
X128958736Y-107654800D01*
X128985303Y-107795990D01*
X129068746Y-107925665D01*
X129196066Y-108012659D01*
X129347200Y-108043264D01*
X130647200Y-108043264D01*
X130788390Y-108016697D01*
X130918065Y-107933254D01*
X131005059Y-107805934D01*
X131035664Y-107654800D01*
X131035664Y-106154800D01*
X131009097Y-106013610D01*
X130925654Y-105883935D01*
X130798334Y-105796941D01*
X130647200Y-105766336D01*
X130554000Y-105766336D01*
X130554000Y-105307664D01*
X130698000Y-105307664D01*
X130839190Y-105281097D01*
X130968865Y-105197654D01*
X131055859Y-105070334D01*
X131086464Y-104919200D01*
X131086464Y-103419200D01*
X131059897Y-103278010D01*
X130976454Y-103148335D01*
X130849134Y-103061341D01*
X130698000Y-103030736D01*
X129543348Y-103030736D01*
X129383800Y-102999000D01*
X128497093Y-102999000D01*
X128484954Y-102980135D01*
X128357634Y-102893141D01*
X128244712Y-102870274D01*
X128347690Y-102850897D01*
X128477365Y-102767454D01*
X128495440Y-102741000D01*
X129282200Y-102741000D01*
X129475838Y-102702483D01*
X129617744Y-102607664D01*
X130698000Y-102607664D01*
X130839190Y-102581097D01*
X130968865Y-102497654D01*
X131055859Y-102370334D01*
X131086464Y-102219200D01*
X131086464Y-100719200D01*
X131059897Y-100578010D01*
X130976454Y-100448335D01*
X130849134Y-100361341D01*
X130698000Y-100330736D01*
X130059128Y-100330736D01*
X128450864Y-98722472D01*
X128450864Y-97749600D01*
X128424297Y-97608410D01*
X128340854Y-97478735D01*
X128213534Y-97391741D01*
X128062400Y-97361136D01*
X126562400Y-97361136D01*
X126421210Y-97387703D01*
X126291535Y-97471146D01*
X126204541Y-97598466D01*
X126173936Y-97749600D01*
X126173936Y-99049600D01*
X126200503Y-99190790D01*
X126283946Y-99320465D01*
X126411266Y-99407459D01*
X126562400Y-99438064D01*
X127735272Y-99438064D01*
X129010693Y-100713485D01*
X129009536Y-100719200D01*
X129009536Y-101729000D01*
X128497093Y-101729000D01*
X128484954Y-101710135D01*
X128357634Y-101623141D01*
X128244712Y-101600274D01*
X128347690Y-101580897D01*
X128477365Y-101497454D01*
X128564359Y-101370134D01*
X128594964Y-101219000D01*
X128594964Y-100711000D01*
X128568397Y-100569810D01*
X128484954Y-100440135D01*
X128357634Y-100353141D01*
X128206500Y-100322536D01*
X127063500Y-100322536D01*
X126922310Y-100349103D01*
X126792635Y-100432546D01*
X126705641Y-100559866D01*
X126675036Y-100711000D01*
X126675036Y-101219000D01*
X126701603Y-101360190D01*
X126785046Y-101489865D01*
X126912366Y-101576859D01*
X127025288Y-101599726D01*
X126922310Y-101619103D01*
X126792635Y-101702546D01*
X126774560Y-101729000D01*
X124136192Y-101729000D01*
X122430196Y-100023004D01*
X122266038Y-99913317D01*
X122072400Y-99874800D01*
X119126000Y-99874800D01*
X118932362Y-99913317D01*
X118768204Y-100023004D01*
X117701404Y-101089804D01*
X117591717Y-101253962D01*
X117553200Y-101447600D01*
X117553200Y-102917002D01*
X117591717Y-103110640D01*
X117701404Y-103274798D01*
X118289402Y-103862796D01*
X118434806Y-103959952D01*
X118372141Y-104051666D01*
X118341536Y-104202800D01*
X118341536Y-105702800D01*
X118368103Y-105843990D01*
X118451546Y-105973665D01*
X118578866Y-106060659D01*
X118730000Y-106091264D01*
X118874000Y-106091264D01*
X118874000Y-106978408D01*
X118735839Y-107116569D01*
X118635535Y-107116482D01*
X118385148Y-107219939D01*
X118193413Y-107411341D01*
X118089518Y-107661546D01*
X118089282Y-107932465D01*
X118192739Y-108182852D01*
X118384141Y-108374587D01*
X118634346Y-108478482D01*
X118905265Y-108478718D01*
X119155652Y-108375261D01*
X119308127Y-108223050D01*
X122436200Y-108223050D01*
X122436200Y-108726585D01*
X122494204Y-108866619D01*
X122601380Y-108973796D01*
X122741414Y-109031800D01*
X123344950Y-109031800D01*
X123440200Y-108936550D01*
X123440200Y-108127800D01*
X123694200Y-108127800D01*
X123694200Y-108936550D01*
X123789450Y-109031800D01*
X124392986Y-109031800D01*
X124533020Y-108973796D01*
X124640196Y-108866619D01*
X124698200Y-108726585D01*
X124698200Y-108223050D01*
X124602950Y-108127800D01*
X123694200Y-108127800D01*
X123440200Y-108127800D01*
X122531450Y-108127800D01*
X122436200Y-108223050D01*
X119308127Y-108223050D01*
X119347387Y-108183859D01*
X119451282Y-107933654D01*
X119451370Y-107832222D01*
X119737796Y-107545796D01*
X119748087Y-107530395D01*
X119847483Y-107381638D01*
X119868691Y-107275015D01*
X122436200Y-107275015D01*
X122436200Y-107778550D01*
X122531450Y-107873800D01*
X123440200Y-107873800D01*
X123440200Y-107065050D01*
X123694200Y-107065050D01*
X123694200Y-107873800D01*
X124602950Y-107873800D01*
X124698200Y-107778550D01*
X124698200Y-107275015D01*
X124640196Y-107134981D01*
X124533020Y-107027804D01*
X124392986Y-106969800D01*
X123789450Y-106969800D01*
X123694200Y-107065050D01*
X123440200Y-107065050D01*
X123344950Y-106969800D01*
X122741414Y-106969800D01*
X122601380Y-107027804D01*
X122494204Y-107134981D01*
X122436200Y-107275015D01*
X119868691Y-107275015D01*
X119886000Y-107188000D01*
X119886000Y-106091264D01*
X120030000Y-106091264D01*
X120171190Y-106064697D01*
X120300865Y-105981254D01*
X120387859Y-105853934D01*
X120418464Y-105702800D01*
X120418464Y-105272780D01*
X120497681Y-105351996D01*
X120637715Y-105410000D01*
X121062750Y-105410000D01*
X121158000Y-105314750D01*
X121158000Y-104902000D01*
X121412000Y-104902000D01*
X121412000Y-105314750D01*
X121507250Y-105410000D01*
X121932285Y-105410000D01*
X122072319Y-105351996D01*
X122179496Y-105244820D01*
X122237500Y-105104786D01*
X122237500Y-104997250D01*
X122142250Y-104902000D01*
X121412000Y-104902000D01*
X121158000Y-104902000D01*
X121138000Y-104902000D01*
X121138000Y-104648000D01*
X121158000Y-104648000D01*
X121158000Y-104628000D01*
X121412000Y-104628000D01*
X121412000Y-104648000D01*
X122142250Y-104648000D01*
X122237500Y-104552750D01*
X122237500Y-104445214D01*
X122179496Y-104305180D01*
X122072319Y-104198004D01*
X121932285Y-104140000D01*
X121896167Y-104140000D01*
X121997690Y-104120897D01*
X122127365Y-104037454D01*
X122214359Y-103910134D01*
X122244964Y-103759000D01*
X122244964Y-103251000D01*
X122218397Y-103109810D01*
X122134954Y-102980135D01*
X122007634Y-102893141D01*
X121894712Y-102870274D01*
X121997690Y-102850897D01*
X122127365Y-102767454D01*
X122214359Y-102640134D01*
X122244964Y-102489000D01*
X122244964Y-102323056D01*
X123098904Y-103176996D01*
X123263062Y-103286683D01*
X123456700Y-103325200D01*
X126028408Y-103325200D01*
X126138400Y-103435192D01*
X126138400Y-104605900D01*
X126159737Y-104713171D01*
X125909404Y-104963504D01*
X125799717Y-105127662D01*
X125761200Y-105321300D01*
X125761200Y-106962336D01*
X125517200Y-106962336D01*
X125376010Y-106988903D01*
X125246335Y-107072346D01*
X125159341Y-107199666D01*
X125128736Y-107350800D01*
X125128736Y-108650800D01*
X125155303Y-108791990D01*
X125238746Y-108921665D01*
X125366066Y-109008659D01*
X125517200Y-109039264D01*
X125581400Y-109039264D01*
X125581400Y-109465532D01*
X119453866Y-115593066D01*
X119453864Y-115593069D01*
X117879066Y-117167866D01*
X117730403Y-117390355D01*
X117686210Y-117612530D01*
X117678200Y-117652800D01*
X117678200Y-119603932D01*
X113507932Y-123774200D01*
X87299800Y-123774200D01*
X87037355Y-123826403D01*
X86814866Y-123975066D01*
X86319566Y-124470366D01*
X86170903Y-124692855D01*
X86165017Y-124722445D01*
X86118700Y-124955300D01*
X86118700Y-125176436D01*
X85940900Y-125176436D01*
X85799710Y-125203003D01*
X85670035Y-125286446D01*
X85583041Y-125413766D01*
X85552436Y-125564900D01*
X83781805Y-125564900D01*
X83791169Y-125472866D01*
X83892293Y-124481953D01*
X83892293Y-124481950D01*
X83992176Y-123506230D01*
X84089323Y-122560397D01*
X84182236Y-121659159D01*
X84269416Y-120817220D01*
X84349368Y-120049295D01*
X84349368Y-120049294D01*
X84420591Y-119370104D01*
X84481538Y-118794825D01*
X84530763Y-118337653D01*
X84566613Y-118014694D01*
X84587438Y-117841650D01*
X84590577Y-117818666D01*
X85389535Y-117818666D01*
X88561109Y-120295735D01*
X91837405Y-122854594D01*
X91892674Y-122882440D01*
X91945830Y-122914128D01*
X91959536Y-122916128D01*
X91971908Y-122922361D01*
X92033623Y-122926937D01*
X92094862Y-122935872D01*
X92518196Y-122914060D01*
X92520063Y-122913588D01*
X92521971Y-122913847D01*
X92608454Y-122908541D01*
X92609359Y-122908302D01*
X92610287Y-122908424D01*
X92866132Y-122891504D01*
X92866417Y-122891427D01*
X92866708Y-122891465D01*
X93272593Y-122864013D01*
X93272719Y-122863979D01*
X93272852Y-122863996D01*
X93817941Y-122826762D01*
X93818017Y-122826741D01*
X93818092Y-122826751D01*
X94491550Y-122780484D01*
X94491600Y-122780470D01*
X94491651Y-122780477D01*
X95282642Y-122725928D01*
X95282679Y-122725918D01*
X95282717Y-122725923D01*
X96180403Y-122663840D01*
X96180432Y-122663832D01*
X96180463Y-122663836D01*
X97174012Y-122594970D01*
X97174035Y-122594964D01*
X97174062Y-122594967D01*
X98252635Y-122520067D01*
X98252657Y-122520061D01*
X98252679Y-122520064D01*
X99405441Y-122439879D01*
X99405461Y-122439873D01*
X99405481Y-122439876D01*
X100621597Y-122355157D01*
X100621617Y-122355152D01*
X100621635Y-122355154D01*
X101890267Y-122266650D01*
X101890287Y-122266645D01*
X101890305Y-122266647D01*
X103200619Y-122175107D01*
X104223360Y-122103657D01*
X105492473Y-122015135D01*
X105492476Y-122015135D01*
X106707695Y-121930525D01*
X106707698Y-121930524D01*
X107858405Y-121850559D01*
X107858406Y-121850559D01*
X108934309Y-121775949D01*
X108934312Y-121775949D01*
X109924977Y-121707413D01*
X109924978Y-121707413D01*
X110819813Y-121645681D01*
X110819816Y-121645680D01*
X111608294Y-121591480D01*
X111608296Y-121591480D01*
X112280153Y-121545518D01*
X112280154Y-121545518D01*
X112825089Y-121508505D01*
X112825091Y-121508504D01*
X113231441Y-121481243D01*
X113231442Y-121481243D01*
X113489415Y-121464406D01*
X113588714Y-121458696D01*
X113591711Y-121457919D01*
X113594783Y-121458299D01*
X113611011Y-121457109D01*
X113657984Y-121444131D01*
X113706307Y-121437843D01*
X113729922Y-121424256D01*
X113756182Y-121417001D01*
X113794610Y-121387038D01*
X113836852Y-121362734D01*
X113931912Y-121279620D01*
X113964686Y-121237040D01*
X114002083Y-121198461D01*
X114010250Y-121177843D01*
X114023776Y-121160270D01*
X114037759Y-121108394D01*
X114057548Y-121058436D01*
X114088474Y-120889248D01*
X114087409Y-120820826D01*
X114088831Y-120752416D01*
X114054758Y-120560351D01*
X114053748Y-120557761D01*
X114053766Y-120554984D01*
X114026425Y-120487719D01*
X114000024Y-120420039D01*
X113998101Y-120418034D01*
X113997054Y-120415459D01*
X113897113Y-120263716D01*
X113875191Y-120241502D01*
X113858966Y-120214849D01*
X113715247Y-120058456D01*
X113627669Y-119870847D01*
X113569892Y-119560028D01*
X113551850Y-119080309D01*
X113557545Y-118798384D01*
X113582082Y-118425807D01*
X113631335Y-118053215D01*
X113713270Y-117633996D01*
X113836184Y-117126172D01*
X114008106Y-116488858D01*
X114008138Y-116488383D01*
X114008348Y-116487956D01*
X114096247Y-116158953D01*
X114096555Y-116154203D01*
X114098553Y-116149882D01*
X114174712Y-115834328D01*
X114175037Y-115826291D01*
X114178111Y-115818859D01*
X114222113Y-115596993D01*
X114222096Y-115567722D01*
X114229096Y-115539297D01*
X114233325Y-115445558D01*
X114222952Y-115377508D01*
X114214913Y-115309153D01*
X114211640Y-115303298D01*
X114210629Y-115296668D01*
X114175008Y-115237774D01*
X114141419Y-115177692D01*
X114136155Y-115173536D01*
X114132684Y-115167797D01*
X114095471Y-115140428D01*
X114091451Y-115134939D01*
X114073308Y-115123915D01*
X114023212Y-115084362D01*
X114006004Y-115075579D01*
X113983091Y-115069098D01*
X113962738Y-115056732D01*
X113815953Y-115003210D01*
X113810624Y-115002387D01*
X113805944Y-114999716D01*
X113530617Y-114907809D01*
X113528629Y-114907557D01*
X113526878Y-114906582D01*
X113147091Y-114784094D01*
X113145878Y-114783953D01*
X113144805Y-114783364D01*
X112684636Y-114638103D01*
X112683669Y-114637997D01*
X112682814Y-114637533D01*
X112166345Y-114477305D01*
X112166062Y-114477275D01*
X112165810Y-114477139D01*
X111959592Y-114413491D01*
X111463623Y-114258710D01*
X111034711Y-114122479D01*
X110696964Y-114012616D01*
X110694122Y-114011650D01*
X110779274Y-113783750D01*
X110902208Y-113505463D01*
X111029503Y-113259544D01*
X111142784Y-113085768D01*
X111394994Y-112767326D01*
X111400606Y-112756372D01*
X111409463Y-112747827D01*
X111434769Y-112689697D01*
X111463673Y-112633286D01*
X111464666Y-112621022D01*
X111469580Y-112609735D01*
X111470714Y-112546347D01*
X111475830Y-112483169D01*
X111472053Y-112471454D01*
X111472273Y-112459149D01*
X111449064Y-112400155D01*
X111429613Y-112339826D01*
X111421642Y-112330450D01*
X111417136Y-112318996D01*
X111373119Y-112273375D01*
X111332060Y-112225080D01*
X111321106Y-112219468D01*
X111312561Y-112210611D01*
X111254436Y-112185307D01*
X111198020Y-112156401D01*
X111185754Y-112155408D01*
X111174469Y-112150495D01*
X110979100Y-112107987D01*
X110971140Y-112107845D01*
X110963718Y-112104966D01*
X110882587Y-112090736D01*
X110877257Y-112090857D01*
X110872233Y-112089064D01*
X110631316Y-112053526D01*
X110629272Y-112053628D01*
X110627340Y-112052961D01*
X110273170Y-112004476D01*
X110272051Y-112004544D01*
X110270990Y-112004184D01*
X109836555Y-111947230D01*
X109835669Y-111947289D01*
X109834829Y-111947008D01*
X109353717Y-111886140D01*
X109208774Y-111867532D01*
X108719424Y-111799624D01*
X108109580Y-111709536D01*
X107413061Y-111602504D01*
X106665189Y-111483998D01*
X105900207Y-111359334D01*
X105151463Y-111233681D01*
X102436396Y-110770585D01*
X101486025Y-109959357D01*
X101372183Y-109861321D01*
X100997344Y-109525016D01*
X100696941Y-109234595D01*
X100499538Y-109020734D01*
X100436478Y-108930544D01*
X100406870Y-108817282D01*
X100402580Y-108629474D01*
X100437666Y-108305448D01*
X100453595Y-108226587D01*
X100518118Y-107962587D01*
X100625509Y-107549927D01*
X100771520Y-107004737D01*
X100952741Y-106339440D01*
X101165636Y-105566838D01*
X101406860Y-104699007D01*
X101673414Y-103746772D01*
X101673414Y-103746769D01*
X101961720Y-102723029D01*
X102268871Y-101638292D01*
X102591331Y-100505307D01*
X102925938Y-99335484D01*
X103130365Y-98621850D01*
X123481400Y-98621850D01*
X123481400Y-99125385D01*
X123539404Y-99265419D01*
X123646580Y-99372596D01*
X123786614Y-99430600D01*
X124390150Y-99430600D01*
X124485400Y-99335350D01*
X124485400Y-98526600D01*
X124739400Y-98526600D01*
X124739400Y-99335350D01*
X124834650Y-99430600D01*
X125438186Y-99430600D01*
X125578220Y-99372596D01*
X125685396Y-99265419D01*
X125743400Y-99125385D01*
X125743400Y-98621850D01*
X125648150Y-98526600D01*
X124739400Y-98526600D01*
X124485400Y-98526600D01*
X123576650Y-98526600D01*
X123481400Y-98621850D01*
X103130365Y-98621850D01*
X103168396Y-98489090D01*
X103168406Y-98488969D01*
X103168462Y-98488860D01*
X103401393Y-97673815D01*
X123481400Y-97673815D01*
X123481400Y-98177350D01*
X123576650Y-98272600D01*
X124485400Y-98272600D01*
X124485400Y-97463850D01*
X124739400Y-97463850D01*
X124739400Y-98272600D01*
X125648150Y-98272600D01*
X125743400Y-98177350D01*
X125743400Y-97673815D01*
X125685396Y-97533781D01*
X125578220Y-97426604D01*
X125438186Y-97368600D01*
X124834650Y-97368600D01*
X124739400Y-97463850D01*
X124485400Y-97463850D01*
X124390150Y-97368600D01*
X123786614Y-97368600D01*
X123646580Y-97426604D01*
X123539404Y-97533781D01*
X123481400Y-97673815D01*
X103401393Y-97673815D01*
X103496469Y-97341138D01*
X103496481Y-97340994D01*
X103496546Y-97340867D01*
X103811054Y-96237333D01*
X103811066Y-96237185D01*
X103811135Y-96237050D01*
X104108808Y-95189558D01*
X104108821Y-95189394D01*
X104108895Y-95189250D01*
X104386395Y-94209653D01*
X104386410Y-94209467D01*
X104386494Y-94209302D01*
X104640485Y-93309452D01*
X104640502Y-93309231D01*
X104640604Y-93309031D01*
X104867750Y-92500782D01*
X104867772Y-92500495D01*
X104867902Y-92500239D01*
X105064865Y-91795445D01*
X105064896Y-91795044D01*
X105065076Y-91794686D01*
X105228519Y-91205197D01*
X105228566Y-91204569D01*
X105228849Y-91204002D01*
X105355437Y-90741673D01*
X105355523Y-90740469D01*
X105356056Y-90739385D01*
X105442451Y-90416068D01*
X105442673Y-90412641D01*
X105444135Y-90409536D01*
X105487002Y-90237086D01*
X105487030Y-90236485D01*
X105487285Y-90235940D01*
X105554582Y-89961631D01*
X105686840Y-89614495D01*
X105834738Y-89413141D01*
X106040812Y-89273049D01*
X106387156Y-89151721D01*
X106523994Y-89119264D01*
X106857639Y-89047493D01*
X107328460Y-88950975D01*
X107919718Y-88832920D01*
X108616700Y-88696086D01*
X109402238Y-88543706D01*
X110262615Y-88378331D01*
X111182115Y-88202906D01*
X111182116Y-88202906D01*
X112146091Y-88020165D01*
X113139623Y-87832896D01*
X113139626Y-87832895D01*
X114146549Y-87644122D01*
X115153116Y-87456412D01*
X116143348Y-87272750D01*
X116143350Y-87272750D01*
X117103094Y-87095782D01*
X118016431Y-86928483D01*
X118868531Y-86773622D01*
X119644524Y-86633979D01*
X120328991Y-86512430D01*
X120907014Y-86411760D01*
X121362138Y-86335014D01*
X121676400Y-86285417D01*
X121830048Y-86266015D01*
X122414947Y-86227049D01*
X133091257Y-90103371D01*
X133091257Y-90103371D01*
G37*
X133091257Y-90103371D02*
X133091259Y-90103372D01*
X133710053Y-90328056D01*
X134990817Y-90793194D01*
X134990820Y-90793196D01*
X136225603Y-91241759D01*
X137405005Y-91670326D01*
X137405006Y-91670326D01*
X138519523Y-92075438D01*
X138519527Y-92075439D01*
X139559756Y-92453676D01*
X139559761Y-92453677D01*
X140516214Y-92801584D01*
X140516217Y-92801586D01*
X141379629Y-93115795D01*
X141379632Y-93115795D01*
X142140303Y-93392775D01*
X142140304Y-93392775D01*
X142788990Y-93629161D01*
X142788992Y-93629162D01*
X143316367Y-93821562D01*
X143316369Y-93821562D01*
X143712626Y-93966407D01*
X143967362Y-94059908D01*
X144035434Y-94085298D01*
X144057632Y-94099321D01*
X144206227Y-94239739D01*
X144416485Y-94478640D01*
X144647985Y-94771068D01*
X144869081Y-95076170D01*
X145049881Y-95352965D01*
X145153640Y-95543215D01*
X145159128Y-95562371D01*
X145101551Y-95795378D01*
X145009764Y-96143907D01*
X144893143Y-96571807D01*
X144759824Y-97048232D01*
X144352757Y-98484906D01*
X144347767Y-98547347D01*
X144338614Y-98609306D01*
X144341800Y-98621994D01*
X144340758Y-98635037D01*
X144360042Y-98694632D01*
X144375297Y-98755380D01*
X144738984Y-99523130D01*
X145039767Y-100249525D01*
X145326719Y-101266377D01*
X145469833Y-102291086D01*
X145469466Y-103306058D01*
X145325494Y-104290421D01*
X145033800Y-105238222D01*
X144989158Y-105348482D01*
X144549268Y-106278345D01*
X144062410Y-107047338D01*
X143516165Y-107679529D01*
X142897533Y-108194269D01*
X142174213Y-108618319D01*
X141927780Y-108745111D01*
X141909523Y-108759621D01*
X141888030Y-108768673D01*
X141696894Y-108898030D01*
X141655881Y-108939532D01*
X141611324Y-108977198D01*
X141502440Y-109113886D01*
X141474390Y-109168253D01*
X141442371Y-109220368D01*
X141375035Y-109402239D01*
X141372400Y-109418755D01*
X141364894Y-109433705D01*
X141335124Y-109541726D01*
X141335114Y-109541861D01*
X141335055Y-109541979D01*
X141261898Y-109808138D01*
X141261895Y-109808184D01*
X141261873Y-109808227D01*
X141152904Y-110205045D01*
X141152902Y-110205067D01*
X141152892Y-110205088D01*
X141013039Y-110714606D01*
X141013038Y-110714622D01*
X141013032Y-110714634D01*
X140847223Y-111318892D01*
X140847222Y-111318904D01*
X140847217Y-111318914D01*
X140660381Y-111999953D01*
X140660380Y-111999962D01*
X140660376Y-111999971D01*
X140457440Y-112739834D01*
X140457439Y-112739842D01*
X140457435Y-112739851D01*
X140243342Y-113520537D01*
X140227299Y-113579011D01*
X139968296Y-114513285D01*
X139732933Y-115343784D01*
X139524281Y-116060373D01*
X139345622Y-116652250D01*
X139200728Y-117107230D01*
X139095816Y-117406947D01*
X139043928Y-117524501D01*
X139027397Y-117548303D01*
X138784496Y-117770370D01*
X138477202Y-117917103D01*
X138129132Y-117973769D01*
X138060851Y-117968591D01*
X137826847Y-117933346D01*
X137465186Y-117866644D01*
X136977047Y-117767918D01*
X136359562Y-117636353D01*
X135608434Y-117470956D01*
X134718584Y-117270590D01*
X133684883Y-117034115D01*
X132502673Y-116760506D01*
X131166434Y-116448543D01*
X129670645Y-116097002D01*
X129670644Y-116097002D01*
X129401948Y-116033792D01*
X129401499Y-116033776D01*
X129401087Y-116033590D01*
X128378574Y-115795521D01*
X128377615Y-115795490D01*
X128376738Y-115795098D01*
X127515223Y-115598944D01*
X127513812Y-115598905D01*
X127512520Y-115598339D01*
X126809660Y-115443606D01*
X126807418Y-115443560D01*
X126805355Y-115442684D01*
X126258802Y-115328881D01*
X126254769Y-115328845D01*
X126251026Y-115327345D01*
X125858432Y-115253977D01*
X125849240Y-115254084D01*
X125840554Y-115251068D01*
X125599576Y-115217645D01*
X125560268Y-115219949D01*
X125521229Y-115214816D01*
X125429519Y-115220844D01*
X125383276Y-115233244D01*
X125335740Y-115238846D01*
X125311205Y-115252570D01*
X125284048Y-115259852D01*
X125246074Y-115289001D01*
X125204297Y-115312370D01*
X125186881Y-115334440D01*
X125164579Y-115351559D01*
X125140651Y-115393021D01*
X125110996Y-115430600D01*
X125091664Y-115468493D01*
X125086066Y-115488303D01*
X125075087Y-115505719D01*
X125006166Y-115685478D01*
X125004861Y-115693094D01*
X125001002Y-115699785D01*
X124905966Y-115980244D01*
X124905400Y-115984558D01*
X124903310Y-115988376D01*
X124796693Y-116327564D01*
X124796601Y-116328412D01*
X124796194Y-116329163D01*
X124723946Y-116562546D01*
X124664251Y-116734049D01*
X124502090Y-116701930D01*
X124496446Y-116701935D01*
X124491168Y-116699929D01*
X124118459Y-116637189D01*
X124114987Y-116637292D01*
X124111720Y-116636116D01*
X123697995Y-116573971D01*
X123695224Y-116574102D01*
X123692602Y-116573200D01*
X123272541Y-116516153D01*
X123269705Y-116516327D01*
X123267006Y-116515442D01*
X122875288Y-116468001D01*
X122871477Y-116468291D01*
X122867824Y-116467171D01*
X122539130Y-116433838D01*
X122531825Y-116434536D01*
X122524731Y-116432649D01*
X122293743Y-116417930D01*
X122265123Y-116421751D01*
X122236431Y-116418542D01*
X122137828Y-116426942D01*
X122086940Y-116441649D01*
X122034678Y-116450269D01*
X122015187Y-116462385D01*
X121993139Y-116468757D01*
X121951753Y-116501818D01*
X121906768Y-116529782D01*
X121893397Y-116548435D01*
X121875466Y-116562759D01*
X121849883Y-116609140D01*
X121819023Y-116652191D01*
X121786005Y-116725032D01*
X121782332Y-116740776D01*
X121774032Y-116754649D01*
X121696507Y-116971879D01*
X121695878Y-116976140D01*
X121693750Y-116979882D01*
X121581425Y-117317860D01*
X121581164Y-117319944D01*
X121580144Y-117321783D01*
X121440327Y-117758008D01*
X121440165Y-117759427D01*
X121439480Y-117760683D01*
X121279479Y-118272659D01*
X121279352Y-118273848D01*
X121278786Y-118274901D01*
X121105908Y-118840127D01*
X121105851Y-118840694D01*
X121105583Y-118841196D01*
X120478797Y-120911889D01*
X120476345Y-120936941D01*
X120467456Y-120960493D01*
X120469071Y-121011249D01*
X120464125Y-121061783D01*
X120471446Y-121085866D01*
X120472247Y-121111026D01*
X120493162Y-121157299D01*
X120507931Y-121205881D01*
X120523910Y-121225328D01*
X120534279Y-121248268D01*
X121398355Y-122456410D01*
X122192325Y-123566530D01*
X122231165Y-126051477D01*
X122239913Y-126686980D01*
X122245070Y-127422484D01*
X122241072Y-128019756D01*
X122226660Y-128497656D01*
X122200948Y-128873927D01*
X122163665Y-129167035D01*
X122114944Y-129397913D01*
X122053568Y-129592148D01*
X121974864Y-129778121D01*
X121925890Y-129875476D01*
X121835735Y-130002915D01*
X121759638Y-130054143D01*
X121580366Y-130099665D01*
X121217465Y-130130254D01*
X121142007Y-130133778D01*
X120901863Y-130137447D01*
X120819487Y-130124492D01*
X120776425Y-130100854D01*
X120672529Y-130007203D01*
X120497712Y-129794318D01*
X120262839Y-129363362D01*
X120040286Y-128771674D01*
X119841064Y-128032926D01*
X119672067Y-127157291D01*
X119645226Y-126994630D01*
X119643165Y-126989154D01*
X119643183Y-126983307D01*
X119591495Y-126719316D01*
X119580596Y-126692778D01*
X119576460Y-126664389D01*
X119526111Y-126522513D01*
X119510391Y-126496130D01*
X119501231Y-126466817D01*
X119472204Y-126432043D01*
X119449018Y-126393131D01*
X119424398Y-126374772D01*
X119404717Y-126351195D01*
X119341188Y-126299939D01*
X119277912Y-126266793D01*
X119215330Y-126232360D01*
X119211335Y-126231918D01*
X119207774Y-126230052D01*
X119136634Y-126223644D01*
X119065635Y-126215781D01*
X118974404Y-126223651D01*
X118953447Y-126229732D01*
X118931629Y-126229769D01*
X118849725Y-126246206D01*
X118608305Y-126292874D01*
X118216249Y-126367969D01*
X117683270Y-126469644D01*
X117017849Y-126596291D01*
X117017848Y-126596291D01*
X116229427Y-126746119D01*
X115326460Y-126917524D01*
X115326459Y-126917524D01*
X114318075Y-127108777D01*
X113212867Y-127318244D01*
X113212863Y-127318245D01*
X112019863Y-127544218D01*
X110747765Y-127785044D01*
X109405433Y-128039044D01*
X108001675Y-128304547D01*
X108001672Y-128304548D01*
X106545406Y-128579863D01*
X105045328Y-128863340D01*
X105045318Y-128863344D01*
X103676988Y-129121994D01*
X103676955Y-129122007D01*
X102220464Y-129397598D01*
X102220428Y-129397612D01*
X100817201Y-129663413D01*
X100817163Y-129663428D01*
X99475903Y-129917781D01*
X99475862Y-129917797D01*
X98205269Y-130159041D01*
X98205223Y-130159059D01*
X97014002Y-130385534D01*
X97013951Y-130385554D01*
X95910800Y-130595599D01*
X95910739Y-130595623D01*
X94904357Y-130787578D01*
X94904284Y-130787608D01*
X94904207Y-130787607D01*
X94003371Y-130959812D01*
X94003278Y-130959850D01*
X94003177Y-130959849D01*
X93216526Y-131110644D01*
X93216396Y-131110697D01*
X93216257Y-131110696D01*
X92552494Y-131238422D01*
X92552300Y-131238501D01*
X92552090Y-131238500D01*
X92019917Y-131341494D01*
X92019576Y-131341633D01*
X92019208Y-131341632D01*
X91627329Y-131418236D01*
X91626554Y-131418554D01*
X91625716Y-131418555D01*
X91382834Y-131467108D01*
X91379139Y-131468643D01*
X91375139Y-131468728D01*
X91289955Y-131487569D01*
X91285049Y-131489725D01*
X91280044Y-131489963D01*
X91236676Y-131510392D01*
X91190162Y-131524680D01*
X91172751Y-131539072D01*
X91152071Y-131548159D01*
X91148427Y-131551961D01*
X91143794Y-131554144D01*
X91111366Y-131589811D01*
X91074075Y-131620635D01*
X91074009Y-131620715D01*
X91063444Y-131640649D01*
X91047869Y-131656903D01*
X91045997Y-131661709D01*
X91042477Y-131665581D01*
X91026119Y-131711074D01*
X91003480Y-131753790D01*
X91001334Y-131776396D01*
X90993214Y-131797245D01*
X90993322Y-131802288D01*
X90991517Y-131807307D01*
X90978455Y-131894427D01*
X90978732Y-131900251D01*
X90976922Y-131905797D01*
X90949201Y-132137451D01*
X90949299Y-132138718D01*
X90948914Y-132139924D01*
X90909026Y-132492515D01*
X90909074Y-132493088D01*
X90908900Y-132493639D01*
X90859335Y-132943567D01*
X90859365Y-132943914D01*
X90859261Y-132944246D01*
X90802510Y-133467911D01*
X90802532Y-133468158D01*
X90802457Y-133468398D01*
X90741010Y-134042202D01*
X90741028Y-134042408D01*
X90740967Y-134042605D01*
X90677315Y-134642948D01*
X90677333Y-134643142D01*
X90677276Y-134643324D01*
X90613910Y-135246608D01*
X90613929Y-135246810D01*
X90613869Y-135247003D01*
X90553278Y-135829628D01*
X90553300Y-135829866D01*
X90553229Y-135830097D01*
X90497905Y-136368465D01*
X90497935Y-136368787D01*
X90497840Y-136369099D01*
X90450274Y-136839608D01*
X90450323Y-136840121D01*
X90450174Y-136840613D01*
X90412855Y-137219668D01*
X90412957Y-137220704D01*
X90412660Y-137221702D01*
X90407398Y-137278218D01*
X90378505Y-137278910D01*
X90063511Y-137280618D01*
X89478307Y-137279463D01*
X86211612Y-135203096D01*
X86211610Y-135203094D01*
X85745441Y-134906567D01*
X85036294Y-134454043D01*
X84453050Y-134079122D01*
X83984015Y-133773617D01*
X83617989Y-133529699D01*
X83344756Y-133340320D01*
X83155184Y-133199633D01*
X83042547Y-133105193D01*
X83031645Y-133093724D01*
X83041266Y-132980686D01*
X83072291Y-132648321D01*
X83117209Y-132182349D01*
X83174336Y-131599475D01*
X83242216Y-130913997D01*
X83319320Y-130140931D01*
X83319321Y-130140928D01*
X83404211Y-129294394D01*
X83404211Y-129294393D01*
X83404893Y-129287618D01*
X85601507Y-129287618D01*
X85728195Y-129593501D01*
X86049301Y-129957810D01*
X86485380Y-130171505D01*
X86677500Y-130111365D01*
X86677500Y-129095500D01*
X86931500Y-129095500D01*
X86931500Y-130111365D01*
X87123620Y-130171505D01*
X87559699Y-129957810D01*
X87880805Y-129593501D01*
X88007493Y-129287618D01*
X87946812Y-129095500D01*
X86931500Y-129095500D01*
X86677500Y-129095500D01*
X85662188Y-129095500D01*
X85601507Y-129287618D01*
X83404893Y-129287618D01*
X83437034Y-128968500D01*
X88075517Y-128968500D01*
X88170257Y-129444788D01*
X88440052Y-129848565D01*
X88843829Y-130118360D01*
X89320117Y-130213100D01*
X89368883Y-130213100D01*
X89845171Y-130118360D01*
X90248948Y-129848565D01*
X90518743Y-129444788D01*
X90613483Y-128968500D01*
X90518743Y-128492212D01*
X90248948Y-128088435D01*
X89845171Y-127818640D01*
X89368883Y-127723900D01*
X89320117Y-127723900D01*
X88843829Y-127818640D01*
X88440052Y-128088435D01*
X88170257Y-128492212D01*
X88075517Y-128968500D01*
X83437034Y-128968500D01*
X83469175Y-128649382D01*
X85601507Y-128649382D01*
X85662188Y-128841500D01*
X86677500Y-128841500D01*
X86677500Y-127825635D01*
X86931500Y-127825635D01*
X86931500Y-128841500D01*
X87946812Y-128841500D01*
X88007493Y-128649382D01*
X87880805Y-128343499D01*
X87559699Y-127979190D01*
X87123620Y-127765495D01*
X86931500Y-127825635D01*
X86677500Y-127825635D01*
X86485380Y-127765495D01*
X86049301Y-127979190D01*
X85728195Y-128343499D01*
X85601507Y-128649382D01*
X83469175Y-128649382D01*
X83495326Y-128389738D01*
X83591189Y-127441461D01*
X83690302Y-126464270D01*
X83781805Y-125564900D01*
X85552436Y-125564900D01*
X85552436Y-127292100D01*
X85579003Y-127433290D01*
X85662446Y-127562965D01*
X85789766Y-127649959D01*
X85940900Y-127680564D01*
X87668100Y-127680564D01*
X87809290Y-127653997D01*
X87938965Y-127570554D01*
X88025959Y-127443234D01*
X88056564Y-127292100D01*
X88056564Y-126428500D01*
X88075517Y-126428500D01*
X88170257Y-126904788D01*
X88440052Y-127308565D01*
X88843829Y-127578360D01*
X89320117Y-127673100D01*
X89368883Y-127673100D01*
X89845171Y-127578360D01*
X90248948Y-127308565D01*
X90518743Y-126904788D01*
X90613483Y-126428500D01*
X90518743Y-125952212D01*
X90248948Y-125548435D01*
X89845171Y-125278640D01*
X89368883Y-125183900D01*
X89320117Y-125183900D01*
X88843829Y-125278640D01*
X88440052Y-125548435D01*
X88170257Y-125952212D01*
X88075517Y-126428500D01*
X88056564Y-126428500D01*
X88056564Y-125564900D01*
X88029997Y-125423710D01*
X87946554Y-125294035D01*
X87819234Y-125207041D01*
X87668100Y-125176436D01*
X87553232Y-125176436D01*
X87583868Y-125145800D01*
X113792000Y-125145800D01*
X114054445Y-125093597D01*
X114276934Y-124944934D01*
X118848934Y-120372934D01*
X118891296Y-120309535D01*
X118997597Y-120150444D01*
X119049800Y-119888000D01*
X119049800Y-117936868D01*
X120423731Y-116562936D01*
X120423734Y-116562934D01*
X126752134Y-110234534D01*
X126834811Y-110110800D01*
X128958736Y-110110800D01*
X128958736Y-110354800D01*
X128985303Y-110495990D01*
X129068746Y-110625665D01*
X129196066Y-110712659D01*
X129347200Y-110743264D01*
X130647200Y-110743264D01*
X130788390Y-110716697D01*
X130918065Y-110633254D01*
X131005059Y-110505934D01*
X131035664Y-110354800D01*
X131035664Y-108854800D01*
X131009097Y-108713610D01*
X130925654Y-108583935D01*
X130798334Y-108496941D01*
X130647200Y-108466336D01*
X129347200Y-108466336D01*
X129206010Y-108492903D01*
X129076335Y-108576346D01*
X128989341Y-108703666D01*
X128958736Y-108854800D01*
X128958736Y-109098800D01*
X126953000Y-109098800D01*
X126953000Y-109039264D01*
X127017200Y-109039264D01*
X127158390Y-109012697D01*
X127288065Y-108929254D01*
X127375059Y-108801934D01*
X127405664Y-108650800D01*
X127405664Y-107350800D01*
X127379097Y-107209610D01*
X127295654Y-107079935D01*
X127168334Y-106992941D01*
X127017200Y-106962336D01*
X126773200Y-106962336D01*
X126773200Y-105530892D01*
X126916413Y-105387679D01*
X127063500Y-105417464D01*
X128206500Y-105417464D01*
X128347690Y-105390897D01*
X128477365Y-105307454D01*
X128564359Y-105180134D01*
X128594964Y-105029000D01*
X128594964Y-104521000D01*
X128568397Y-104379810D01*
X128484954Y-104250135D01*
X128357634Y-104163141D01*
X128244712Y-104140274D01*
X128347690Y-104120897D01*
X128477365Y-104037454D01*
X128495440Y-104011000D01*
X129009536Y-104011000D01*
X129009536Y-104919200D01*
X129036103Y-105060390D01*
X129119546Y-105190065D01*
X129246866Y-105277059D01*
X129398000Y-105307664D01*
X129542000Y-105307664D01*
X129542000Y-105766336D01*
X129347200Y-105766336D01*
X129206010Y-105792903D01*
X129076335Y-105876346D01*
X128989341Y-106003666D01*
X128958736Y-106154800D01*
X128958736Y-107654800D01*
X128985303Y-107795990D01*
X129068746Y-107925665D01*
X129196066Y-108012659D01*
X129347200Y-108043264D01*
X130647200Y-108043264D01*
X130788390Y-108016697D01*
X130918065Y-107933254D01*
X131005059Y-107805934D01*
X131035664Y-107654800D01*
X131035664Y-106154800D01*
X131009097Y-106013610D01*
X130925654Y-105883935D01*
X130798334Y-105796941D01*
X130647200Y-105766336D01*
X130554000Y-105766336D01*
X130554000Y-105307664D01*
X130698000Y-105307664D01*
X130839190Y-105281097D01*
X130968865Y-105197654D01*
X131055859Y-105070334D01*
X131086464Y-104919200D01*
X131086464Y-103419200D01*
X131059897Y-103278010D01*
X130976454Y-103148335D01*
X130849134Y-103061341D01*
X130698000Y-103030736D01*
X129543348Y-103030736D01*
X129383800Y-102999000D01*
X128497093Y-102999000D01*
X128484954Y-102980135D01*
X128357634Y-102893141D01*
X128244712Y-102870274D01*
X128347690Y-102850897D01*
X128477365Y-102767454D01*
X128495440Y-102741000D01*
X129282200Y-102741000D01*
X129475838Y-102702483D01*
X129617744Y-102607664D01*
X130698000Y-102607664D01*
X130839190Y-102581097D01*
X130968865Y-102497654D01*
X131055859Y-102370334D01*
X131086464Y-102219200D01*
X131086464Y-100719200D01*
X131059897Y-100578010D01*
X130976454Y-100448335D01*
X130849134Y-100361341D01*
X130698000Y-100330736D01*
X130059128Y-100330736D01*
X128450864Y-98722472D01*
X128450864Y-97749600D01*
X128424297Y-97608410D01*
X128340854Y-97478735D01*
X128213534Y-97391741D01*
X128062400Y-97361136D01*
X126562400Y-97361136D01*
X126421210Y-97387703D01*
X126291535Y-97471146D01*
X126204541Y-97598466D01*
X126173936Y-97749600D01*
X126173936Y-99049600D01*
X126200503Y-99190790D01*
X126283946Y-99320465D01*
X126411266Y-99407459D01*
X126562400Y-99438064D01*
X127735272Y-99438064D01*
X129010693Y-100713485D01*
X129009536Y-100719200D01*
X129009536Y-101729000D01*
X128497093Y-101729000D01*
X128484954Y-101710135D01*
X128357634Y-101623141D01*
X128244712Y-101600274D01*
X128347690Y-101580897D01*
X128477365Y-101497454D01*
X128564359Y-101370134D01*
X128594964Y-101219000D01*
X128594964Y-100711000D01*
X128568397Y-100569810D01*
X128484954Y-100440135D01*
X128357634Y-100353141D01*
X128206500Y-100322536D01*
X127063500Y-100322536D01*
X126922310Y-100349103D01*
X126792635Y-100432546D01*
X126705641Y-100559866D01*
X126675036Y-100711000D01*
X126675036Y-101219000D01*
X126701603Y-101360190D01*
X126785046Y-101489865D01*
X126912366Y-101576859D01*
X127025288Y-101599726D01*
X126922310Y-101619103D01*
X126792635Y-101702546D01*
X126774560Y-101729000D01*
X124136192Y-101729000D01*
X122430196Y-100023004D01*
X122266038Y-99913317D01*
X122072400Y-99874800D01*
X119126000Y-99874800D01*
X118932362Y-99913317D01*
X118768204Y-100023004D01*
X117701404Y-101089804D01*
X117591717Y-101253962D01*
X117553200Y-101447600D01*
X117553200Y-102917002D01*
X117591717Y-103110640D01*
X117701404Y-103274798D01*
X118289402Y-103862796D01*
X118434806Y-103959952D01*
X118372141Y-104051666D01*
X118341536Y-104202800D01*
X118341536Y-105702800D01*
X118368103Y-105843990D01*
X118451546Y-105973665D01*
X118578866Y-106060659D01*
X118730000Y-106091264D01*
X118874000Y-106091264D01*
X118874000Y-106978408D01*
X118735839Y-107116569D01*
X118635535Y-107116482D01*
X118385148Y-107219939D01*
X118193413Y-107411341D01*
X118089518Y-107661546D01*
X118089282Y-107932465D01*
X118192739Y-108182852D01*
X118384141Y-108374587D01*
X118634346Y-108478482D01*
X118905265Y-108478718D01*
X119155652Y-108375261D01*
X119308127Y-108223050D01*
X122436200Y-108223050D01*
X122436200Y-108726585D01*
X122494204Y-108866619D01*
X122601380Y-108973796D01*
X122741414Y-109031800D01*
X123344950Y-109031800D01*
X123440200Y-108936550D01*
X123440200Y-108127800D01*
X123694200Y-108127800D01*
X123694200Y-108936550D01*
X123789450Y-109031800D01*
X124392986Y-109031800D01*
X124533020Y-108973796D01*
X124640196Y-108866619D01*
X124698200Y-108726585D01*
X124698200Y-108223050D01*
X124602950Y-108127800D01*
X123694200Y-108127800D01*
X123440200Y-108127800D01*
X122531450Y-108127800D01*
X122436200Y-108223050D01*
X119308127Y-108223050D01*
X119347387Y-108183859D01*
X119451282Y-107933654D01*
X119451370Y-107832222D01*
X119737796Y-107545796D01*
X119748087Y-107530395D01*
X119847483Y-107381638D01*
X119868691Y-107275015D01*
X122436200Y-107275015D01*
X122436200Y-107778550D01*
X122531450Y-107873800D01*
X123440200Y-107873800D01*
X123440200Y-107065050D01*
X123694200Y-107065050D01*
X123694200Y-107873800D01*
X124602950Y-107873800D01*
X124698200Y-107778550D01*
X124698200Y-107275015D01*
X124640196Y-107134981D01*
X124533020Y-107027804D01*
X124392986Y-106969800D01*
X123789450Y-106969800D01*
X123694200Y-107065050D01*
X123440200Y-107065050D01*
X123344950Y-106969800D01*
X122741414Y-106969800D01*
X122601380Y-107027804D01*
X122494204Y-107134981D01*
X122436200Y-107275015D01*
X119868691Y-107275015D01*
X119886000Y-107188000D01*
X119886000Y-106091264D01*
X120030000Y-106091264D01*
X120171190Y-106064697D01*
X120300865Y-105981254D01*
X120387859Y-105853934D01*
X120418464Y-105702800D01*
X120418464Y-105272780D01*
X120497681Y-105351996D01*
X120637715Y-105410000D01*
X121062750Y-105410000D01*
X121158000Y-105314750D01*
X121158000Y-104902000D01*
X121412000Y-104902000D01*
X121412000Y-105314750D01*
X121507250Y-105410000D01*
X121932285Y-105410000D01*
X122072319Y-105351996D01*
X122179496Y-105244820D01*
X122237500Y-105104786D01*
X122237500Y-104997250D01*
X122142250Y-104902000D01*
X121412000Y-104902000D01*
X121158000Y-104902000D01*
X121138000Y-104902000D01*
X121138000Y-104648000D01*
X121158000Y-104648000D01*
X121158000Y-104628000D01*
X121412000Y-104628000D01*
X121412000Y-104648000D01*
X122142250Y-104648000D01*
X122237500Y-104552750D01*
X122237500Y-104445214D01*
X122179496Y-104305180D01*
X122072319Y-104198004D01*
X121932285Y-104140000D01*
X121896167Y-104140000D01*
X121997690Y-104120897D01*
X122127365Y-104037454D01*
X122214359Y-103910134D01*
X122244964Y-103759000D01*
X122244964Y-103251000D01*
X122218397Y-103109810D01*
X122134954Y-102980135D01*
X122007634Y-102893141D01*
X121894712Y-102870274D01*
X121997690Y-102850897D01*
X122127365Y-102767454D01*
X122214359Y-102640134D01*
X122244964Y-102489000D01*
X122244964Y-102323056D01*
X123098904Y-103176996D01*
X123263062Y-103286683D01*
X123456700Y-103325200D01*
X126028408Y-103325200D01*
X126138400Y-103435192D01*
X126138400Y-104605900D01*
X126159737Y-104713171D01*
X125909404Y-104963504D01*
X125799717Y-105127662D01*
X125761200Y-105321300D01*
X125761200Y-106962336D01*
X125517200Y-106962336D01*
X125376010Y-106988903D01*
X125246335Y-107072346D01*
X125159341Y-107199666D01*
X125128736Y-107350800D01*
X125128736Y-108650800D01*
X125155303Y-108791990D01*
X125238746Y-108921665D01*
X125366066Y-109008659D01*
X125517200Y-109039264D01*
X125581400Y-109039264D01*
X125581400Y-109465532D01*
X119453866Y-115593066D01*
X119453864Y-115593069D01*
X117879066Y-117167866D01*
X117730403Y-117390355D01*
X117686210Y-117612530D01*
X117678200Y-117652800D01*
X117678200Y-119603932D01*
X113507932Y-123774200D01*
X87299800Y-123774200D01*
X87037355Y-123826403D01*
X86814866Y-123975066D01*
X86319566Y-124470366D01*
X86170903Y-124692855D01*
X86165017Y-124722445D01*
X86118700Y-124955300D01*
X86118700Y-125176436D01*
X85940900Y-125176436D01*
X85799710Y-125203003D01*
X85670035Y-125286446D01*
X85583041Y-125413766D01*
X85552436Y-125564900D01*
X83781805Y-125564900D01*
X83791169Y-125472866D01*
X83892293Y-124481953D01*
X83892293Y-124481950D01*
X83992176Y-123506230D01*
X84089323Y-122560397D01*
X84182236Y-121659159D01*
X84269416Y-120817220D01*
X84349368Y-120049295D01*
X84349368Y-120049294D01*
X84420591Y-119370104D01*
X84481538Y-118794825D01*
X84530763Y-118337653D01*
X84566613Y-118014694D01*
X84587438Y-117841650D01*
X84590577Y-117818666D01*
X85389535Y-117818666D01*
X88561109Y-120295735D01*
X91837405Y-122854594D01*
X91892674Y-122882440D01*
X91945830Y-122914128D01*
X91959536Y-122916128D01*
X91971908Y-122922361D01*
X92033623Y-122926937D01*
X92094862Y-122935872D01*
X92518196Y-122914060D01*
X92520063Y-122913588D01*
X92521971Y-122913847D01*
X92608454Y-122908541D01*
X92609359Y-122908302D01*
X92610287Y-122908424D01*
X92866132Y-122891504D01*
X92866417Y-122891427D01*
X92866708Y-122891465D01*
X93272593Y-122864013D01*
X93272719Y-122863979D01*
X93272852Y-122863996D01*
X93817941Y-122826762D01*
X93818017Y-122826741D01*
X93818092Y-122826751D01*
X94491550Y-122780484D01*
X94491600Y-122780470D01*
X94491651Y-122780477D01*
X95282642Y-122725928D01*
X95282679Y-122725918D01*
X95282717Y-122725923D01*
X96180403Y-122663840D01*
X96180432Y-122663832D01*
X96180463Y-122663836D01*
X97174012Y-122594970D01*
X97174035Y-122594964D01*
X97174062Y-122594967D01*
X98252635Y-122520067D01*
X98252657Y-122520061D01*
X98252679Y-122520064D01*
X99405441Y-122439879D01*
X99405461Y-122439873D01*
X99405481Y-122439876D01*
X100621597Y-122355157D01*
X100621617Y-122355152D01*
X100621635Y-122355154D01*
X101890267Y-122266650D01*
X101890287Y-122266645D01*
X101890305Y-122266647D01*
X103200619Y-122175107D01*
X104223360Y-122103657D01*
X105492473Y-122015135D01*
X105492476Y-122015135D01*
X106707695Y-121930525D01*
X106707698Y-121930524D01*
X107858405Y-121850559D01*
X107858406Y-121850559D01*
X108934309Y-121775949D01*
X108934312Y-121775949D01*
X109924977Y-121707413D01*
X109924978Y-121707413D01*
X110819813Y-121645681D01*
X110819816Y-121645680D01*
X111608294Y-121591480D01*
X111608296Y-121591480D01*
X112280153Y-121545518D01*
X112280154Y-121545518D01*
X112825089Y-121508505D01*
X112825091Y-121508504D01*
X113231441Y-121481243D01*
X113231442Y-121481243D01*
X113489415Y-121464406D01*
X113588714Y-121458696D01*
X113591711Y-121457919D01*
X113594783Y-121458299D01*
X113611011Y-121457109D01*
X113657984Y-121444131D01*
X113706307Y-121437843D01*
X113729922Y-121424256D01*
X113756182Y-121417001D01*
X113794610Y-121387038D01*
X113836852Y-121362734D01*
X113931912Y-121279620D01*
X113964686Y-121237040D01*
X114002083Y-121198461D01*
X114010250Y-121177843D01*
X114023776Y-121160270D01*
X114037759Y-121108394D01*
X114057548Y-121058436D01*
X114088474Y-120889248D01*
X114087409Y-120820826D01*
X114088831Y-120752416D01*
X114054758Y-120560351D01*
X114053748Y-120557761D01*
X114053766Y-120554984D01*
X114026425Y-120487719D01*
X114000024Y-120420039D01*
X113998101Y-120418034D01*
X113997054Y-120415459D01*
X113897113Y-120263716D01*
X113875191Y-120241502D01*
X113858966Y-120214849D01*
X113715247Y-120058456D01*
X113627669Y-119870847D01*
X113569892Y-119560028D01*
X113551850Y-119080309D01*
X113557545Y-118798384D01*
X113582082Y-118425807D01*
X113631335Y-118053215D01*
X113713270Y-117633996D01*
X113836184Y-117126172D01*
X114008106Y-116488858D01*
X114008138Y-116488383D01*
X114008348Y-116487956D01*
X114096247Y-116158953D01*
X114096555Y-116154203D01*
X114098553Y-116149882D01*
X114174712Y-115834328D01*
X114175037Y-115826291D01*
X114178111Y-115818859D01*
X114222113Y-115596993D01*
X114222096Y-115567722D01*
X114229096Y-115539297D01*
X114233325Y-115445558D01*
X114222952Y-115377508D01*
X114214913Y-115309153D01*
X114211640Y-115303298D01*
X114210629Y-115296668D01*
X114175008Y-115237774D01*
X114141419Y-115177692D01*
X114136155Y-115173536D01*
X114132684Y-115167797D01*
X114095471Y-115140428D01*
X114091451Y-115134939D01*
X114073308Y-115123915D01*
X114023212Y-115084362D01*
X114006004Y-115075579D01*
X113983091Y-115069098D01*
X113962738Y-115056732D01*
X113815953Y-115003210D01*
X113810624Y-115002387D01*
X113805944Y-114999716D01*
X113530617Y-114907809D01*
X113528629Y-114907557D01*
X113526878Y-114906582D01*
X113147091Y-114784094D01*
X113145878Y-114783953D01*
X113144805Y-114783364D01*
X112684636Y-114638103D01*
X112683669Y-114637997D01*
X112682814Y-114637533D01*
X112166345Y-114477305D01*
X112166062Y-114477275D01*
X112165810Y-114477139D01*
X111959592Y-114413491D01*
X111463623Y-114258710D01*
X111034711Y-114122479D01*
X110696964Y-114012616D01*
X110694122Y-114011650D01*
X110779274Y-113783750D01*
X110902208Y-113505463D01*
X111029503Y-113259544D01*
X111142784Y-113085768D01*
X111394994Y-112767326D01*
X111400606Y-112756372D01*
X111409463Y-112747827D01*
X111434769Y-112689697D01*
X111463673Y-112633286D01*
X111464666Y-112621022D01*
X111469580Y-112609735D01*
X111470714Y-112546347D01*
X111475830Y-112483169D01*
X111472053Y-112471454D01*
X111472273Y-112459149D01*
X111449064Y-112400155D01*
X111429613Y-112339826D01*
X111421642Y-112330450D01*
X111417136Y-112318996D01*
X111373119Y-112273375D01*
X111332060Y-112225080D01*
X111321106Y-112219468D01*
X111312561Y-112210611D01*
X111254436Y-112185307D01*
X111198020Y-112156401D01*
X111185754Y-112155408D01*
X111174469Y-112150495D01*
X110979100Y-112107987D01*
X110971140Y-112107845D01*
X110963718Y-112104966D01*
X110882587Y-112090736D01*
X110877257Y-112090857D01*
X110872233Y-112089064D01*
X110631316Y-112053526D01*
X110629272Y-112053628D01*
X110627340Y-112052961D01*
X110273170Y-112004476D01*
X110272051Y-112004544D01*
X110270990Y-112004184D01*
X109836555Y-111947230D01*
X109835669Y-111947289D01*
X109834829Y-111947008D01*
X109353717Y-111886140D01*
X109208774Y-111867532D01*
X108719424Y-111799624D01*
X108109580Y-111709536D01*
X107413061Y-111602504D01*
X106665189Y-111483998D01*
X105900207Y-111359334D01*
X105151463Y-111233681D01*
X102436396Y-110770585D01*
X101486025Y-109959357D01*
X101372183Y-109861321D01*
X100997344Y-109525016D01*
X100696941Y-109234595D01*
X100499538Y-109020734D01*
X100436478Y-108930544D01*
X100406870Y-108817282D01*
X100402580Y-108629474D01*
X100437666Y-108305448D01*
X100453595Y-108226587D01*
X100518118Y-107962587D01*
X100625509Y-107549927D01*
X100771520Y-107004737D01*
X100952741Y-106339440D01*
X101165636Y-105566838D01*
X101406860Y-104699007D01*
X101673414Y-103746772D01*
X101673414Y-103746769D01*
X101961720Y-102723029D01*
X102268871Y-101638292D01*
X102591331Y-100505307D01*
X102925938Y-99335484D01*
X103130365Y-98621850D01*
X123481400Y-98621850D01*
X123481400Y-99125385D01*
X123539404Y-99265419D01*
X123646580Y-99372596D01*
X123786614Y-99430600D01*
X124390150Y-99430600D01*
X124485400Y-99335350D01*
X124485400Y-98526600D01*
X124739400Y-98526600D01*
X124739400Y-99335350D01*
X124834650Y-99430600D01*
X125438186Y-99430600D01*
X125578220Y-99372596D01*
X125685396Y-99265419D01*
X125743400Y-99125385D01*
X125743400Y-98621850D01*
X125648150Y-98526600D01*
X124739400Y-98526600D01*
X124485400Y-98526600D01*
X123576650Y-98526600D01*
X123481400Y-98621850D01*
X103130365Y-98621850D01*
X103168396Y-98489090D01*
X103168406Y-98488969D01*
X103168462Y-98488860D01*
X103401393Y-97673815D01*
X123481400Y-97673815D01*
X123481400Y-98177350D01*
X123576650Y-98272600D01*
X124485400Y-98272600D01*
X124485400Y-97463850D01*
X124739400Y-97463850D01*
X124739400Y-98272600D01*
X125648150Y-98272600D01*
X125743400Y-98177350D01*
X125743400Y-97673815D01*
X125685396Y-97533781D01*
X125578220Y-97426604D01*
X125438186Y-97368600D01*
X124834650Y-97368600D01*
X124739400Y-97463850D01*
X124485400Y-97463850D01*
X124390150Y-97368600D01*
X123786614Y-97368600D01*
X123646580Y-97426604D01*
X123539404Y-97533781D01*
X123481400Y-97673815D01*
X103401393Y-97673815D01*
X103496469Y-97341138D01*
X103496481Y-97340994D01*
X103496546Y-97340867D01*
X103811054Y-96237333D01*
X103811066Y-96237185D01*
X103811135Y-96237050D01*
X104108808Y-95189558D01*
X104108821Y-95189394D01*
X104108895Y-95189250D01*
X104386395Y-94209653D01*
X104386410Y-94209467D01*
X104386494Y-94209302D01*
X104640485Y-93309452D01*
X104640502Y-93309231D01*
X104640604Y-93309031D01*
X104867750Y-92500782D01*
X104867772Y-92500495D01*
X104867902Y-92500239D01*
X105064865Y-91795445D01*
X105064896Y-91795044D01*
X105065076Y-91794686D01*
X105228519Y-91205197D01*
X105228566Y-91204569D01*
X105228849Y-91204002D01*
X105355437Y-90741673D01*
X105355523Y-90740469D01*
X105356056Y-90739385D01*
X105442451Y-90416068D01*
X105442673Y-90412641D01*
X105444135Y-90409536D01*
X105487002Y-90237086D01*
X105487030Y-90236485D01*
X105487285Y-90235940D01*
X105554582Y-89961631D01*
X105686840Y-89614495D01*
X105834738Y-89413141D01*
X106040812Y-89273049D01*
X106387156Y-89151721D01*
X106523994Y-89119264D01*
X106857639Y-89047493D01*
X107328460Y-88950975D01*
X107919718Y-88832920D01*
X108616700Y-88696086D01*
X109402238Y-88543706D01*
X110262615Y-88378331D01*
X111182115Y-88202906D01*
X111182116Y-88202906D01*
X112146091Y-88020165D01*
X113139623Y-87832896D01*
X113139626Y-87832895D01*
X114146549Y-87644122D01*
X115153116Y-87456412D01*
X116143348Y-87272750D01*
X116143350Y-87272750D01*
X117103094Y-87095782D01*
X118016431Y-86928483D01*
X118868531Y-86773622D01*
X119644524Y-86633979D01*
X120328991Y-86512430D01*
X120907014Y-86411760D01*
X121362138Y-86335014D01*
X121676400Y-86285417D01*
X121830048Y-86266015D01*
X122414947Y-86227049D01*
X133091257Y-90103371D01*
M02*
