G04 #@! TF.FileFunction,Legend,Bot*
%FSLAX46Y46*%
G04 Gerber Fmt 4.6, Leading zero omitted, Abs format (unit mm)*
G04 Created by KiCad (PCBNEW 4.0.2+dfsg1-stable) date Wed 11 Jul 2018 10:01:05 PM CDT*
%MOMM*%
G01*
G04 APERTURE LIST*
%ADD10C,0.100000*%
%ADD11C,0.203200*%
%ADD12C,0.150000*%
%ADD13C,0.120000*%
G04 APERTURE END LIST*
D10*
D11*
X130144157Y-94543129D02*
X130407117Y-93561749D01*
X129852139Y-93763657D02*
X129676832Y-94417910D01*
X129827095Y-93857122D02*
X129792885Y-93797867D01*
X129711942Y-93726091D01*
X129571745Y-93688525D01*
X129465758Y-93710214D01*
X129393982Y-93791157D01*
X129256241Y-94305213D01*
X128848171Y-94145783D02*
X128742184Y-94167472D01*
X128555254Y-94117384D01*
X128474312Y-94045608D01*
X128452624Y-93939621D01*
X128465146Y-93892889D01*
X128536922Y-93811946D01*
X128642908Y-93790257D01*
X128783105Y-93827823D01*
X128889092Y-93806134D01*
X128960868Y-93725192D01*
X128973390Y-93678460D01*
X128951701Y-93572473D01*
X128870758Y-93500697D01*
X128730561Y-93463131D01*
X128624575Y-93484820D01*
X128309970Y-93350434D02*
X127936110Y-93250258D01*
X128257426Y-92985741D02*
X128032032Y-93826924D01*
X127960255Y-93907867D01*
X127854268Y-93929556D01*
X127760803Y-93904512D01*
X127433677Y-93816859D02*
X127608984Y-93162605D01*
X127558896Y-93349535D02*
X127537208Y-93243548D01*
X127502997Y-93184294D01*
X127422054Y-93112517D01*
X127328590Y-93087474D01*
X126580872Y-92887123D02*
X126405565Y-93541377D01*
X127001463Y-92999820D02*
X126863722Y-93513876D01*
X126791946Y-93594819D01*
X126685959Y-93616508D01*
X126545762Y-93578943D01*
X126464819Y-93507166D01*
X126430609Y-93447912D01*
X125530171Y-93256728D02*
X125611114Y-93328504D01*
X125798043Y-93378592D01*
X125904030Y-93356903D01*
X125963284Y-93322693D01*
X126035061Y-93241750D01*
X126110192Y-92961356D01*
X126088503Y-92855369D01*
X126054293Y-92796115D01*
X125973350Y-92724338D01*
X125786421Y-92674251D01*
X125680434Y-92695940D01*
X125412561Y-92574076D02*
X125038702Y-92473900D01*
X125360017Y-92209383D02*
X125134623Y-93050566D01*
X125062847Y-93131509D01*
X124956860Y-93153197D01*
X124863395Y-93128154D01*
X124536269Y-93040500D02*
X124711575Y-92386247D01*
X124799229Y-92059120D02*
X124833439Y-92118374D01*
X124774185Y-92152585D01*
X124739974Y-92093330D01*
X124799229Y-92059120D01*
X124774185Y-92152585D01*
X123928747Y-92877715D02*
X124034734Y-92856027D01*
X124093988Y-92821816D01*
X124165764Y-92740873D01*
X124240896Y-92460479D01*
X124219207Y-92354493D01*
X124184996Y-92295238D01*
X124104053Y-92223462D01*
X123963857Y-92185896D01*
X123857870Y-92207585D01*
X123798616Y-92241796D01*
X123726840Y-92322739D01*
X123651708Y-92603132D01*
X123673397Y-92709119D01*
X123707607Y-92768373D01*
X123788550Y-92840150D01*
X123928747Y-92877715D01*
X123356335Y-92023111D02*
X123181028Y-92677365D01*
X123331291Y-92116576D02*
X123297081Y-92057322D01*
X123216138Y-91985546D01*
X123075941Y-91947980D01*
X122969954Y-91969669D01*
X122898178Y-92050612D01*
X122760437Y-92564668D01*
X122352367Y-92405238D02*
X122246380Y-92426927D01*
X122059450Y-92376839D01*
X121978508Y-92305063D01*
X121956820Y-92199076D01*
X121969342Y-92152344D01*
X122041118Y-92071401D01*
X122147104Y-92049712D01*
X122287301Y-92087277D01*
X122393288Y-92065589D01*
X122465064Y-91984647D01*
X122477586Y-91937914D01*
X122455897Y-91831928D01*
X122374954Y-91760151D01*
X122234757Y-91722585D01*
X122128771Y-91744274D01*
X121523706Y-92133111D02*
X121464451Y-92167322D01*
X121498662Y-92226576D01*
X121557916Y-92192366D01*
X121523706Y-92133111D01*
X121498662Y-92226576D01*
X121661447Y-91619055D02*
X121602192Y-91653266D01*
X121636403Y-91712520D01*
X121695657Y-91678309D01*
X121661447Y-91619055D01*
X121636403Y-91712520D01*
X139840987Y-98824332D02*
X140103947Y-97842951D01*
X139420396Y-98711635D02*
X139558137Y-98197579D01*
X139629913Y-98116636D01*
X139735900Y-98094947D01*
X139876096Y-98132513D01*
X139957039Y-98204289D01*
X139991250Y-98263544D01*
X139268575Y-97969728D02*
X138894715Y-97869553D01*
X139216031Y-97605035D02*
X138990637Y-98446218D01*
X138918861Y-98527161D01*
X138812874Y-98548850D01*
X138719409Y-98523806D01*
X138707787Y-97819465D02*
X138333927Y-97719290D01*
X138655243Y-97454772D02*
X138429848Y-98295956D01*
X138358072Y-98376899D01*
X138252085Y-98398587D01*
X138158620Y-98373543D01*
X138006801Y-97631637D02*
X137743841Y-98613017D01*
X137994279Y-97678369D02*
X137913336Y-97606593D01*
X137726407Y-97556505D01*
X137620420Y-97578194D01*
X137561166Y-97612404D01*
X137489389Y-97693347D01*
X137414258Y-97973741D01*
X137435947Y-98079728D01*
X137470157Y-98138982D01*
X137551100Y-98210759D01*
X137738029Y-98260846D01*
X137844016Y-98239158D01*
X137002833Y-98013763D02*
X136896846Y-98035452D01*
X136709916Y-97985364D01*
X136628974Y-97913588D01*
X136607285Y-97807601D01*
X136619807Y-97760869D01*
X136691584Y-97679926D01*
X136797569Y-97658237D01*
X136937767Y-97695803D01*
X137043754Y-97674114D01*
X137115530Y-97593172D01*
X137128052Y-97546440D01*
X137106363Y-97440453D01*
X137025420Y-97368676D01*
X136885223Y-97331111D01*
X136779237Y-97352800D01*
X136174171Y-97741636D02*
X136114917Y-97775847D01*
X136149127Y-97835101D01*
X136208382Y-97800891D01*
X136174171Y-97741636D01*
X136149127Y-97835101D01*
X136311912Y-97227580D02*
X136252658Y-97261791D01*
X136286868Y-97321045D01*
X136346123Y-97286835D01*
X136311912Y-97227580D01*
X136286868Y-97321045D01*
X135256299Y-96493940D02*
X135759391Y-97981110D01*
X134228186Y-96218458D02*
X134731278Y-97705628D01*
X133217507Y-96999488D02*
X133298450Y-97071265D01*
X133485379Y-97121352D01*
X133591366Y-97099664D01*
X133650621Y-97065453D01*
X133722397Y-96984510D01*
X133797528Y-96704116D01*
X133775840Y-96598129D01*
X133741629Y-96538875D01*
X133660686Y-96467099D01*
X133473757Y-96417011D01*
X133367770Y-96438700D01*
X132644196Y-96895958D02*
X132750183Y-96874269D01*
X132809437Y-96840059D01*
X132881214Y-96759116D01*
X132956345Y-96478722D01*
X132934656Y-96372735D01*
X132900446Y-96313481D01*
X132819503Y-96241704D01*
X132679306Y-96204139D01*
X132573319Y-96225827D01*
X132514065Y-96260038D01*
X132442289Y-96340981D01*
X132367158Y-96621375D01*
X132388846Y-96727362D01*
X132423057Y-96786616D01*
X132504000Y-96858392D01*
X132644196Y-96895958D01*
X132071784Y-96041354D02*
X131896478Y-96695607D01*
X132046741Y-96134819D02*
X132012530Y-96075564D01*
X131931587Y-96003788D01*
X131791391Y-95966223D01*
X131685404Y-95987911D01*
X131613627Y-96068854D01*
X131475887Y-96582910D01*
X131324066Y-95841003D02*
X130950206Y-95740828D01*
X131271522Y-95476310D02*
X131046128Y-96317494D01*
X130974351Y-96398437D01*
X130868365Y-96420125D01*
X130774900Y-96395081D01*
X130086437Y-96160521D02*
X130167380Y-96232297D01*
X130354309Y-96282384D01*
X130460295Y-96260696D01*
X130532072Y-96179753D01*
X130632247Y-95805894D01*
X130610558Y-95699907D01*
X130529615Y-95628131D01*
X130342686Y-95578043D01*
X130236700Y-95599732D01*
X130164923Y-95680675D01*
X130139880Y-95774139D01*
X130582159Y-95992823D01*
X129700055Y-96107078D02*
X129361306Y-95315083D01*
X129875362Y-95452824D02*
X129185999Y-95969337D01*
X129127643Y-95252474D02*
X128753784Y-95152298D01*
X129075100Y-94887781D02*
X128849705Y-95728964D01*
X128777929Y-95809907D01*
X128671942Y-95831596D01*
X128578477Y-95806552D01*
X128006066Y-94951948D02*
X127830760Y-95606201D01*
X128426658Y-95064645D02*
X128288917Y-95578701D01*
X128217140Y-95659644D01*
X128111153Y-95681333D01*
X127970957Y-95643767D01*
X127890014Y-95571991D01*
X127855804Y-95512736D01*
X126942844Y-95368285D02*
X127080585Y-94854229D01*
X127152361Y-94773286D01*
X127258348Y-94751597D01*
X127445277Y-94801685D01*
X127526220Y-94873461D01*
X126955366Y-95321553D02*
X127036309Y-95393329D01*
X127269970Y-95455938D01*
X127375957Y-95434250D01*
X127447733Y-95353307D01*
X127472777Y-95259842D01*
X127451089Y-95153855D01*
X127370146Y-95082079D01*
X127136484Y-95019469D01*
X127055541Y-94947693D01*
X126335322Y-95205500D02*
X126441309Y-95183811D01*
X126513085Y-95102868D01*
X126738480Y-94261685D01*
X125600127Y-94958417D02*
X125681070Y-95030194D01*
X125867998Y-95080281D01*
X125973985Y-95058592D01*
X126045762Y-94977650D01*
X126145937Y-94603791D01*
X126124248Y-94497804D01*
X126043305Y-94426028D01*
X125856376Y-94375940D01*
X125750389Y-94397629D01*
X125678613Y-94478572D01*
X125653570Y-94572036D01*
X126095849Y-94790720D01*
X124980083Y-94842365D02*
X125086070Y-94820676D01*
X125157846Y-94739733D01*
X125383240Y-93898550D01*
X124244887Y-94595282D02*
X124325830Y-94667058D01*
X124512759Y-94717146D01*
X124618746Y-94695457D01*
X124690522Y-94614514D01*
X124790697Y-94240656D01*
X124769009Y-94134669D01*
X124688066Y-94062892D01*
X124501137Y-94012805D01*
X124395150Y-94034494D01*
X124323374Y-94115437D01*
X124298330Y-94208900D01*
X124740610Y-94427584D01*
X123356972Y-94357366D02*
X123437915Y-94429142D01*
X123624843Y-94479230D01*
X123730830Y-94457541D01*
X123790085Y-94423330D01*
X123861861Y-94342387D01*
X123936992Y-94061994D01*
X123915304Y-93956007D01*
X123881093Y-93896752D01*
X123800150Y-93824976D01*
X123613221Y-93774889D01*
X123507234Y-93796577D01*
X123239362Y-93674713D02*
X122865502Y-93574538D01*
X123186818Y-93310020D02*
X122961423Y-94151204D01*
X122889647Y-94232147D01*
X122783660Y-94253835D01*
X122690195Y-94228791D01*
X122363069Y-94141138D02*
X122538376Y-93486885D01*
X122488288Y-93673814D02*
X122466599Y-93567828D01*
X122432389Y-93508573D01*
X122351446Y-93436797D01*
X122257982Y-93411753D01*
X121615351Y-93940788D02*
X121721337Y-93919099D01*
X121780592Y-93884888D01*
X121852368Y-93803945D01*
X121927499Y-93523552D01*
X121905811Y-93417565D01*
X121871600Y-93358310D01*
X121790657Y-93286534D01*
X121650461Y-93248969D01*
X121544474Y-93270657D01*
X121485220Y-93304868D01*
X121413443Y-93385811D01*
X121338312Y-93666205D01*
X121360001Y-93772191D01*
X121394211Y-93831446D01*
X121475154Y-93903222D01*
X121615351Y-93940788D01*
X121042939Y-93086184D02*
X120867632Y-93740437D01*
X121017895Y-93179649D02*
X120983685Y-93120394D01*
X120902742Y-93048618D01*
X120762545Y-93011052D01*
X120656558Y-93032741D01*
X120584782Y-93113684D01*
X120447041Y-93627740D01*
X119979717Y-93502521D02*
X120155023Y-92848267D01*
X120242677Y-92521140D02*
X120276887Y-92580394D01*
X120217633Y-92614605D01*
X120183422Y-92555351D01*
X120242677Y-92521140D01*
X120217633Y-92614605D01*
X119104323Y-93217872D02*
X119185266Y-93289648D01*
X119372195Y-93339736D01*
X119478181Y-93318047D01*
X119537436Y-93283837D01*
X119609212Y-93202894D01*
X119684343Y-92922500D01*
X119662655Y-92816513D01*
X119628444Y-92757259D01*
X119547501Y-92685482D01*
X119360572Y-92635395D01*
X119254586Y-92657083D01*
X118730463Y-93117697D02*
X118624476Y-93139385D01*
X118437546Y-93089297D01*
X118356604Y-93017521D01*
X118334916Y-92911535D01*
X118347438Y-92864802D01*
X118419214Y-92783859D01*
X118525200Y-92762170D01*
X118665397Y-92799736D01*
X118771384Y-92778047D01*
X118843160Y-92697105D01*
X118855682Y-92650373D01*
X118833993Y-92544386D01*
X118753050Y-92472610D01*
X118612853Y-92435044D01*
X118506867Y-92456733D01*
X117901802Y-92845570D02*
X117842547Y-92879780D01*
X117876758Y-92939035D01*
X117936012Y-92904824D01*
X117901802Y-92845570D01*
X117876758Y-92939035D01*
X117001364Y-92654386D02*
X117082307Y-92726162D01*
X117269236Y-92776250D01*
X117375223Y-92754561D01*
X117434477Y-92720350D01*
X117506253Y-92639408D01*
X117581385Y-92359014D01*
X117559696Y-92253027D01*
X117525486Y-92193773D01*
X117444543Y-92121996D01*
X117257614Y-92071909D01*
X117151627Y-92093597D01*
X116428053Y-92550855D02*
X116534039Y-92529167D01*
X116593294Y-92494956D01*
X116665070Y-92414013D01*
X116740201Y-92133619D01*
X116718513Y-92027633D01*
X116684302Y-91968378D01*
X116603359Y-91896602D01*
X116463163Y-91859036D01*
X116357176Y-91880725D01*
X116297922Y-91914935D01*
X116226145Y-91995878D01*
X116151014Y-92276272D01*
X116172703Y-92382259D01*
X116206913Y-92441513D01*
X116287856Y-92513290D01*
X116428053Y-92550855D01*
X115680334Y-92350505D02*
X115855641Y-91696251D01*
X115830597Y-91789716D02*
X115796387Y-91730462D01*
X115715444Y-91658686D01*
X115575247Y-91621120D01*
X115469260Y-91642809D01*
X115397484Y-91723752D01*
X115259743Y-92237808D01*
X115397484Y-91723752D02*
X115375795Y-91617765D01*
X115294852Y-91545988D01*
X115154655Y-91508423D01*
X115048668Y-91530111D01*
X114976892Y-91611054D01*
X114839151Y-92125110D01*
X113946323Y-90783949D02*
X114449414Y-92271119D01*
X113343713Y-91724409D02*
X113606674Y-90743028D01*
X112782925Y-91574146D01*
X113045885Y-90592766D01*
X112437464Y-91181054D02*
X111970141Y-91055835D01*
X112455798Y-91486493D02*
X112391631Y-90417459D01*
X111801544Y-91311186D01*
X110938672Y-90979805D02*
X110972883Y-91039059D01*
X111100558Y-91123357D01*
X111194023Y-91148401D01*
X111346742Y-91139234D01*
X111465250Y-91070813D01*
X111537027Y-90989870D01*
X111633847Y-90815462D01*
X111671412Y-90675266D01*
X111674768Y-90475814D01*
X111653079Y-90369827D01*
X111584658Y-90251319D01*
X111456983Y-90167021D01*
X111363518Y-90141977D01*
X111210799Y-90151143D01*
X111151545Y-90185354D01*
D12*
X118634000Y-106221000D02*
X120634000Y-106221000D01*
X120634000Y-109171000D02*
X118634000Y-109171000D01*
X118658000Y-96823003D02*
X120658000Y-96823003D01*
X120658000Y-99773003D02*
X118658000Y-99773003D01*
X120001002Y-104927998D02*
X120001002Y-103727998D01*
X118251002Y-103727998D02*
X118251002Y-104927998D01*
X126605000Y-108296000D02*
X126605000Y-107096000D01*
X124855000Y-107096000D02*
X124855000Y-108296000D01*
X122315000Y-107162000D02*
X122315000Y-108362000D01*
X124065000Y-108362000D02*
X124065000Y-107162000D01*
X126746000Y-105410000D02*
X126746000Y-100330000D01*
X126746000Y-100330000D02*
X122174000Y-100330000D01*
X122174000Y-100330000D02*
X122174000Y-105410000D01*
X122174000Y-105410000D02*
X126746000Y-105410000D01*
X125222000Y-105410000D02*
X125222000Y-104902000D01*
X125222000Y-104902000D02*
X123952000Y-104902000D01*
X123952000Y-104902000D02*
X123952000Y-105410000D01*
D13*
X116871714Y-107816667D02*
X116909810Y-107778572D01*
X116947905Y-107664286D01*
X116947905Y-107588096D01*
X116909810Y-107473810D01*
X116833619Y-107397619D01*
X116757429Y-107359524D01*
X116605048Y-107321429D01*
X116490762Y-107321429D01*
X116338381Y-107359524D01*
X116262190Y-107397619D01*
X116186000Y-107473810D01*
X116147905Y-107588096D01*
X116147905Y-107664286D01*
X116186000Y-107778572D01*
X116224095Y-107816667D01*
X116947905Y-108578572D02*
X116947905Y-108121429D01*
X116947905Y-108350000D02*
X116147905Y-108350000D01*
X116262190Y-108273810D01*
X116338381Y-108197619D01*
X116376476Y-108121429D01*
X123323333Y-98075714D02*
X123361428Y-98113810D01*
X123475714Y-98151905D01*
X123551904Y-98151905D01*
X123666190Y-98113810D01*
X123742381Y-98037619D01*
X123780476Y-97961429D01*
X123818571Y-97809048D01*
X123818571Y-97694762D01*
X123780476Y-97542381D01*
X123742381Y-97466190D01*
X123666190Y-97390000D01*
X123551904Y-97351905D01*
X123475714Y-97351905D01*
X123361428Y-97390000D01*
X123323333Y-97428095D01*
X123018571Y-97428095D02*
X122980476Y-97390000D01*
X122904285Y-97351905D01*
X122713809Y-97351905D01*
X122637619Y-97390000D01*
X122599523Y-97428095D01*
X122561428Y-97504286D01*
X122561428Y-97580476D01*
X122599523Y-97694762D01*
X123056666Y-98151905D01*
X122561428Y-98151905D01*
X117963905Y-104514667D02*
X117582952Y-104248000D01*
X117963905Y-104057524D02*
X117163905Y-104057524D01*
X117163905Y-104362286D01*
X117202000Y-104438477D01*
X117240095Y-104476572D01*
X117316286Y-104514667D01*
X117430571Y-104514667D01*
X117506762Y-104476572D01*
X117544857Y-104438477D01*
X117582952Y-104362286D01*
X117582952Y-104057524D01*
X117963905Y-105276572D02*
X117963905Y-104819429D01*
X117963905Y-105048000D02*
X117163905Y-105048000D01*
X117278190Y-104971810D01*
X117354381Y-104895619D01*
X117392476Y-104819429D01*
X126091905Y-110102667D02*
X125710952Y-109836000D01*
X126091905Y-109645524D02*
X125291905Y-109645524D01*
X125291905Y-109950286D01*
X125330000Y-110026477D01*
X125368095Y-110064572D01*
X125444286Y-110102667D01*
X125558571Y-110102667D01*
X125634762Y-110064572D01*
X125672857Y-110026477D01*
X125710952Y-109950286D01*
X125710952Y-109645524D01*
X125368095Y-110407429D02*
X125330000Y-110445524D01*
X125291905Y-110521715D01*
X125291905Y-110712191D01*
X125330000Y-110788381D01*
X125368095Y-110826477D01*
X125444286Y-110864572D01*
X125520476Y-110864572D01*
X125634762Y-110826477D01*
X126091905Y-110369334D01*
X126091905Y-110864572D01*
X123551905Y-110102667D02*
X123170952Y-109836000D01*
X123551905Y-109645524D02*
X122751905Y-109645524D01*
X122751905Y-109950286D01*
X122790000Y-110026477D01*
X122828095Y-110064572D01*
X122904286Y-110102667D01*
X123018571Y-110102667D01*
X123094762Y-110064572D01*
X123132857Y-110026477D01*
X123170952Y-109950286D01*
X123170952Y-109645524D01*
X122751905Y-110369334D02*
X122751905Y-110864572D01*
X123056667Y-110597905D01*
X123056667Y-110712191D01*
X123094762Y-110788381D01*
X123132857Y-110826477D01*
X123209048Y-110864572D01*
X123399524Y-110864572D01*
X123475714Y-110826477D01*
X123513810Y-110788381D01*
X123551905Y-110712191D01*
X123551905Y-110483619D01*
X123513810Y-110407429D01*
X123475714Y-110369334D01*
X127101524Y-99129905D02*
X127101524Y-99777524D01*
X127063429Y-99853714D01*
X127025333Y-99891810D01*
X126949143Y-99929905D01*
X126796762Y-99929905D01*
X126720571Y-99891810D01*
X126682476Y-99853714D01*
X126644381Y-99777524D01*
X126644381Y-99129905D01*
X125844381Y-99929905D02*
X126301524Y-99929905D01*
X126072953Y-99929905D02*
X126072953Y-99129905D01*
X126149143Y-99244190D01*
X126225334Y-99320381D01*
X126301524Y-99358476D01*
M02*
