G04 #@! TF.FileFunction,Copper,L1,Top,Signal*
%FSLAX46Y46*%
G04 Gerber Fmt 4.6, Leading zero omitted, Abs format (unit mm)*
G04 Created by KiCad (PCBNEW 4.0.2+dfsg1-stable) date Wed 11 Jul 2018 09:54:29 PM CDT*
%MOMM*%
G01*
G04 APERTURE LIST*
%ADD10C,0.100000*%
%ADD11C,0.010000*%
%ADD12R,1.727200X1.727200*%
%ADD13O,1.727200X1.727200*%
%ADD14C,0.600000*%
%ADD15C,0.609600*%
%ADD16C,0.250000*%
G04 APERTURE END LIST*
D10*
D11*
G36*
X136521922Y-95421601D02*
X137179081Y-95452981D01*
X137748012Y-95500771D01*
X138193201Y-95564942D01*
X138284783Y-95584419D01*
X138681261Y-95664283D01*
X139171138Y-95744669D01*
X139678921Y-95813834D01*
X139960228Y-95845007D01*
X140582013Y-95918756D01*
X141091014Y-96012550D01*
X141543712Y-96141630D01*
X141996588Y-96321235D01*
X142357393Y-96491837D01*
X143085043Y-96909632D01*
X143707481Y-97397664D01*
X144243385Y-97977759D01*
X144711434Y-98671742D01*
X145130309Y-99501439D01*
X145318251Y-99951433D01*
X145614881Y-100832060D01*
X145787413Y-101682735D01*
X145844167Y-102561758D01*
X145807316Y-103378000D01*
X145759614Y-103836529D01*
X145699114Y-104282140D01*
X145633911Y-104661122D01*
X145577558Y-104902000D01*
X145284979Y-105671371D01*
X144875768Y-106437093D01*
X144374000Y-107169534D01*
X143803755Y-107839062D01*
X143189109Y-108416045D01*
X142554140Y-108870850D01*
X142197666Y-109061590D01*
X141742175Y-109251612D01*
X141262340Y-109402773D01*
X140717848Y-109524776D01*
X140068384Y-109627322D01*
X139615333Y-109683118D01*
X139157261Y-109743707D01*
X138712030Y-109817451D01*
X138333189Y-109894633D01*
X138091333Y-109959648D01*
X137933726Y-110008994D01*
X137779761Y-110044748D01*
X137604192Y-110067407D01*
X137381773Y-110077469D01*
X137087259Y-110075433D01*
X136695404Y-110061797D01*
X136180961Y-110037058D01*
X135636000Y-110008082D01*
X135018843Y-109970596D01*
X134409460Y-109926242D01*
X133844595Y-109878241D01*
X133360994Y-109829811D01*
X132995400Y-109784171D01*
X132892151Y-109767719D01*
X131819509Y-109498492D01*
X130834543Y-109087571D01*
X129945353Y-108542735D01*
X129160040Y-107871762D01*
X128486706Y-107082430D01*
X127933452Y-106182518D01*
X127508379Y-105179803D01*
X127282345Y-104381585D01*
X127196213Y-103851530D01*
X127147642Y-103216310D01*
X127135962Y-102528820D01*
X127160506Y-101841952D01*
X127220606Y-101208597D01*
X127315594Y-100681648D01*
X127329771Y-100626333D01*
X127692717Y-99558655D01*
X128179158Y-98606479D01*
X128786738Y-97772012D01*
X129513100Y-97057462D01*
X130355890Y-96465037D01*
X131312750Y-95996944D01*
X132381326Y-95655392D01*
X132715000Y-95579656D01*
X133155719Y-95511932D01*
X133721299Y-95460801D01*
X134376223Y-95426233D01*
X135084978Y-95408197D01*
X135812049Y-95406663D01*
X136521922Y-95421601D01*
X136521922Y-95421601D01*
G37*
X136521922Y-95421601D02*
X137179081Y-95452981D01*
X137748012Y-95500771D01*
X138193201Y-95564942D01*
X138284783Y-95584419D01*
X138681261Y-95664283D01*
X139171138Y-95744669D01*
X139678921Y-95813834D01*
X139960228Y-95845007D01*
X140582013Y-95918756D01*
X141091014Y-96012550D01*
X141543712Y-96141630D01*
X141996588Y-96321235D01*
X142357393Y-96491837D01*
X143085043Y-96909632D01*
X143707481Y-97397664D01*
X144243385Y-97977759D01*
X144711434Y-98671742D01*
X145130309Y-99501439D01*
X145318251Y-99951433D01*
X145614881Y-100832060D01*
X145787413Y-101682735D01*
X145844167Y-102561758D01*
X145807316Y-103378000D01*
X145759614Y-103836529D01*
X145699114Y-104282140D01*
X145633911Y-104661122D01*
X145577558Y-104902000D01*
X145284979Y-105671371D01*
X144875768Y-106437093D01*
X144374000Y-107169534D01*
X143803755Y-107839062D01*
X143189109Y-108416045D01*
X142554140Y-108870850D01*
X142197666Y-109061590D01*
X141742175Y-109251612D01*
X141262340Y-109402773D01*
X140717848Y-109524776D01*
X140068384Y-109627322D01*
X139615333Y-109683118D01*
X139157261Y-109743707D01*
X138712030Y-109817451D01*
X138333189Y-109894633D01*
X138091333Y-109959648D01*
X137933726Y-110008994D01*
X137779761Y-110044748D01*
X137604192Y-110067407D01*
X137381773Y-110077469D01*
X137087259Y-110075433D01*
X136695404Y-110061797D01*
X136180961Y-110037058D01*
X135636000Y-110008082D01*
X135018843Y-109970596D01*
X134409460Y-109926242D01*
X133844595Y-109878241D01*
X133360994Y-109829811D01*
X132995400Y-109784171D01*
X132892151Y-109767719D01*
X131819509Y-109498492D01*
X130834543Y-109087571D01*
X129945353Y-108542735D01*
X129160040Y-107871762D01*
X128486706Y-107082430D01*
X127933452Y-106182518D01*
X127508379Y-105179803D01*
X127282345Y-104381585D01*
X127196213Y-103851530D01*
X127147642Y-103216310D01*
X127135962Y-102528820D01*
X127160506Y-101841952D01*
X127220606Y-101208597D01*
X127315594Y-100681648D01*
X127329771Y-100626333D01*
X127692717Y-99558655D01*
X128179158Y-98606479D01*
X128786738Y-97772012D01*
X129513100Y-97057462D01*
X130355890Y-96465037D01*
X131312750Y-95996944D01*
X132381326Y-95655392D01*
X132715000Y-95579656D01*
X133155719Y-95511932D01*
X133721299Y-95460801D01*
X134376223Y-95426233D01*
X135084978Y-95408197D01*
X135812049Y-95406663D01*
X136521922Y-95421601D01*
G36*
X113492696Y-104680270D02*
X113722757Y-104730567D01*
X113887172Y-104828809D01*
X113988069Y-104992992D01*
X114027574Y-105241114D01*
X114007814Y-105591169D01*
X113930916Y-106061155D01*
X113799006Y-106669067D01*
X113751537Y-106870500D01*
X113649088Y-107290407D01*
X113571344Y-107572276D01*
X113506257Y-107743363D01*
X113441777Y-107830926D01*
X113365854Y-107862222D01*
X113311768Y-107865333D01*
X113137579Y-107821111D01*
X113063728Y-107746439D01*
X113008882Y-107673661D01*
X112898903Y-107693585D01*
X112791219Y-107745918D01*
X112544385Y-107847119D01*
X112359508Y-107830920D01*
X112168263Y-107688083D01*
X112137151Y-107657515D01*
X111974810Y-107387792D01*
X111945764Y-107128467D01*
X112485695Y-107128467D01*
X112491100Y-107144931D01*
X112608238Y-107250518D01*
X112796826Y-107261382D01*
X112989637Y-107179975D01*
X113050796Y-107124500D01*
X113162236Y-106942440D01*
X113258259Y-106696142D01*
X113265681Y-106669983D01*
X113348859Y-106363633D01*
X113072416Y-106425981D01*
X112851032Y-106487096D01*
X112698744Y-106548455D01*
X112696097Y-106550055D01*
X112571273Y-106701812D01*
X112490284Y-106926117D01*
X112485695Y-107128467D01*
X111945764Y-107128467D01*
X111938834Y-107066604D01*
X112011812Y-106731942D01*
X112176333Y-106421796D01*
X112414985Y-106174156D01*
X112710358Y-106027011D01*
X112895579Y-106002666D01*
X113205842Y-105948083D01*
X113425580Y-105801452D01*
X113522313Y-105588457D01*
X113521667Y-105507646D01*
X113458945Y-105331165D01*
X113292729Y-105260124D01*
X113263549Y-105256278D01*
X113070130Y-105274572D01*
X112948055Y-105414623D01*
X112930100Y-105451954D01*
X112826709Y-105608467D01*
X112683603Y-105634659D01*
X112612058Y-105619960D01*
X112429822Y-105566272D01*
X112372903Y-105495482D01*
X112422001Y-105353764D01*
X112477534Y-105244790D01*
X112727496Y-104923868D01*
X113063082Y-104727074D01*
X113445970Y-104675718D01*
X113492696Y-104680270D01*
X113492696Y-104680270D01*
G37*
X113492696Y-104680270D02*
X113722757Y-104730567D01*
X113887172Y-104828809D01*
X113988069Y-104992992D01*
X114027574Y-105241114D01*
X114007814Y-105591169D01*
X113930916Y-106061155D01*
X113799006Y-106669067D01*
X113751537Y-106870500D01*
X113649088Y-107290407D01*
X113571344Y-107572276D01*
X113506257Y-107743363D01*
X113441777Y-107830926D01*
X113365854Y-107862222D01*
X113311768Y-107865333D01*
X113137579Y-107821111D01*
X113063728Y-107746439D01*
X113008882Y-107673661D01*
X112898903Y-107693585D01*
X112791219Y-107745918D01*
X112544385Y-107847119D01*
X112359508Y-107830920D01*
X112168263Y-107688083D01*
X112137151Y-107657515D01*
X111974810Y-107387792D01*
X111945764Y-107128467D01*
X112485695Y-107128467D01*
X112491100Y-107144931D01*
X112608238Y-107250518D01*
X112796826Y-107261382D01*
X112989637Y-107179975D01*
X113050796Y-107124500D01*
X113162236Y-106942440D01*
X113258259Y-106696142D01*
X113265681Y-106669983D01*
X113348859Y-106363633D01*
X113072416Y-106425981D01*
X112851032Y-106487096D01*
X112698744Y-106548455D01*
X112696097Y-106550055D01*
X112571273Y-106701812D01*
X112490284Y-106926117D01*
X112485695Y-107128467D01*
X111945764Y-107128467D01*
X111938834Y-107066604D01*
X112011812Y-106731942D01*
X112176333Y-106421796D01*
X112414985Y-106174156D01*
X112710358Y-106027011D01*
X112895579Y-106002666D01*
X113205842Y-105948083D01*
X113425580Y-105801452D01*
X113522313Y-105588457D01*
X113521667Y-105507646D01*
X113458945Y-105331165D01*
X113292729Y-105260124D01*
X113263549Y-105256278D01*
X113070130Y-105274572D01*
X112948055Y-105414623D01*
X112930100Y-105451954D01*
X112826709Y-105608467D01*
X112683603Y-105634659D01*
X112612058Y-105619960D01*
X112429822Y-105566272D01*
X112372903Y-105495482D01*
X112422001Y-105353764D01*
X112477534Y-105244790D01*
X112727496Y-104923868D01*
X113063082Y-104727074D01*
X113445970Y-104675718D01*
X113492696Y-104680270D01*
G36*
X111530024Y-104562755D02*
X111561206Y-104563333D01*
X111712279Y-104584103D01*
X111755131Y-104681286D01*
X111742631Y-104812622D01*
X111706043Y-105061911D01*
X111989967Y-104812622D01*
X112209669Y-104650051D01*
X112392897Y-104567616D01*
X112504032Y-104577766D01*
X112521527Y-104626833D01*
X112500321Y-104743031D01*
X112448376Y-104951078D01*
X112432881Y-105007833D01*
X112348296Y-105225709D01*
X112234443Y-105315553D01*
X112151778Y-105325333D01*
X111949702Y-105374641D01*
X111774035Y-105533364D01*
X111614859Y-105817701D01*
X111462256Y-106243852D01*
X111357138Y-106623058D01*
X111254005Y-107017942D01*
X111176781Y-107277005D01*
X111110773Y-107428820D01*
X111041288Y-107501960D01*
X110953636Y-107524998D01*
X110892506Y-107526666D01*
X110704427Y-107484905D01*
X110659333Y-107394714D01*
X110679119Y-107265222D01*
X110733083Y-107008188D01*
X110813137Y-106660042D01*
X110911188Y-106257215D01*
X110917857Y-106230547D01*
X111058692Y-105667214D01*
X111165067Y-105246952D01*
X111245024Y-104948920D01*
X111306606Y-104752276D01*
X111357854Y-104636179D01*
X111406812Y-104579788D01*
X111461521Y-104562260D01*
X111530024Y-104562755D01*
X111530024Y-104562755D01*
G37*
X111530024Y-104562755D02*
X111561206Y-104563333D01*
X111712279Y-104584103D01*
X111755131Y-104681286D01*
X111742631Y-104812622D01*
X111706043Y-105061911D01*
X111989967Y-104812622D01*
X112209669Y-104650051D01*
X112392897Y-104567616D01*
X112504032Y-104577766D01*
X112521527Y-104626833D01*
X112500321Y-104743031D01*
X112448376Y-104951078D01*
X112432881Y-105007833D01*
X112348296Y-105225709D01*
X112234443Y-105315553D01*
X112151778Y-105325333D01*
X111949702Y-105374641D01*
X111774035Y-105533364D01*
X111614859Y-105817701D01*
X111462256Y-106243852D01*
X111357138Y-106623058D01*
X111254005Y-107017942D01*
X111176781Y-107277005D01*
X111110773Y-107428820D01*
X111041288Y-107501960D01*
X110953636Y-107524998D01*
X110892506Y-107526666D01*
X110704427Y-107484905D01*
X110659333Y-107394714D01*
X110679119Y-107265222D01*
X110733083Y-107008188D01*
X110813137Y-106660042D01*
X110911188Y-106257215D01*
X110917857Y-106230547D01*
X111058692Y-105667214D01*
X111165067Y-105246952D01*
X111245024Y-104948920D01*
X111306606Y-104752276D01*
X111357854Y-104636179D01*
X111406812Y-104579788D01*
X111461521Y-104562260D01*
X111530024Y-104562755D01*
G36*
X110530547Y-104470156D02*
X110726448Y-104681537D01*
X110847622Y-105002513D01*
X110883161Y-105407451D01*
X110847448Y-105748666D01*
X110778497Y-106129666D01*
X110083915Y-106103917D01*
X109389333Y-106078169D01*
X109389333Y-106362151D01*
X109441579Y-106648540D01*
X109578134Y-106813868D01*
X109768719Y-106843235D01*
X109983056Y-106721744D01*
X110027706Y-106676272D01*
X110206579Y-106556885D01*
X110396231Y-106536813D01*
X110533509Y-106617885D01*
X110554650Y-106661012D01*
X110518723Y-106775649D01*
X110388687Y-106957841D01*
X110253742Y-107105512D01*
X109927158Y-107359931D01*
X109622761Y-107446896D01*
X109338949Y-107366608D01*
X109179429Y-107239792D01*
X108976053Y-106925159D01*
X108902557Y-106514199D01*
X108958120Y-106000560D01*
X108997774Y-105833333D01*
X109107334Y-105523739D01*
X109587161Y-105523739D01*
X109722191Y-105580894D01*
X109876166Y-105601572D01*
X110149465Y-105622499D01*
X110298363Y-105603582D01*
X110365995Y-105529587D01*
X110390666Y-105419874D01*
X110367084Y-105177378D01*
X110239614Y-105034721D01*
X110049939Y-105005245D01*
X109839744Y-105102291D01*
X109734145Y-105209751D01*
X109595000Y-105410659D01*
X109587161Y-105523739D01*
X109107334Y-105523739D01*
X109192619Y-105282745D01*
X109451887Y-104852500D01*
X109763293Y-104556487D01*
X110114548Y-104408600D01*
X110270830Y-104394000D01*
X110530547Y-104470156D01*
X110530547Y-104470156D01*
G37*
X110530547Y-104470156D02*
X110726448Y-104681537D01*
X110847622Y-105002513D01*
X110883161Y-105407451D01*
X110847448Y-105748666D01*
X110778497Y-106129666D01*
X110083915Y-106103917D01*
X109389333Y-106078169D01*
X109389333Y-106362151D01*
X109441579Y-106648540D01*
X109578134Y-106813868D01*
X109768719Y-106843235D01*
X109983056Y-106721744D01*
X110027706Y-106676272D01*
X110206579Y-106556885D01*
X110396231Y-106536813D01*
X110533509Y-106617885D01*
X110554650Y-106661012D01*
X110518723Y-106775649D01*
X110388687Y-106957841D01*
X110253742Y-107105512D01*
X109927158Y-107359931D01*
X109622761Y-107446896D01*
X109338949Y-107366608D01*
X109179429Y-107239792D01*
X108976053Y-106925159D01*
X108902557Y-106514199D01*
X108958120Y-106000560D01*
X108997774Y-105833333D01*
X109107334Y-105523739D01*
X109587161Y-105523739D01*
X109722191Y-105580894D01*
X109876166Y-105601572D01*
X110149465Y-105622499D01*
X110298363Y-105603582D01*
X110365995Y-105529587D01*
X110390666Y-105419874D01*
X110367084Y-105177378D01*
X110239614Y-105034721D01*
X110049939Y-105005245D01*
X109839744Y-105102291D01*
X109734145Y-105209751D01*
X109595000Y-105410659D01*
X109587161Y-105523739D01*
X109107334Y-105523739D01*
X109192619Y-105282745D01*
X109451887Y-104852500D01*
X109763293Y-104556487D01*
X110114548Y-104408600D01*
X110270830Y-104394000D01*
X110530547Y-104470156D01*
G36*
X106777510Y-104155646D02*
X106824858Y-104225409D01*
X106804199Y-104318156D01*
X106747654Y-104496313D01*
X106998632Y-104310757D01*
X107218520Y-104193243D01*
X107423396Y-104151885D01*
X107442991Y-104153767D01*
X107580277Y-104198744D01*
X107696707Y-104314105D01*
X107834474Y-104542185D01*
X107839707Y-104551819D01*
X107909092Y-104526536D01*
X108057419Y-104424231D01*
X108083959Y-104403652D01*
X108375317Y-104252508D01*
X108637310Y-104255176D01*
X108839816Y-104397305D01*
X108952712Y-104664545D01*
X108966260Y-104824000D01*
X108945407Y-105017621D01*
X108888421Y-105331346D01*
X108803984Y-105721978D01*
X108700774Y-106146326D01*
X108699615Y-106150833D01*
X108588204Y-106578589D01*
X108505378Y-106868858D01*
X108438077Y-107048287D01*
X108373245Y-107143521D01*
X108297822Y-107181208D01*
X108198752Y-107187993D01*
X108191355Y-107188000D01*
X108018581Y-107168703D01*
X107950308Y-107124500D01*
X107970063Y-107021892D01*
X108023585Y-106789956D01*
X108102637Y-106463401D01*
X108196232Y-106087844D01*
X108312150Y-105589370D01*
X108369351Y-105231533D01*
X108367322Y-104995950D01*
X108305546Y-104864242D01*
X108183509Y-104818028D01*
X108160639Y-104817333D01*
X108027958Y-104874078D01*
X107896335Y-105053103D01*
X107759352Y-105367593D01*
X107610589Y-105830733D01*
X107535166Y-106102052D01*
X107429983Y-106488419D01*
X107351559Y-106740996D01*
X107282912Y-106889579D01*
X107207058Y-106963965D01*
X107107013Y-106993950D01*
X107021235Y-107003717D01*
X106835833Y-107009080D01*
X106779882Y-106960575D01*
X106798694Y-106882779D01*
X106874135Y-106651326D01*
X106960660Y-106332927D01*
X107049275Y-105968497D01*
X107130988Y-105598955D01*
X107196805Y-105265215D01*
X107237732Y-105008195D01*
X107244777Y-104868810D01*
X107242890Y-104861860D01*
X107127825Y-104749827D01*
X106954176Y-104751078D01*
X106782310Y-104858377D01*
X106731474Y-104923166D01*
X106659085Y-105083309D01*
X106560934Y-105363327D01*
X106451858Y-105718701D01*
X106378797Y-105981500D01*
X106274342Y-106366532D01*
X106196372Y-106616664D01*
X106129052Y-106760955D01*
X106056549Y-106828465D01*
X105963029Y-106848253D01*
X105905941Y-106849333D01*
X105732805Y-106829212D01*
X105664000Y-106782979D01*
X105685043Y-106682101D01*
X105743060Y-106447790D01*
X105830375Y-106109956D01*
X105939318Y-105698508D01*
X106002666Y-105462810D01*
X106119610Y-105027726D01*
X106219074Y-104653610D01*
X106293445Y-104369420D01*
X106335111Y-104204110D01*
X106341333Y-104174497D01*
X106415183Y-104150461D01*
X106593613Y-104140014D01*
X106601038Y-104140000D01*
X106777510Y-104155646D01*
X106777510Y-104155646D01*
G37*
X106777510Y-104155646D02*
X106824858Y-104225409D01*
X106804199Y-104318156D01*
X106747654Y-104496313D01*
X106998632Y-104310757D01*
X107218520Y-104193243D01*
X107423396Y-104151885D01*
X107442991Y-104153767D01*
X107580277Y-104198744D01*
X107696707Y-104314105D01*
X107834474Y-104542185D01*
X107839707Y-104551819D01*
X107909092Y-104526536D01*
X108057419Y-104424231D01*
X108083959Y-104403652D01*
X108375317Y-104252508D01*
X108637310Y-104255176D01*
X108839816Y-104397305D01*
X108952712Y-104664545D01*
X108966260Y-104824000D01*
X108945407Y-105017621D01*
X108888421Y-105331346D01*
X108803984Y-105721978D01*
X108700774Y-106146326D01*
X108699615Y-106150833D01*
X108588204Y-106578589D01*
X108505378Y-106868858D01*
X108438077Y-107048287D01*
X108373245Y-107143521D01*
X108297822Y-107181208D01*
X108198752Y-107187993D01*
X108191355Y-107188000D01*
X108018581Y-107168703D01*
X107950308Y-107124500D01*
X107970063Y-107021892D01*
X108023585Y-106789956D01*
X108102637Y-106463401D01*
X108196232Y-106087844D01*
X108312150Y-105589370D01*
X108369351Y-105231533D01*
X108367322Y-104995950D01*
X108305546Y-104864242D01*
X108183509Y-104818028D01*
X108160639Y-104817333D01*
X108027958Y-104874078D01*
X107896335Y-105053103D01*
X107759352Y-105367593D01*
X107610589Y-105830733D01*
X107535166Y-106102052D01*
X107429983Y-106488419D01*
X107351559Y-106740996D01*
X107282912Y-106889579D01*
X107207058Y-106963965D01*
X107107013Y-106993950D01*
X107021235Y-107003717D01*
X106835833Y-107009080D01*
X106779882Y-106960575D01*
X106798694Y-106882779D01*
X106874135Y-106651326D01*
X106960660Y-106332927D01*
X107049275Y-105968497D01*
X107130988Y-105598955D01*
X107196805Y-105265215D01*
X107237732Y-105008195D01*
X107244777Y-104868810D01*
X107242890Y-104861860D01*
X107127825Y-104749827D01*
X106954176Y-104751078D01*
X106782310Y-104858377D01*
X106731474Y-104923166D01*
X106659085Y-105083309D01*
X106560934Y-105363327D01*
X106451858Y-105718701D01*
X106378797Y-105981500D01*
X106274342Y-106366532D01*
X106196372Y-106616664D01*
X106129052Y-106760955D01*
X106056549Y-106828465D01*
X105963029Y-106848253D01*
X105905941Y-106849333D01*
X105732805Y-106829212D01*
X105664000Y-106782979D01*
X105685043Y-106682101D01*
X105743060Y-106447790D01*
X105830375Y-106109956D01*
X105939318Y-105698508D01*
X106002666Y-105462810D01*
X106119610Y-105027726D01*
X106219074Y-104653610D01*
X106293445Y-104369420D01*
X106335111Y-104204110D01*
X106341333Y-104174497D01*
X106415183Y-104150461D01*
X106593613Y-104140014D01*
X106601038Y-104140000D01*
X106777510Y-104155646D01*
G36*
X105452673Y-104002249D02*
X105692103Y-104081016D01*
X105737541Y-104107870D01*
X105835681Y-104204021D01*
X105890472Y-104340985D01*
X105900361Y-104542203D01*
X105863796Y-104831114D01*
X105779221Y-105231160D01*
X105645085Y-105765781D01*
X105621788Y-105854500D01*
X105515524Y-106250608D01*
X105436346Y-106511085D01*
X105369284Y-106664327D01*
X105299365Y-106738730D01*
X105211620Y-106762690D01*
X105141922Y-106764666D01*
X104952738Y-106726848D01*
X104902000Y-106627299D01*
X104877662Y-106537804D01*
X104781257Y-106590140D01*
X104625422Y-106646930D01*
X104382299Y-106667367D01*
X104295995Y-106664007D01*
X104052932Y-106629159D01*
X103921962Y-106549474D01*
X103854574Y-106417668D01*
X103814158Y-106074598D01*
X103851363Y-105911075D01*
X104309333Y-105911075D01*
X104366176Y-106137306D01*
X104509802Y-106247502D01*
X104699852Y-106237472D01*
X104895969Y-106103026D01*
X104987594Y-105981500D01*
X105121647Y-105725840D01*
X105137689Y-105574052D01*
X105032017Y-105505078D01*
X104902000Y-105494666D01*
X104683897Y-105545615D01*
X104474480Y-105669955D01*
X104334611Y-105824924D01*
X104309333Y-105911075D01*
X103851363Y-105911075D01*
X103896569Y-105712388D01*
X104083670Y-105405723D01*
X104105954Y-105382469D01*
X104341355Y-105219101D01*
X104672913Y-105124991D01*
X104783634Y-105108924D01*
X105115182Y-105041872D01*
X105297854Y-104939005D01*
X105327736Y-104897510D01*
X105403372Y-104689610D01*
X105346847Y-104551022D01*
X105240100Y-104478363D01*
X105099570Y-104438565D01*
X104960406Y-104505810D01*
X104854734Y-104602901D01*
X104653028Y-104754086D01*
X104459082Y-104772382D01*
X104431967Y-104766338D01*
X104274894Y-104702112D01*
X104242482Y-104603029D01*
X104338514Y-104445237D01*
X104512533Y-104258533D01*
X104730328Y-104071320D01*
X104937184Y-103987699D01*
X105171027Y-103970666D01*
X105452673Y-104002249D01*
X105452673Y-104002249D01*
G37*
X105452673Y-104002249D02*
X105692103Y-104081016D01*
X105737541Y-104107870D01*
X105835681Y-104204021D01*
X105890472Y-104340985D01*
X105900361Y-104542203D01*
X105863796Y-104831114D01*
X105779221Y-105231160D01*
X105645085Y-105765781D01*
X105621788Y-105854500D01*
X105515524Y-106250608D01*
X105436346Y-106511085D01*
X105369284Y-106664327D01*
X105299365Y-106738730D01*
X105211620Y-106762690D01*
X105141922Y-106764666D01*
X104952738Y-106726848D01*
X104902000Y-106627299D01*
X104877662Y-106537804D01*
X104781257Y-106590140D01*
X104625422Y-106646930D01*
X104382299Y-106667367D01*
X104295995Y-106664007D01*
X104052932Y-106629159D01*
X103921962Y-106549474D01*
X103854574Y-106417668D01*
X103814158Y-106074598D01*
X103851363Y-105911075D01*
X104309333Y-105911075D01*
X104366176Y-106137306D01*
X104509802Y-106247502D01*
X104699852Y-106237472D01*
X104895969Y-106103026D01*
X104987594Y-105981500D01*
X105121647Y-105725840D01*
X105137689Y-105574052D01*
X105032017Y-105505078D01*
X104902000Y-105494666D01*
X104683897Y-105545615D01*
X104474480Y-105669955D01*
X104334611Y-105824924D01*
X104309333Y-105911075D01*
X103851363Y-105911075D01*
X103896569Y-105712388D01*
X104083670Y-105405723D01*
X104105954Y-105382469D01*
X104341355Y-105219101D01*
X104672913Y-105124991D01*
X104783634Y-105108924D01*
X105115182Y-105041872D01*
X105297854Y-104939005D01*
X105327736Y-104897510D01*
X105403372Y-104689610D01*
X105346847Y-104551022D01*
X105240100Y-104478363D01*
X105099570Y-104438565D01*
X104960406Y-104505810D01*
X104854734Y-104602901D01*
X104653028Y-104754086D01*
X104459082Y-104772382D01*
X104431967Y-104766338D01*
X104274894Y-104702112D01*
X104242482Y-104603029D01*
X104338514Y-104445237D01*
X104512533Y-104258533D01*
X104730328Y-104071320D01*
X104937184Y-103987699D01*
X105171027Y-103970666D01*
X105452673Y-104002249D01*
G36*
X103703445Y-103877082D02*
X103926432Y-104083462D01*
X104044047Y-104389171D01*
X104055333Y-104532418D01*
X104039674Y-104726459D01*
X103961721Y-104804028D01*
X103801333Y-104817333D01*
X103613311Y-104789099D01*
X103548819Y-104688234D01*
X103547333Y-104658366D01*
X103476174Y-104454883D01*
X103301464Y-104344170D01*
X103126643Y-104350827D01*
X102947347Y-104480921D01*
X102786121Y-104722561D01*
X102658415Y-105027198D01*
X102579681Y-105346287D01*
X102565371Y-105631280D01*
X102630936Y-105833629D01*
X102648348Y-105853586D01*
X102841127Y-105946279D01*
X103047611Y-105899520D01*
X103212430Y-105728459D01*
X103229425Y-105694583D01*
X103361375Y-105550849D01*
X103545641Y-105490951D01*
X103711734Y-105529998D01*
X103759954Y-105580877D01*
X103755632Y-105715485D01*
X103658066Y-105914236D01*
X103500597Y-106128803D01*
X103316566Y-106310857D01*
X103204697Y-106385719D01*
X102849824Y-106500114D01*
X102530473Y-106451668D01*
X102303221Y-106306144D01*
X102171340Y-106175061D01*
X102100198Y-106033919D01*
X102071953Y-105826461D01*
X102068300Y-105565311D01*
X102130724Y-105051650D01*
X102299864Y-104594022D01*
X102556377Y-104217988D01*
X102880923Y-103949112D01*
X103254158Y-103812957D01*
X103403015Y-103801333D01*
X103703445Y-103877082D01*
X103703445Y-103877082D01*
G37*
X103703445Y-103877082D02*
X103926432Y-104083462D01*
X104044047Y-104389171D01*
X104055333Y-104532418D01*
X104039674Y-104726459D01*
X103961721Y-104804028D01*
X103801333Y-104817333D01*
X103613311Y-104789099D01*
X103548819Y-104688234D01*
X103547333Y-104658366D01*
X103476174Y-104454883D01*
X103301464Y-104344170D01*
X103126643Y-104350827D01*
X102947347Y-104480921D01*
X102786121Y-104722561D01*
X102658415Y-105027198D01*
X102579681Y-105346287D01*
X102565371Y-105631280D01*
X102630936Y-105833629D01*
X102648348Y-105853586D01*
X102841127Y-105946279D01*
X103047611Y-105899520D01*
X103212430Y-105728459D01*
X103229425Y-105694583D01*
X103361375Y-105550849D01*
X103545641Y-105490951D01*
X103711734Y-105529998D01*
X103759954Y-105580877D01*
X103755632Y-105715485D01*
X103658066Y-105914236D01*
X103500597Y-106128803D01*
X103316566Y-106310857D01*
X103204697Y-106385719D01*
X102849824Y-106500114D01*
X102530473Y-106451668D01*
X102303221Y-106306144D01*
X102171340Y-106175061D01*
X102100198Y-106033919D01*
X102071953Y-105826461D01*
X102068300Y-105565311D01*
X102130724Y-105051650D01*
X102299864Y-104594022D01*
X102556377Y-104217988D01*
X102880923Y-103949112D01*
X103254158Y-103812957D01*
X103403015Y-103801333D01*
X103703445Y-103877082D01*
G36*
X113532239Y-97801307D02*
X113565002Y-97829097D01*
X113648204Y-97946583D01*
X113691126Y-98109332D01*
X113692129Y-98341175D01*
X113649578Y-98665940D01*
X113561834Y-99107458D01*
X113441164Y-99631500D01*
X113332850Y-100080106D01*
X113251801Y-100389667D01*
X113186485Y-100585966D01*
X113125367Y-100694785D01*
X113056915Y-100741908D01*
X112969596Y-100753118D01*
X112939347Y-100753333D01*
X112755096Y-100719169D01*
X112666638Y-100647500D01*
X112610102Y-100584124D01*
X112515650Y-100647500D01*
X112328369Y-100736553D01*
X112080375Y-100755685D01*
X111842855Y-100709822D01*
X111686996Y-100603887D01*
X111678312Y-100589566D01*
X111585655Y-100251731D01*
X111608212Y-100076666D01*
X112149623Y-100076666D01*
X112161008Y-100139500D01*
X112267382Y-100234881D01*
X112444413Y-100235561D01*
X112629942Y-100151882D01*
X112734645Y-100044054D01*
X112857978Y-99807250D01*
X112939977Y-99586674D01*
X112980748Y-99412957D01*
X112940409Y-99362815D01*
X112788879Y-99398135D01*
X112565144Y-99470918D01*
X112422082Y-99523636D01*
X112287455Y-99650771D01*
X112184757Y-99863135D01*
X112149623Y-100076666D01*
X111608212Y-100076666D01*
X111631731Y-99894147D01*
X111795492Y-99553134D01*
X112055890Y-99265016D01*
X112391878Y-99066115D01*
X112594089Y-99009167D01*
X112932713Y-98897171D01*
X113139557Y-98713228D01*
X113199333Y-98505602D01*
X113140605Y-98330789D01*
X112997279Y-98256061D01*
X112818637Y-98277823D01*
X112653964Y-98392480D01*
X112564361Y-98551910D01*
X112453168Y-98687054D01*
X112262294Y-98721333D01*
X112086299Y-98707543D01*
X112014000Y-98674795D01*
X112064639Y-98524854D01*
X112190628Y-98310470D01*
X112353068Y-98092189D01*
X112466350Y-97970693D01*
X112714010Y-97815181D01*
X113014257Y-97729951D01*
X113307023Y-97722746D01*
X113532239Y-97801307D01*
X113532239Y-97801307D01*
G37*
X113532239Y-97801307D02*
X113565002Y-97829097D01*
X113648204Y-97946583D01*
X113691126Y-98109332D01*
X113692129Y-98341175D01*
X113649578Y-98665940D01*
X113561834Y-99107458D01*
X113441164Y-99631500D01*
X113332850Y-100080106D01*
X113251801Y-100389667D01*
X113186485Y-100585966D01*
X113125367Y-100694785D01*
X113056915Y-100741908D01*
X112969596Y-100753118D01*
X112939347Y-100753333D01*
X112755096Y-100719169D01*
X112666638Y-100647500D01*
X112610102Y-100584124D01*
X112515650Y-100647500D01*
X112328369Y-100736553D01*
X112080375Y-100755685D01*
X111842855Y-100709822D01*
X111686996Y-100603887D01*
X111678312Y-100589566D01*
X111585655Y-100251731D01*
X111608212Y-100076666D01*
X112149623Y-100076666D01*
X112161008Y-100139500D01*
X112267382Y-100234881D01*
X112444413Y-100235561D01*
X112629942Y-100151882D01*
X112734645Y-100044054D01*
X112857978Y-99807250D01*
X112939977Y-99586674D01*
X112980748Y-99412957D01*
X112940409Y-99362815D01*
X112788879Y-99398135D01*
X112565144Y-99470918D01*
X112422082Y-99523636D01*
X112287455Y-99650771D01*
X112184757Y-99863135D01*
X112149623Y-100076666D01*
X111608212Y-100076666D01*
X111631731Y-99894147D01*
X111795492Y-99553134D01*
X112055890Y-99265016D01*
X112391878Y-99066115D01*
X112594089Y-99009167D01*
X112932713Y-98897171D01*
X113139557Y-98713228D01*
X113199333Y-98505602D01*
X113140605Y-98330789D01*
X112997279Y-98256061D01*
X112818637Y-98277823D01*
X112653964Y-98392480D01*
X112564361Y-98551910D01*
X112453168Y-98687054D01*
X112262294Y-98721333D01*
X112086299Y-98707543D01*
X112014000Y-98674795D01*
X112064639Y-98524854D01*
X112190628Y-98310470D01*
X112353068Y-98092189D01*
X112466350Y-97970693D01*
X112714010Y-97815181D01*
X113014257Y-97729951D01*
X113307023Y-97722746D01*
X113532239Y-97801307D01*
G36*
X109427939Y-97835053D02*
X109626345Y-97982177D01*
X109733401Y-98249317D01*
X109762135Y-98654418D01*
X109761951Y-98667175D01*
X109680653Y-99266613D01*
X109467856Y-99815541D01*
X109140638Y-100273622D01*
X109040300Y-100371625D01*
X108710031Y-100594355D01*
X108385930Y-100674405D01*
X108095234Y-100608454D01*
X107954722Y-100504055D01*
X107778716Y-100216343D01*
X107716167Y-99849719D01*
X107737817Y-99607239D01*
X108264350Y-99607239D01*
X108274842Y-99857449D01*
X108298977Y-99925932D01*
X108448402Y-100062039D01*
X108647273Y-100065852D01*
X108850647Y-99945667D01*
X108965191Y-99802976D01*
X109086577Y-99543686D01*
X109187589Y-99223254D01*
X109254735Y-98900946D01*
X109274525Y-98636030D01*
X109256237Y-98524311D01*
X109130227Y-98411772D01*
X108963846Y-98382666D01*
X108763837Y-98429436D01*
X108597892Y-98594363D01*
X108548898Y-98668916D01*
X108412867Y-98955186D01*
X108314188Y-99287222D01*
X108264350Y-99607239D01*
X107737817Y-99607239D01*
X107753043Y-99436721D01*
X107875313Y-99009885D01*
X108068946Y-98601748D01*
X108319911Y-98244845D01*
X108614175Y-97971714D01*
X108937708Y-97814891D01*
X109125157Y-97790000D01*
X109427939Y-97835053D01*
X109427939Y-97835053D01*
G37*
X109427939Y-97835053D02*
X109626345Y-97982177D01*
X109733401Y-98249317D01*
X109762135Y-98654418D01*
X109761951Y-98667175D01*
X109680653Y-99266613D01*
X109467856Y-99815541D01*
X109140638Y-100273622D01*
X109040300Y-100371625D01*
X108710031Y-100594355D01*
X108385930Y-100674405D01*
X108095234Y-100608454D01*
X107954722Y-100504055D01*
X107778716Y-100216343D01*
X107716167Y-99849719D01*
X107737817Y-99607239D01*
X108264350Y-99607239D01*
X108274842Y-99857449D01*
X108298977Y-99925932D01*
X108448402Y-100062039D01*
X108647273Y-100065852D01*
X108850647Y-99945667D01*
X108965191Y-99802976D01*
X109086577Y-99543686D01*
X109187589Y-99223254D01*
X109254735Y-98900946D01*
X109274525Y-98636030D01*
X109256237Y-98524311D01*
X109130227Y-98411772D01*
X108963846Y-98382666D01*
X108763837Y-98429436D01*
X108597892Y-98594363D01*
X108548898Y-98668916D01*
X108412867Y-98955186D01*
X108314188Y-99287222D01*
X108264350Y-99607239D01*
X107737817Y-99607239D01*
X107753043Y-99436721D01*
X107875313Y-99009885D01*
X108068946Y-98601748D01*
X108319911Y-98244845D01*
X108614175Y-97971714D01*
X108937708Y-97814891D01*
X109125157Y-97790000D01*
X109427939Y-97835053D01*
G36*
X111074324Y-97007051D02*
X111058154Y-97173252D01*
X111046039Y-97239025D01*
X110995081Y-97477770D01*
X110946768Y-97654809D01*
X110941643Y-97669012D01*
X110960907Y-97766611D01*
X111083483Y-97790000D01*
X111218924Y-97819250D01*
X111230833Y-97938838D01*
X111220697Y-97980500D01*
X111179907Y-98153437D01*
X111168489Y-98228611D01*
X111095696Y-98284204D01*
X110979471Y-98313278D01*
X110877134Y-98353169D01*
X110791958Y-98460817D01*
X110706543Y-98668608D01*
X110603489Y-99008927D01*
X110601028Y-99017666D01*
X110482379Y-99469668D01*
X110422753Y-99782142D01*
X110420936Y-99973816D01*
X110475711Y-100063418D01*
X110532333Y-100076000D01*
X110633553Y-100118147D01*
X110651029Y-100262703D01*
X110605969Y-100478166D01*
X110523972Y-100618505D01*
X110347602Y-100667100D01*
X110285391Y-100668666D01*
X110064024Y-100638500D01*
X109914266Y-100567066D01*
X109845538Y-100461436D01*
X109820880Y-100305660D01*
X109842733Y-100071564D01*
X109913537Y-99730973D01*
X110024119Y-99298943D01*
X110129909Y-98901740D01*
X110194869Y-98639972D01*
X110221614Y-98485408D01*
X110212759Y-98409819D01*
X110170919Y-98384973D01*
X110109000Y-98382666D01*
X110005525Y-98350335D01*
X109993423Y-98232213D01*
X110061858Y-98014312D01*
X110174064Y-97845468D01*
X110290739Y-97775569D01*
X110419899Y-97666193D01*
X110523849Y-97398561D01*
X110531957Y-97366268D01*
X110604497Y-97126409D01*
X110694814Y-97007058D01*
X110841561Y-96960682D01*
X110864080Y-96957846D01*
X111019310Y-96950204D01*
X111074324Y-97007051D01*
X111074324Y-97007051D01*
G37*
X111074324Y-97007051D02*
X111058154Y-97173252D01*
X111046039Y-97239025D01*
X110995081Y-97477770D01*
X110946768Y-97654809D01*
X110941643Y-97669012D01*
X110960907Y-97766611D01*
X111083483Y-97790000D01*
X111218924Y-97819250D01*
X111230833Y-97938838D01*
X111220697Y-97980500D01*
X111179907Y-98153437D01*
X111168489Y-98228611D01*
X111095696Y-98284204D01*
X110979471Y-98313278D01*
X110877134Y-98353169D01*
X110791958Y-98460817D01*
X110706543Y-98668608D01*
X110603489Y-99008927D01*
X110601028Y-99017666D01*
X110482379Y-99469668D01*
X110422753Y-99782142D01*
X110420936Y-99973816D01*
X110475711Y-100063418D01*
X110532333Y-100076000D01*
X110633553Y-100118147D01*
X110651029Y-100262703D01*
X110605969Y-100478166D01*
X110523972Y-100618505D01*
X110347602Y-100667100D01*
X110285391Y-100668666D01*
X110064024Y-100638500D01*
X109914266Y-100567066D01*
X109845538Y-100461436D01*
X109820880Y-100305660D01*
X109842733Y-100071564D01*
X109913537Y-99730973D01*
X110024119Y-99298943D01*
X110129909Y-98901740D01*
X110194869Y-98639972D01*
X110221614Y-98485408D01*
X110212759Y-98409819D01*
X110170919Y-98384973D01*
X110109000Y-98382666D01*
X110005525Y-98350335D01*
X109993423Y-98232213D01*
X110061858Y-98014312D01*
X110174064Y-97845468D01*
X110290739Y-97775569D01*
X110419899Y-97666193D01*
X110523849Y-97398561D01*
X110531957Y-97366268D01*
X110604497Y-97126409D01*
X110694814Y-97007058D01*
X110841561Y-96960682D01*
X110864080Y-96957846D01*
X111019310Y-96950204D01*
X111074324Y-97007051D01*
G36*
X107559415Y-97854894D02*
X107684057Y-97942239D01*
X107756317Y-98081482D01*
X107775616Y-98294345D01*
X107741373Y-98602548D01*
X107653011Y-99027811D01*
X107513409Y-99578851D01*
X107400337Y-99998550D01*
X107316389Y-100281394D01*
X107247923Y-100454371D01*
X107181299Y-100544470D01*
X107102877Y-100578682D01*
X107005409Y-100584000D01*
X106833179Y-100564670D01*
X106765718Y-100520500D01*
X106787454Y-100415850D01*
X106844872Y-100187979D01*
X106927765Y-99876661D01*
X106977385Y-99695595D01*
X107109956Y-99172866D01*
X107176831Y-98793235D01*
X107178444Y-98543914D01*
X107115230Y-98412115D01*
X107021964Y-98382666D01*
X106837902Y-98435578D01*
X106672686Y-98604457D01*
X106517270Y-98904520D01*
X106362608Y-99350980D01*
X106286557Y-99619612D01*
X106180036Y-100007865D01*
X106100474Y-100261015D01*
X106032406Y-100407891D01*
X105960369Y-100477324D01*
X105868897Y-100498142D01*
X105814661Y-100499333D01*
X105644592Y-100471097D01*
X105579333Y-100408417D01*
X105600780Y-100304164D01*
X105658850Y-100071786D01*
X105744137Y-99746116D01*
X105847231Y-99361986D01*
X105958727Y-98954230D01*
X106069218Y-98557678D01*
X106169295Y-98207165D01*
X106223610Y-98022833D01*
X106343156Y-97901743D01*
X106513714Y-97874666D01*
X106685812Y-97897937D01*
X106718394Y-97978093D01*
X106711624Y-97999042D01*
X106720729Y-98055900D01*
X106837440Y-98022424D01*
X107001031Y-97938752D01*
X107233472Y-97827535D01*
X107398415Y-97804137D01*
X107559415Y-97854894D01*
X107559415Y-97854894D01*
G37*
X107559415Y-97854894D02*
X107684057Y-97942239D01*
X107756317Y-98081482D01*
X107775616Y-98294345D01*
X107741373Y-98602548D01*
X107653011Y-99027811D01*
X107513409Y-99578851D01*
X107400337Y-99998550D01*
X107316389Y-100281394D01*
X107247923Y-100454371D01*
X107181299Y-100544470D01*
X107102877Y-100578682D01*
X107005409Y-100584000D01*
X106833179Y-100564670D01*
X106765718Y-100520500D01*
X106787454Y-100415850D01*
X106844872Y-100187979D01*
X106927765Y-99876661D01*
X106977385Y-99695595D01*
X107109956Y-99172866D01*
X107176831Y-98793235D01*
X107178444Y-98543914D01*
X107115230Y-98412115D01*
X107021964Y-98382666D01*
X106837902Y-98435578D01*
X106672686Y-98604457D01*
X106517270Y-98904520D01*
X106362608Y-99350980D01*
X106286557Y-99619612D01*
X106180036Y-100007865D01*
X106100474Y-100261015D01*
X106032406Y-100407891D01*
X105960369Y-100477324D01*
X105868897Y-100498142D01*
X105814661Y-100499333D01*
X105644592Y-100471097D01*
X105579333Y-100408417D01*
X105600780Y-100304164D01*
X105658850Y-100071786D01*
X105744137Y-99746116D01*
X105847231Y-99361986D01*
X105958727Y-98954230D01*
X106069218Y-98557678D01*
X106169295Y-98207165D01*
X106223610Y-98022833D01*
X106343156Y-97901743D01*
X106513714Y-97874666D01*
X106685812Y-97897937D01*
X106718394Y-97978093D01*
X106711624Y-97999042D01*
X106720729Y-98055900D01*
X106837440Y-98022424D01*
X107001031Y-97938752D01*
X107233472Y-97827535D01*
X107398415Y-97804137D01*
X107559415Y-97854894D01*
G36*
X109034591Y-90722970D02*
X109034959Y-90723248D01*
X109038442Y-90812026D01*
X109012962Y-91002705D01*
X109004772Y-91048204D01*
X108944846Y-91255828D01*
X108829652Y-91356228D01*
X108639479Y-91402119D01*
X108411354Y-91442958D01*
X108254183Y-91476512D01*
X108241319Y-91480074D01*
X108190006Y-91566824D01*
X108105333Y-91789616D01*
X107996600Y-92120620D01*
X107873105Y-92532007D01*
X107783837Y-92849310D01*
X107655292Y-93311128D01*
X107536875Y-93723048D01*
X107437831Y-94053929D01*
X107367406Y-94272625D01*
X107341372Y-94339833D01*
X107195802Y-94457871D01*
X107021597Y-94488000D01*
X106859369Y-94476588D01*
X106812261Y-94408883D01*
X106850145Y-94234678D01*
X106856469Y-94212833D01*
X106909102Y-94027850D01*
X106995327Y-93720534D01*
X107103712Y-93331789D01*
X107222825Y-92902520D01*
X107237384Y-92849913D01*
X107352614Y-92436703D01*
X107454649Y-92076930D01*
X107533595Y-91805047D01*
X107579558Y-91655508D01*
X107583729Y-91643812D01*
X107580208Y-91574819D01*
X107474814Y-91555386D01*
X107241955Y-91578535D01*
X106854766Y-91631605D01*
X106935238Y-91351013D01*
X107007575Y-91143573D01*
X107075661Y-91015224D01*
X107080689Y-91009985D01*
X107180611Y-90978851D01*
X107404687Y-90934194D01*
X107711455Y-90882100D01*
X108059456Y-90828651D01*
X108407231Y-90779931D01*
X108713318Y-90742021D01*
X108936258Y-90721007D01*
X109034591Y-90722970D01*
X109034591Y-90722970D01*
G37*
X109034591Y-90722970D02*
X109034959Y-90723248D01*
X109038442Y-90812026D01*
X109012962Y-91002705D01*
X109004772Y-91048204D01*
X108944846Y-91255828D01*
X108829652Y-91356228D01*
X108639479Y-91402119D01*
X108411354Y-91442958D01*
X108254183Y-91476512D01*
X108241319Y-91480074D01*
X108190006Y-91566824D01*
X108105333Y-91789616D01*
X107996600Y-92120620D01*
X107873105Y-92532007D01*
X107783837Y-92849310D01*
X107655292Y-93311128D01*
X107536875Y-93723048D01*
X107437831Y-94053929D01*
X107367406Y-94272625D01*
X107341372Y-94339833D01*
X107195802Y-94457871D01*
X107021597Y-94488000D01*
X106859369Y-94476588D01*
X106812261Y-94408883D01*
X106850145Y-94234678D01*
X106856469Y-94212833D01*
X106909102Y-94027850D01*
X106995327Y-93720534D01*
X107103712Y-93331789D01*
X107222825Y-92902520D01*
X107237384Y-92849913D01*
X107352614Y-92436703D01*
X107454649Y-92076930D01*
X107533595Y-91805047D01*
X107579558Y-91655508D01*
X107583729Y-91643812D01*
X107580208Y-91574819D01*
X107474814Y-91555386D01*
X107241955Y-91578535D01*
X106854766Y-91631605D01*
X106935238Y-91351013D01*
X107007575Y-91143573D01*
X107075661Y-91015224D01*
X107080689Y-91009985D01*
X107180611Y-90978851D01*
X107404687Y-90934194D01*
X107711455Y-90882100D01*
X108059456Y-90828651D01*
X108407231Y-90779931D01*
X108713318Y-90742021D01*
X108936258Y-90721007D01*
X109034591Y-90722970D01*
G36*
X109689819Y-90611597D02*
X109681861Y-90699810D01*
X109636248Y-90907763D01*
X109562515Y-91192570D01*
X109552829Y-91227718D01*
X109456988Y-91579214D01*
X109408903Y-91787993D01*
X109410353Y-91874311D01*
X109463116Y-91858423D01*
X109568971Y-91760585D01*
X109597151Y-91732484D01*
X109834032Y-91577998D01*
X110096743Y-91526720D01*
X110325769Y-91584545D01*
X110405928Y-91652383D01*
X110455902Y-91745023D01*
X110473920Y-91882730D01*
X110456668Y-92089596D01*
X110400835Y-92389716D01*
X110303108Y-92807182D01*
X110181682Y-93283612D01*
X110072703Y-93684742D01*
X109985419Y-93951415D01*
X109905677Y-94114670D01*
X109819329Y-94205544D01*
X109743809Y-94244084D01*
X109572803Y-94287644D01*
X109488763Y-94276986D01*
X109489757Y-94181063D01*
X109528517Y-93957565D01*
X109598044Y-93642223D01*
X109669839Y-93352746D01*
X109789685Y-92874914D01*
X109862202Y-92536443D01*
X109888467Y-92314426D01*
X109869560Y-92185958D01*
X109806557Y-92128132D01*
X109728000Y-92117333D01*
X109493791Y-92199557D01*
X109291266Y-92439909D01*
X109127991Y-92828911D01*
X109109444Y-92892029D01*
X109008162Y-93251711D01*
X108896181Y-93649162D01*
X108847276Y-93822659D01*
X108733073Y-94143024D01*
X108597514Y-94324561D01*
X108412924Y-94397653D01*
X108318369Y-94403333D01*
X108229466Y-94344941D01*
X108237134Y-94255166D01*
X108274065Y-94124742D01*
X108346436Y-93863116D01*
X108445388Y-93502524D01*
X108562062Y-93075202D01*
X108626883Y-92837000D01*
X108802219Y-92191661D01*
X108939397Y-91690714D01*
X109045395Y-91315344D01*
X109127191Y-91046735D01*
X109191761Y-90866071D01*
X109246084Y-90754537D01*
X109297137Y-90693318D01*
X109351898Y-90663598D01*
X109417345Y-90646563D01*
X109441330Y-90640806D01*
X109613410Y-90608399D01*
X109689819Y-90611597D01*
X109689819Y-90611597D01*
G37*
X109689819Y-90611597D02*
X109681861Y-90699810D01*
X109636248Y-90907763D01*
X109562515Y-91192570D01*
X109552829Y-91227718D01*
X109456988Y-91579214D01*
X109408903Y-91787993D01*
X109410353Y-91874311D01*
X109463116Y-91858423D01*
X109568971Y-91760585D01*
X109597151Y-91732484D01*
X109834032Y-91577998D01*
X110096743Y-91526720D01*
X110325769Y-91584545D01*
X110405928Y-91652383D01*
X110455902Y-91745023D01*
X110473920Y-91882730D01*
X110456668Y-92089596D01*
X110400835Y-92389716D01*
X110303108Y-92807182D01*
X110181682Y-93283612D01*
X110072703Y-93684742D01*
X109985419Y-93951415D01*
X109905677Y-94114670D01*
X109819329Y-94205544D01*
X109743809Y-94244084D01*
X109572803Y-94287644D01*
X109488763Y-94276986D01*
X109489757Y-94181063D01*
X109528517Y-93957565D01*
X109598044Y-93642223D01*
X109669839Y-93352746D01*
X109789685Y-92874914D01*
X109862202Y-92536443D01*
X109888467Y-92314426D01*
X109869560Y-92185958D01*
X109806557Y-92128132D01*
X109728000Y-92117333D01*
X109493791Y-92199557D01*
X109291266Y-92439909D01*
X109127991Y-92828911D01*
X109109444Y-92892029D01*
X109008162Y-93251711D01*
X108896181Y-93649162D01*
X108847276Y-93822659D01*
X108733073Y-94143024D01*
X108597514Y-94324561D01*
X108412924Y-94397653D01*
X108318369Y-94403333D01*
X108229466Y-94344941D01*
X108237134Y-94255166D01*
X108274065Y-94124742D01*
X108346436Y-93863116D01*
X108445388Y-93502524D01*
X108562062Y-93075202D01*
X108626883Y-92837000D01*
X108802219Y-92191661D01*
X108939397Y-91690714D01*
X109045395Y-91315344D01*
X109127191Y-91046735D01*
X109191761Y-90866071D01*
X109246084Y-90754537D01*
X109297137Y-90693318D01*
X109351898Y-90663598D01*
X109417345Y-90646563D01*
X109441330Y-90640806D01*
X109613410Y-90608399D01*
X109689819Y-90611597D01*
G36*
X111352024Y-91446425D02*
X111419084Y-91461166D01*
X111397617Y-91545774D01*
X111339635Y-91766489D01*
X111252406Y-92095841D01*
X111143201Y-92506364D01*
X111054987Y-92837000D01*
X110920321Y-93336736D01*
X110818203Y-93696304D01*
X110738505Y-93939401D01*
X110671098Y-94089726D01*
X110605855Y-94170977D01*
X110532646Y-94206853D01*
X110464569Y-94218457D01*
X110294767Y-94207804D01*
X110236000Y-94148686D01*
X110257065Y-94037456D01*
X110315239Y-93792987D01*
X110402985Y-93445381D01*
X110512769Y-93024742D01*
X110587095Y-92746062D01*
X110719173Y-92257807D01*
X110818197Y-91909496D01*
X110894890Y-91677498D01*
X110959977Y-91538182D01*
X111024180Y-91467914D01*
X111098224Y-91443064D01*
X111179761Y-91440000D01*
X111352024Y-91446425D01*
X111352024Y-91446425D01*
G37*
X111352024Y-91446425D02*
X111419084Y-91461166D01*
X111397617Y-91545774D01*
X111339635Y-91766489D01*
X111252406Y-92095841D01*
X111143201Y-92506364D01*
X111054987Y-92837000D01*
X110920321Y-93336736D01*
X110818203Y-93696304D01*
X110738505Y-93939401D01*
X110671098Y-94089726D01*
X110605855Y-94170977D01*
X110532646Y-94206853D01*
X110464569Y-94218457D01*
X110294767Y-94207804D01*
X110236000Y-94148686D01*
X110257065Y-94037456D01*
X110315239Y-93792987D01*
X110402985Y-93445381D01*
X110512769Y-93024742D01*
X110587095Y-92746062D01*
X110719173Y-92257807D01*
X110818197Y-91909496D01*
X110894890Y-91677498D01*
X110959977Y-91538182D01*
X111024180Y-91467914D01*
X111098224Y-91443064D01*
X111179761Y-91440000D01*
X111352024Y-91446425D01*
G36*
X112832975Y-91250437D02*
X113001339Y-91418211D01*
X113027444Y-91475611D01*
X113068567Y-91724810D01*
X113009657Y-91917617D01*
X112883690Y-92027715D01*
X112723639Y-92028788D01*
X112562477Y-91894517D01*
X112541648Y-91863333D01*
X112411764Y-91719401D01*
X112270987Y-91724728D01*
X112100587Y-91861412D01*
X111981397Y-92043001D01*
X112023629Y-92193667D01*
X112230200Y-92319044D01*
X112360986Y-92363822D01*
X112655572Y-92503077D01*
X112805404Y-92712247D01*
X112820499Y-93011279D01*
X112780872Y-93199904D01*
X112601496Y-93618625D01*
X112330414Y-93937761D01*
X111995215Y-94136913D01*
X111623488Y-94195686D01*
X111463666Y-94173731D01*
X111231088Y-94041812D01*
X111103442Y-93787669D01*
X111082666Y-93591876D01*
X111133864Y-93385094D01*
X111257295Y-93249749D01*
X111407715Y-93201693D01*
X111539879Y-93256783D01*
X111605944Y-93408500D01*
X111696831Y-93569118D01*
X111867976Y-93634977D01*
X112054706Y-93598888D01*
X112182992Y-93472637D01*
X112254458Y-93250287D01*
X112186912Y-93079363D01*
X111967559Y-92937721D01*
X111845415Y-92888321D01*
X111582148Y-92763175D01*
X111451224Y-92605786D01*
X111428203Y-92369669D01*
X111459199Y-92153703D01*
X111574830Y-91843508D01*
X111777559Y-91579114D01*
X112036060Y-91374067D01*
X112319013Y-91241909D01*
X112595092Y-91196185D01*
X112832975Y-91250437D01*
X112832975Y-91250437D01*
G37*
X112832975Y-91250437D02*
X113001339Y-91418211D01*
X113027444Y-91475611D01*
X113068567Y-91724810D01*
X113009657Y-91917617D01*
X112883690Y-92027715D01*
X112723639Y-92028788D01*
X112562477Y-91894517D01*
X112541648Y-91863333D01*
X112411764Y-91719401D01*
X112270987Y-91724728D01*
X112100587Y-91861412D01*
X111981397Y-92043001D01*
X112023629Y-92193667D01*
X112230200Y-92319044D01*
X112360986Y-92363822D01*
X112655572Y-92503077D01*
X112805404Y-92712247D01*
X112820499Y-93011279D01*
X112780872Y-93199904D01*
X112601496Y-93618625D01*
X112330414Y-93937761D01*
X111995215Y-94136913D01*
X111623488Y-94195686D01*
X111463666Y-94173731D01*
X111231088Y-94041812D01*
X111103442Y-93787669D01*
X111082666Y-93591876D01*
X111133864Y-93385094D01*
X111257295Y-93249749D01*
X111407715Y-93201693D01*
X111539879Y-93256783D01*
X111605944Y-93408500D01*
X111696831Y-93569118D01*
X111867976Y-93634977D01*
X112054706Y-93598888D01*
X112182992Y-93472637D01*
X112254458Y-93250287D01*
X112186912Y-93079363D01*
X111967559Y-92937721D01*
X111845415Y-92888321D01*
X111582148Y-92763175D01*
X111451224Y-92605786D01*
X111428203Y-92369669D01*
X111459199Y-92153703D01*
X111574830Y-91843508D01*
X111777559Y-91579114D01*
X112036060Y-91374067D01*
X112319013Y-91241909D01*
X112595092Y-91196185D01*
X112832975Y-91250437D01*
G36*
X114745652Y-91041703D02*
X114808000Y-91097450D01*
X114788293Y-91206601D01*
X114733719Y-91450838D01*
X114651095Y-91801122D01*
X114547238Y-92228416D01*
X114458816Y-92584740D01*
X114109632Y-93980000D01*
X113864536Y-93980000D01*
X113694842Y-93963793D01*
X113652430Y-93880693D01*
X113678296Y-93747166D01*
X113719433Y-93583665D01*
X113792634Y-93291990D01*
X113888846Y-92908237D01*
X113999017Y-92468497D01*
X114044553Y-92286666D01*
X114164365Y-91813593D01*
X114254927Y-91479969D01*
X114326953Y-91260693D01*
X114391156Y-91130663D01*
X114458249Y-91064778D01*
X114538947Y-91037937D01*
X114579977Y-91032209D01*
X114745652Y-91041703D01*
X114745652Y-91041703D01*
G37*
X114745652Y-91041703D02*
X114808000Y-91097450D01*
X114788293Y-91206601D01*
X114733719Y-91450838D01*
X114651095Y-91801122D01*
X114547238Y-92228416D01*
X114458816Y-92584740D01*
X114109632Y-93980000D01*
X113864536Y-93980000D01*
X113694842Y-93963793D01*
X113652430Y-93880693D01*
X113678296Y-93747166D01*
X113719433Y-93583665D01*
X113792634Y-93291990D01*
X113888846Y-92908237D01*
X113999017Y-92468497D01*
X114044553Y-92286666D01*
X114164365Y-91813593D01*
X114254927Y-91479969D01*
X114326953Y-91260693D01*
X114391156Y-91130663D01*
X114458249Y-91064778D01*
X114538947Y-91037937D01*
X114579977Y-91032209D01*
X114745652Y-91041703D01*
G36*
X116255712Y-90867748D02*
X116328172Y-90928172D01*
X116467005Y-91145675D01*
X116498693Y-91375801D01*
X116429338Y-91568293D01*
X116265039Y-91672892D01*
X116237232Y-91677389D01*
X116053922Y-91658627D01*
X115969992Y-91529222D01*
X115871921Y-91389225D01*
X115717058Y-91360688D01*
X115555725Y-91423923D01*
X115438247Y-91559241D01*
X115414841Y-91746416D01*
X115508813Y-91872511D01*
X115695558Y-91972733D01*
X115697000Y-91973198D01*
X116027724Y-92137025D01*
X116208454Y-92371067D01*
X116240690Y-92680505D01*
X116125930Y-93070518D01*
X116056833Y-93216270D01*
X115805470Y-93581064D01*
X115499102Y-93825605D01*
X115165799Y-93934499D01*
X114833634Y-93892352D01*
X114827935Y-93890152D01*
X114639802Y-93736266D01*
X114519857Y-93486641D01*
X114498311Y-93210560D01*
X114508584Y-93157804D01*
X114613029Y-92997870D01*
X114774611Y-92955770D01*
X114931034Y-93029292D01*
X115012101Y-93175666D01*
X115114353Y-93339672D01*
X115278011Y-93381682D01*
X115460832Y-93313604D01*
X115620571Y-93147349D01*
X115694778Y-92983205D01*
X115708812Y-92856942D01*
X115637422Y-92760534D01*
X115447389Y-92656604D01*
X115375846Y-92624357D01*
X115059530Y-92461602D01*
X114884030Y-92301191D01*
X114824441Y-92110686D01*
X114840982Y-91927761D01*
X114966162Y-91551867D01*
X115172993Y-91230520D01*
X115433418Y-90982578D01*
X115719384Y-90826897D01*
X116002833Y-90782335D01*
X116255712Y-90867748D01*
X116255712Y-90867748D01*
G37*
X116255712Y-90867748D02*
X116328172Y-90928172D01*
X116467005Y-91145675D01*
X116498693Y-91375801D01*
X116429338Y-91568293D01*
X116265039Y-91672892D01*
X116237232Y-91677389D01*
X116053922Y-91658627D01*
X115969992Y-91529222D01*
X115871921Y-91389225D01*
X115717058Y-91360688D01*
X115555725Y-91423923D01*
X115438247Y-91559241D01*
X115414841Y-91746416D01*
X115508813Y-91872511D01*
X115695558Y-91972733D01*
X115697000Y-91973198D01*
X116027724Y-92137025D01*
X116208454Y-92371067D01*
X116240690Y-92680505D01*
X116125930Y-93070518D01*
X116056833Y-93216270D01*
X115805470Y-93581064D01*
X115499102Y-93825605D01*
X115165799Y-93934499D01*
X114833634Y-93892352D01*
X114827935Y-93890152D01*
X114639802Y-93736266D01*
X114519857Y-93486641D01*
X114498311Y-93210560D01*
X114508584Y-93157804D01*
X114613029Y-92997870D01*
X114774611Y-92955770D01*
X114931034Y-93029292D01*
X115012101Y-93175666D01*
X115114353Y-93339672D01*
X115278011Y-93381682D01*
X115460832Y-93313604D01*
X115620571Y-93147349D01*
X115694778Y-92983205D01*
X115708812Y-92856942D01*
X115637422Y-92760534D01*
X115447389Y-92656604D01*
X115375846Y-92624357D01*
X115059530Y-92461602D01*
X114884030Y-92301191D01*
X114824441Y-92110686D01*
X114840982Y-91927761D01*
X114966162Y-91551867D01*
X115172993Y-91230520D01*
X115433418Y-90982578D01*
X115719384Y-90826897D01*
X116002833Y-90782335D01*
X116255712Y-90867748D01*
G36*
X111634859Y-90365807D02*
X111654048Y-90474565D01*
X111629770Y-90614500D01*
X111569149Y-90856393D01*
X111498374Y-90974884D01*
X111379376Y-91013587D01*
X111278753Y-91016666D01*
X111133371Y-91000083D01*
X111091332Y-90916378D01*
X111115691Y-90745708D01*
X111212874Y-90484280D01*
X111386128Y-90359803D01*
X111533893Y-90340629D01*
X111634859Y-90365807D01*
X111634859Y-90365807D01*
G37*
X111634859Y-90365807D02*
X111654048Y-90474565D01*
X111629770Y-90614500D01*
X111569149Y-90856393D01*
X111498374Y-90974884D01*
X111379376Y-91013587D01*
X111278753Y-91016666D01*
X111133371Y-91000083D01*
X111091332Y-90916378D01*
X111115691Y-90745708D01*
X111212874Y-90484280D01*
X111386128Y-90359803D01*
X111533893Y-90340629D01*
X111634859Y-90365807D01*
G36*
X115053852Y-89928163D02*
X115099315Y-89998393D01*
X115059902Y-90177302D01*
X115057636Y-90185213D01*
X114936731Y-90449882D01*
X114752450Y-90574261D01*
X114611794Y-90592036D01*
X114497784Y-90545346D01*
X114499243Y-90445166D01*
X114582096Y-90160500D01*
X114648111Y-90002189D01*
X114724827Y-89933172D01*
X114839783Y-89916391D01*
X114892461Y-89916000D01*
X115053852Y-89928163D01*
X115053852Y-89928163D01*
G37*
X115053852Y-89928163D02*
X115099315Y-89998393D01*
X115059902Y-90177302D01*
X115057636Y-90185213D01*
X114936731Y-90449882D01*
X114752450Y-90574261D01*
X114611794Y-90592036D01*
X114497784Y-90545346D01*
X114499243Y-90445166D01*
X114582096Y-90160500D01*
X114648111Y-90002189D01*
X114724827Y-89933172D01*
X114839783Y-89916391D01*
X114892461Y-89916000D01*
X115053852Y-89928163D01*
D10*
G36*
X123667437Y-107797638D02*
X123357144Y-108955667D01*
X122199115Y-108645374D01*
X122509408Y-107487345D01*
X123667437Y-107797638D01*
X123667437Y-107797638D01*
G37*
G36*
X121640885Y-107254626D02*
X121330592Y-108412655D01*
X120172563Y-108102362D01*
X120482856Y-106944333D01*
X121640885Y-107254626D01*
X121640885Y-107254626D01*
G37*
D12*
X86804500Y-126428500D03*
D13*
X89344500Y-126428500D03*
X86804500Y-128968500D03*
X89344500Y-128968500D03*
D14*
X122936000Y-105410000D03*
X124439770Y-109728000D03*
X119888000Y-107188000D03*
X124417180Y-107950000D03*
X121995048Y-106100101D03*
D15*
X125222000Y-107442000D02*
X125222000Y-108945770D01*
X125222000Y-108945770D02*
X124439770Y-109728000D01*
X123489999Y-105709999D02*
X125222000Y-107442000D01*
X122936000Y-105410000D02*
X123235999Y-105709999D01*
X123235999Y-105709999D02*
X123489999Y-105709999D01*
X124439770Y-109728000D02*
X122933276Y-108221506D01*
D16*
X119888000Y-107188000D02*
X120416230Y-107188000D01*
X120416230Y-107188000D02*
X120906724Y-107678494D01*
X124117181Y-107650001D02*
X124417180Y-107950000D01*
X121995048Y-106100101D02*
X122567281Y-106100101D01*
X122567281Y-106100101D02*
X124117181Y-107650001D01*
M02*
